<svg xmlns="http://www.w3.org/2000/svg" viewBox="0 0 96.04 378.19"><defs><style>.cls-1{fill:#492f21;}.cls-2{fill:#009391;}.cls-3{fill:#02827b;}.cls-4{fill:#e3e5d3;}.cls-5{fill:#ffc388;}.cls-6{fill:#046861;}.cls-7{fill:#f95e36;}.cls-8{fill:#e8aa2e;}.cls-9{fill:#ffca55;}.cls-10{fill:#edaa6e;}.cls-11{fill:#e04527;}.cls-12{fill:#d33920;}</style></defs><title>01</title><g id="Layer_2" data-name="Layer 2"><g id="OBJECTS"><path class="cls-1" d="M50.56,15.14a7.32,7.32,0,0,1-.83-.84,15.46,15.46,0,0,0,1.71-2.86c.58-1.26,1.27-2.91.76-4.29a2.17,2.17,0,0,0-2.76-1.32,3.38,3.38,0,0,0-.58.25A9.18,9.18,0,0,0,49,4c.91-.56,1.81-1.3,1.62-2-.25-.95-1.78-.76-2.65-.65A4.17,4.17,0,0,0,45.46.12C41-.6,35.6,2.06,32,4.46a28,28,0,0,0-2.61,2c-.67.57-1.84,1.34-2.08,2.25a2.08,2.08,0,0,0,1.11,2.22,2.4,2.4,0,0,0-.38.23c-2.38,1.89,1.84,6.11,3.48,7.33-1.16,2-1.46,4.3,1.14,5.52s6.18.51,9-.85a12.61,12.61,0,0,1,3,3.06c.27.42,1,0,.67-.39a13,13,0,0,0-2.91-3,15,15,0,0,0,1.87-1.17c1.06-.77,2.32-1.68,2.24-3.13,0-.05,0-.1,0-.15a7,7,0,0,0,3,.94c1,.12,2.8.31,3.23-1C53.27,16.74,51.44,15.88,50.56,15.14Zm.8-5.7a5.7,5.7,0,0,1-.73,1.88,14.08,14.08,0,0,1-1.41,2.32A6.73,6.73,0,0,1,48,9.32c.2-.55.39-1.15.55-1.76C49.64,5.75,51.5,7.63,51.36,9.44Zm-5.23,7.38c-.9-1.58.34-4,1.22-5.92a9,9,0,0,0,1.37,3.39c-.13.15-.26.32-.4.47A17.84,17.84,0,0,1,46.13,16.82ZM31.2,12.2c1.75.57,3.58.87,5.33,1.45a23.83,23.83,0,0,0-3.47,2.87,5.66,5.66,0,0,1-1.87-4.23S31.2,12.23,31.2,12.2Zm.26-1.52c.9-.26,1.84-.46,2.68-.72l1.72-.53a8.11,8.11,0,0,0,3,2.69c-.5.32-1,.64-1.49,1-.82-.29-1.66-.51-2.47-.72s-2.19-.49-3.58-1A5.49,5.49,0,0,1,31.46,10.68Zm16-8.58a3.19,3.19,0,0,1,.77,1.56l-.75.4a3.49,3.49,0,0,0-1.94-1.58A19.1,19.1,0,0,1,47.43,2.1ZM46.8,4.38c-2.12,1-4.7,2.07-5,2.18-1.79.7-3.62,1.32-5.46,1.9a2.14,2.14,0,0,1,.18-.76A5.12,5.12,0,0,1,38,6.09a17.48,17.48,0,0,1,6.12-3.24C45.3,3,46.49,3.44,46.8,4.38Zm0,.8a2.36,2.36,0,0,1-.19.67c-.43,1-1.94,2.14-2.8,2.82a46.27,46.27,0,0,1-4.3,3q-.69-.42-1.35-.87a4.89,4.89,0,0,1-1.71-1.54A62,62,0,0,0,46.84,5.18ZM37,6a3.24,3.24,0,0,0-1.35,2.73l-1,.31-2.89.88a11.23,11.23,0,0,1,3.63-4.52A12.28,12.28,0,0,1,42,2.77,16.7,16.7,0,0,0,37,6Zm.94,13.92c-.67-.39-1.34-.77-2-1.18A18.92,18.92,0,0,1,33.58,17a27.27,27.27,0,0,1,2.93-2.39c.3-.22.62-.43.93-.64,1.81.73,3.92,2.06,2.62,4.26a8.86,8.86,0,0,1-1.23,1.6C38.53,19.87,38.22,19.87,37.92,19.87Zm-4.84-2.25a19.59,19.59,0,0,0,2.85,2,9.44,9.44,0,0,1-1-.29A10.74,10.74,0,0,1,32.5,18.2c.17-.21.34-.42.53-.62Zm6.86,2.08c1.34-1.67,2.1-3.54.1-5.18a8.19,8.19,0,0,0-1.8-1.08l1.34-.86.25.16a31.64,31.64,0,0,1,3.58,2.33c-.66.94-1.34,1.87-2,2.78C41,18.34,40.52,19,40,19.7ZM44,15.58A6.41,6.41,0,0,1,45.14,17a2.58,2.58,0,0,1,.2.41,14.12,14.12,0,0,1-4.25,2C42.1,18.19,43.06,16.9,44,15.58ZM48.26,5.39A10.8,10.8,0,0,1,48,6.79a3.93,3.93,0,0,0-.78,2.39c-.59,1.47-1.29,2.9-1.85,4.36a5.48,5.48,0,0,0-.4,2L44.41,15l.61-.86c.28-.41-.4-.8-.68-.39l-.52.75-.53-.42a31.05,31.05,0,0,0-3-1.94,27.89,27.89,0,0,0,6.25-4.88,3.45,3.45,0,0,0,1.08-2.47l.65-.35A5.38,5.38,0,0,1,48.26,5.39Zm1.35-2.93c.07.18-.22.46-.72.79A4.48,4.48,0,0,0,48.46,2C49,2,49.48,2.14,49.61,2.46ZM29.24,7.63A26.71,26.71,0,0,1,42.25,1a6.69,6.69,0,0,1,4.43.46A19.29,19.29,0,0,0,44,2.08,9,9,0,0,0,42.75,2,13.25,13.25,0,0,0,32.3,7.32a9.58,9.58,0,0,0-1.45,2.82l-.37.11-1,.28C28.36,9.8,27.91,8.86,29.24,7.63Zm.11,7.46a10.75,10.75,0,0,1-.68-1.19,1.62,1.62,0,0,1,.79-2.39l.36.16a6.65,6.65,0,0,0,.69.28,6.74,6.74,0,0,0,2,5.15c-.19.23-.38.47-.55.72A10.79,10.79,0,0,1,29.35,15.09Zm9.51,8.22c-2,.51-5.86,1.13-7.18-1.14a3.13,3.13,0,0,1,.38-3.36,11,11,0,0,0,5.53,1.79l.31.18c-.46.45-.92.89-1.33,1.33a.39.39,0,0,0,.27.67,3.67,3.67,0,0,0,2.45-1.2c.57.33,1.12.67,1.66,1A19.33,19.33,0,0,1,38.86,23.31Zm2.92-1c-.62-.45-1.27-.87-1.94-1.27l.47-.57a11.75,11.75,0,0,0,2.07-.56,15.63,15.63,0,0,0,3.17-1.64C45.68,20,43.75,21.36,41.78,22.26ZM51,18.53c-.45.4-2.23-.17-2.79-.33a3.89,3.89,0,0,1-1.54-.77,17.21,17.21,0,0,0,2.59-2.53c.38.4.8.74,1.22,1.15C51,16.61,52.73,16.94,51,18.53Z"/><path class="cls-2" d="M29.1,140.21l-.11-.66c-.77-2.75-1.83-5.83-4.44-7a7.58,7.58,0,0,0-3.21-.47c-2.37.07-4.91.76-6.37,2.64A7.84,7.84,0,0,0,13.65,140l.19.38A46.8,46.8,0,0,0,29.1,140.21Zm21.31,9.5.13-.05,0,.08A32.79,32.79,0,0,0,63,146.84a7.66,7.66,0,0,0,2.46-1.55,7.75,7.75,0,0,0,1.71-3.35A25.89,25.89,0,0,0,68,137.6a1.8,1.8,0,0,0,.06-.32c1.28-6.79,2.16-13.64,3-20.5a55.53,55.53,0,0,0,.68-10.84,2.83,2.83,0,0,0-.53-1.74c-.85-1-2.43-.48-3.6.1L60.07,108c-1.6.78-3.31,1.68-4,3.3s-.25,3.4-.18,5.13A11.43,11.43,0,0,1,54.11,123c-1.77,2.78-4.79,4.95-5.3,8.2a13.2,13.2,0,0,1-.34,2.18,5,5,0,0,1-2.35,2.43A4.79,4.79,0,0,1,50,139l.31-.05a34.81,34.81,0,0,1,0,10.54Zm4.14-47.46.07.07c-.3.31.43.55.83.38a99.63,99.63,0,0,1,11.81-4.38c6.49-2,13.52-3.46,18.42-8.15a2.22,2.22,0,0,0,.91-1.86c-.24-1.17-1.88-1.23-3.06-1l-8.79,1.75,3.61-5.13a.88.88,0,0,0,.22-.56c-.06-.51-.81-.49-1.29-.29-4.55,1.82-8.43,5-12.06,8.31A141.86,141.86,0,0,0,54.55,102.25ZM32.39,156.47Q29,157.76,25.59,159a22.1,22.1,0,0,1-5.23,1.49h0l-14.57-.74a7.37,7.37,0,0,1-3.13-.63C.45,158,0,155.1,0,152.64c-.11-11,2.65-21.76,6.18-32.14S14.06,100,17.3,89.55c.56-1.83,1.47-4,3.38-4.25.4,0,.83,0,1.25,0a7.47,7.47,0,0,0,1.81-.37l9.46-2.73a5.9,5.9,0,0,1,2-4A18.83,18.83,0,0,0,38.54,83a8.8,8.8,0,0,0,1.75,1.41,4.92,4.92,0,0,0,.61.3l-.11.45a35.72,35.72,0,0,0,6.89,16.22c.63.82,1.5,1.7,2.51,1.5a2.81,2.81,0,0,0,1.59-1.32C53,99.84,54,98.07,55,96.29l7.2-12.35c1.91-3.25,3.83-6.57,4.69-10.25l0-.15a14.29,14.29,0,0,0,2.57-.67l.21.5a11.78,11.78,0,0,1,5.72-.87A11,11,0,0,1,80.07,74c.87.52,1.69,1.15,2.6,1.6C85,76.7,87.75,76.67,89.91,78a6.59,6.59,0,0,1,2.66,7.34c2.25.89,3.38,3.49,3.46,5.9s-.66,4.8-1,7.2c-.79,5.35.35,10.82-.28,16.19-.7,6-3.52,11.45-5.6,17.1a71.19,71.19,0,0,0-4.27,21.16c-1.08,4.22-2.4,8.69-5.76,11.44-3.74,3-9,3.16-13.83,2.63-7.89-.86-15.56-3.05-23.19-5.23-3.54-1-7.33-2.18-9.6-5.07Zm11.16-52a1.56,1.56,0,0,0-.27-1.25L35.14,88.73a11.37,11.37,0,0,0-1-2.24c-.12-.23-.29-.47-.54-.5s-.58.3-.71.61a6.63,6.63,0,0,0-.41,4.17L27.4,89.21a12.53,12.53,0,0,0,2.21,4.33,41.45,41.45,0,0,0,11.76,10.94C42.08,104.92,43.23,105.21,43.55,104.44Z"/><path class="cls-3" d="M23,188.53q-.46-.25-.93-.54a7.53,7.53,0,0,1-3.28-3.75,9.82,9.82,0,0,1-.19-4q.87-9.85,1.74-19.71h0A22.1,22.1,0,0,0,25.59,159q3.4-1.26,6.8-2.55l.09.23c2.27,2.89,6.06,4.06,9.6,5.07,7.63,2.18,15.3,4.37,23.19,5.23,4.79.53,10.09.42,13.83-2.63,3.36-2.75,4.68-7.22,5.76-11.44a70.87,70.87,0,0,0,.66,13.58c.74,5,2,10,1.72,15.11a4.13,4.13,0,0,1-.65,2.32,2.75,2.75,0,0,1-.22.26,3.92,3.92,0,0,1-1.82.81c-4.84,1.16-9.88,1.31-14.74,2.4-4.1.92-8,2.5-12.14,3.41-7.22,1.58-14.72,1-22.1.46C31.26,191,26.76,190.55,23,188.53Z"/><path class="cls-4" d="M61.73,196.79c-11.48,3.52-23.18,6-35.11,5.74l-1,0a2.52,2.52,0,0,1-2-.74,2.52,2.52,0,0,1-.33-1.43q-.15-5.91-.29-11.81c3.78,2,8.28,2.42,12.59,2.75,7.38.56,14.88,1.12,22.1-.46,4.11-.91,8-2.49,12.14-3.41,4.86-1.09,9.9-1.24,14.74-2.4a3.92,3.92,0,0,0,1.82-.81,2.75,2.75,0,0,0,.22-.26,3.9,3.9,0,0,1-1.1,3.95,5.63,5.63,0,0,1-.72.59,13.26,13.26,0,0,1-3.42,1.62C74.88,192.44,68.34,194.78,61.73,196.79Z"/><path class="cls-3" d="M86.59,88.31a2.22,2.22,0,0,1-.91,1.86c-4.9,4.69-11.93,6.18-18.42,8.15a99.63,99.63,0,0,0-11.81,4.38c-.4.17-1.13-.07-.83-.38l-.07-.07A141.86,141.86,0,0,1,65.22,91.4c3.63-3.31,7.51-6.49,12.06-8.31.48-.2,1.23-.22,1.29.29a.88.88,0,0,1-.22.56l-3.61,5.13,8.79-1.75C84.71,87.08,86.35,87.14,86.59,88.31Z"/><path class="cls-3" d="M68.05,137.27a30.08,30.08,0,0,0-17.47.8l-.37.19c0,.22.07.43.1.65L50,139a4.79,4.79,0,0,0-3.88-3.14,5,5,0,0,0,2.35-2.43,13.2,13.2,0,0,0,.34-2.18c.51-3.25,3.53-5.42,5.3-8.2a11.43,11.43,0,0,0,1.76-6.58c-.07-1.73-.52-3.55.18-5.13s2.42-2.52,4-3.3l7.56-3.7c1.17-.58,2.75-1.08,3.6-.1a2.83,2.83,0,0,1,.53,1.74,55.53,55.53,0,0,1-.68,10.84c-.86,6.86-1.74,13.71-3,20.5Z"/><path class="cls-5" d="M68,137.6a25.89,25.89,0,0,1-.88,4.34,7.75,7.75,0,0,1-1.71,3.35A7.66,7.66,0,0,1,63,146.84a32.79,32.79,0,0,1-12.37,2.9l0-.08-.13.05-.1-.26a34.81,34.81,0,0,0,0-10.54c0-.22-.06-.43-.1-.65l.37-.19a30.08,30.08,0,0,1,17.47-.8C68,137.38,68,137.49,68,137.6Z"/><path class="cls-3" d="M35.14,88.73l8.14,14.46a1.56,1.56,0,0,1,.27,1.25c-.32.77-1.47.48-2.18,0A41.45,41.45,0,0,1,29.61,93.54a12.53,12.53,0,0,1-2.21-4.33l5.12,1.56a6.63,6.63,0,0,1,.41-4.17c.13-.31.38-.65.71-.61s.42.27.54.5A11.37,11.37,0,0,1,35.14,88.73Z"/><path class="cls-5" d="M29,139.55l.11.66a46.8,46.8,0,0,1-15.26.13l-.19-.38A7.84,7.84,0,0,1,15,134.77c1.46-1.88,4-2.57,6.37-2.64a7.58,7.58,0,0,1,3.21.47C27.16,133.72,28.22,136.8,29,139.55Z"/><path class="cls-6" d="M70.47,90.75a129,129,0,0,0-12,8.8c-.39.32.16.88.55.56a125.57,125.57,0,0,1,11.83-8.68C71.28,91.16,70.9,90.48,70.47,90.75Z"/><path class="cls-6" d="M73,93.27c-1.63,1-3.29,2-5,2.89-.84.46-1.69.91-2.54,1.35-.38.2-2.44.94-2.48,1.41,0-.5-.74-.5-.78,0l0,.16a.42.42,0,0,0,.3.38c1.21.5,3.31-1.23,4.32-1.77,2.23-1.17,4.41-2.43,6.56-3.74C73.81,93.68,73.42,93,73,93.27Z"/><path class="cls-6" d="M39.89,100.19,36,92.31c-.22-.45-.9-.06-.68.39l3.86,7.88C39.44,101,40.11,100.64,39.89,100.19Z"/><path class="cls-6" d="M37.81,100c-1.47-2.07-3-4.08-4.66-6-.33-.38-.88.17-.56.55,1.59,1.89,3.11,3.84,4.54,5.86C37.42,100.77,38.1,100.39,37.81,100Z"/><path class="cls-6" d="M90.65,87.25c-.21-.46-.88-.07-.68.39a16.41,16.41,0,0,1,.84,11.83c-1,3.27-3.2,6-4.9,8.91a16.62,16.62,0,0,0-2.49,8.36c0,3.69.91,7.35.59,11.05s-2.07,7-3.67,10.2a32.91,32.91,0,0,0-3.18,9.13c-.64,3.72-.89,7.82-3.5,10.79-3.12,3.56-7.14,2.14-11,.91s-7.84-.85-11.86-1.18a23,23,0,0,1-11.66-4.38,116.08,116.08,0,0,1,11.62-3.51.39.39,0,0,0-.21-.75c-6.43,1.85-13.29,3.08-18.51,7.58-.38.33.17.88.55.56a22.75,22.75,0,0,1,5.76-3.54.44.44,0,0,0,.12.15,23.73,23.73,0,0,0,10.22,4.41c4.11.69,8.36,0,12.43,1,3.35.86,6.83,2.82,10.31,1.36,2.48-1,4.11-3.48,5-5.93,1.41-3.86,1.26-8.09,2.69-12,1.32-3.58,3.43-6.82,4.69-10.43s1.08-7.22.69-11c-.45-4.4-.3-8.24,1.94-12.18,2-3.48,4.56-6.63,5.48-10.63A17.36,17.36,0,0,0,90.65,87.25Z"/><path class="cls-6" d="M49.15,136.72c-2.78-1.73-6.06-2.58-9.23-1.4-1.76.66-3.4,1.59-5.17,2.25-2,.75-4.13,1.33-6.21,1.92a.39.39,0,0,0,.2.75A58.1,58.1,0,0,0,38,137.05a11.28,11.28,0,0,1,5.14-1.52,11,11,0,0,1,5.63,1.87C49.19,137.67,49.58,137,49.15,136.72Z"/><path class="cls-6" d="M28.26,103.69Q24,116.82,20.44,130.15a.39.39,0,0,0,.76.2Q24.76,117,29,103.88C29.17,103.41,28.41,103.21,28.26,103.69Z"/><path class="cls-6" d="M23.33,102A113.41,113.41,0,0,1,22,119c-.07.49.68.7.76.2A116.14,116.14,0,0,0,24.12,102,.4.4,0,0,0,23.33,102Z"/><path class="cls-6" d="M27.39,167.34a40.85,40.85,0,0,1-5.87,15.21c-.27.43.41.82.68.4a41.38,41.38,0,0,0,5.94-15.41C28.23,167.05,27.47,166.84,27.39,167.34Z"/><path class="cls-6" d="M61.12,185.66a31.61,31.61,0,0,1-10.38-15.35c-.15-.48-.9-.28-.75.2A32.15,32.15,0,0,0,60.57,186.2C61,186.52,61.52,186,61.12,185.66Z"/><path class="cls-7" d="M83.29,363.91l10.46-.65c.32,3.44.65,6.9,1,10.35a1.55,1.55,0,0,1-.22,1.24,1.53,1.53,0,0,1-1,.36L77.21,377c-7.82.87-15.73,1.73-23.55.8-.84-.1-1.91-.48-1.87-1.32a1.12,1.12,0,0,1,.22-.58,2.79,2.79,0,0,1,.43-.48c4.64-4.46,10.33-7.61,16-10.61v0Z"/><path class="cls-8" d="M93.75,363.26l-10.46.65C81.14,352.2,79,340.3,80.18,328.45c.68-7.1,2.52-14.35.69-21.25-1.43-5.43-5-10.14-6.27-15.63-1.68-7.46,1.16-15.85-2.44-22.59-1.44-2.68-3.81-4.91-4.55-7.86-1.49-6,4.38-11.52,4.57-17.72.16-5.18-3.69-9.82-3.66-15,0-4.69,3.21-8.84,3.68-13.51.72-7.21-5-13.22-10.47-18.09,6.61-2,13.15-4.35,19.62-6.69a13.26,13.26,0,0,0,3.42-1.62c2.78,18.42,2.4,37.16,1.8,55.77-.24,7.66-.71,15.88-5.37,22,3.77,2.85,5.57,7.67,6,12.36s-.21,9.42-.4,14.14c-.33,7.79.62,15.57,1.58,23.31q2.9,23.61,5.81,47.2Z"/><path class="cls-9" d="M68.48,364.8c-.58-22.17-7.22-43.66-12.31-65.26-1.23-5.23-2.38-10.5-3.36-15.8l-.3-1.69q-1.57-8.94-2.47-18c-1.91-18.79-1.73-37.73-1.31-56.61a31.16,31.16,0,0,1-21.37-4.21l-.74-.47v-.26c11.93.28,23.63-2.22,35.11-5.74,5.47,4.87,11.19,10.88,10.47,18.09-.47,4.67-3.66,8.82-3.68,13.51,0,5.19,3.82,9.83,3.66,15-.19,6.2-6.06,11.71-4.57,17.72.74,2.95,3.11,5.18,4.55,7.86,3.6,6.74.76,15.13,2.44,22.59,1.23,5.49,4.84,10.2,6.27,15.63,1.83,6.9,0,14.15-.69,21.25-1.15,11.85,1,23.75,3.11,35.46l-14.81.92Z"/><path class="cls-8" d="M51.15,362.05c-4.7,1.33-9.74.7-14.59.06-1.7-.23-3.5-.49-4.78-1.63l.41-.11c.19-20.94-3.31-41.74-4.19-62.67-.27-6.37-.3-12.76-.32-19.14,0-4.52,0-9-.05-13.56l-.27-61.74a31.16,31.16,0,0,0,21.37,4.21c-.42,18.88-.6,37.82,1.31,56.61q.9,9,2.47,18l.3,1.69c-1.05,2.81-3.34,5.49-2.64,8.39a23.19,23.19,0,0,0,1.74,3.63,14.23,14.23,0,0,1,.75,5.82q-.37,30.18-1.32,60.37l0,0A.73.73,0,0,1,51.15,362.05Z"/><path class="cls-7" d="M51.55,373a1.55,1.55,0,0,1-.3,1.22,1.64,1.64,0,0,1-1,.31l-16.35.84c-7.87.41-15.82.81-23.57-.57-.83-.15-1.87-.59-1.79-1.42a1.71,1.71,0,0,1,.71-1c5.2-4.45,16.31-9.05,22.55-11.89,1.28,1.14,3.08,1.4,4.78,1.63,4.85.64,9.89,1.27,14.59-.06C51.29,365.7,51.42,369.37,51.55,373Z"/><path class="cls-8" d="M61.44,263.25a55.76,55.76,0,0,0-6.7,12.65c-.18.47.58.66.76.19a54.79,54.79,0,0,1,6.61-12.44C62.4,263.23,61.72,262.85,61.44,263.25Z"/><path class="cls-8" d="M67.07,269.43a27.11,27.11,0,0,0-9.29,10.36c-.22.45.45.84.68.39a26.28,26.28,0,0,1,9-10.07C67.87,269.83,67.49,269.15,67.07,269.43Z"/><path class="cls-10" d="M66.9,73.54l0,.15c-.86,3.68-2.78,7-4.69,10.25L55,96.29c-1,1.78-2.07,3.55-3.25,5.22a2.81,2.81,0,0,1-1.59,1.32c-1,.2-1.88-.68-2.51-1.5a35.72,35.72,0,0,1-6.89-16.22l.11-.45a9.76,9.76,0,0,0,1.92.61,21.29,21.29,0,0,0,4.28.5,12,12,0,0,0,5.16-1,13.65,13.65,0,0,0,4.31-3.6,22.4,22.4,0,0,0,5.33-9.74,3.62,3.62,0,0,0,.38.61,4.48,4.48,0,0,0,3.42,1.53A6,6,0,0,0,66.9,73.54Z"/><path class="cls-5" d="M35.16,78.24a24.88,24.88,0,0,1-1.89-4.85,46.19,46.19,0,0,1-1.4-10.93,106.06,106.06,0,0,1,.47-13.69l.16,0a12.3,12.3,0,0,1,9.88-6.73,10.41,10.41,0,0,1,10,6c1.63,3.88.64,8.79,3.33,12,.89,1.06,2.09,1.82,3,2.81A8.42,8.42,0,0,1,61,67c.31,1.47.25,3.12.92,4.43a22.4,22.4,0,0,1-5.33,9.74,13.65,13.65,0,0,1-4.31,3.6,12,12,0,0,1-5.16,1,21.29,21.29,0,0,1-4.28-.5,9.76,9.76,0,0,1-1.92-.61,4.92,4.92,0,0,1-.61-.3A8.8,8.8,0,0,1,38.54,83,18.83,18.83,0,0,1,35.16,78.24Z"/><path class="cls-1" d="M47.06,77.1a12.24,12.24,0,0,0-8,.93c-.45.22-.06.9.39.68a11.31,11.31,0,0,1,7.42-.85C47.35,78,47.55,77.21,47.06,77.1Z"/><path class="cls-1" d="M50.73,58.25c-.52-1.34-2.19-2.83-3.2-1a7.24,7.24,0,0,0-.34,1.11,3.76,3.76,0,0,0,0,.75c.08,1.22.54,2.43,1.94,2.56C51.08,61.82,51.25,59.6,50.73,58.25Z"/><path class="cls-11" d="M51.14,53.85c-.89-.06-2,.87-2.64,1.35A16.16,16.16,0,0,0,47,56.45l-.32.23c-.48.36-1.69,1-1.38,1.82.19.51.75.49,1.19.36a15.94,15.94,0,0,0,3.56-2.08c.67-.44,1.69-1,1.88-1.84A.85.85,0,0,0,51.14,53.85Z"/><path class="cls-1" d="M35.61,62.33c1.33-.45,1.49-1.73,1.29-2.94a3.64,3.64,0,0,0-.15-.73,7.77,7.77,0,0,0-.59-1c-1.4-1.51-2.68.32-2.88,1.75S33.77,63,35.61,62.33Z"/><path class="cls-11" d="M31.87,55.22c.85-.26,2.12.39,2.87.7a13.45,13.45,0,0,1,1.74.87c.13.05.25.09.37.15.55.24,1.88.6,1.76,1.45-.07.55-.62.65-1.07.62a15.49,15.49,0,0,1-3.95-1.19c-.75-.27-1.87-.56-2.25-1.35A.85.85,0,0,1,31.87,55.22Z"/><path class="cls-1" d="M41.17,71.68c-1.21,0-2.85.06-3.18-1.36-.24-1,.29-2.75.43-3.76.32-2.19.76-4.35,1.28-6.49a.39.39,0,0,0-.75-.2,49.5,49.5,0,0,0-1.73,10.24c-.06,2.24,2.07,2.41,4,2.35A.39.39,0,0,0,41.17,71.68Z"/><path class="cls-7" d="M61.9,71.47c-.67-1.31-.61-3-.92-4.43a8.42,8.42,0,0,0-2.18-4.13c-.95-1-2.15-1.75-3-2.81-2.69-3.23-1.7-8.14-3.33-12a10.41,10.41,0,0,0-10-6,12.3,12.3,0,0,0-9.88,6.73l-.16,0a106.06,106.06,0,0,0-.47,13.69,46.19,46.19,0,0,0,1.4,10.93,24.88,24.88,0,0,0,1.89,4.85,6,6,0,0,0-1.6,2.33A5.25,5.25,0,0,1,25.78,79c-.58-1.2-.66-2.6-1.25-3.79-.84-1.7-2.61-2.83-3.31-4.59-1.22-3,1.13-6.21,1.57-9.44.56-4.21-2.2-8.59-.74-12.59,1-2.73,3.69-4.42,5.51-6.69,2.4-3,3.69-7.31,7.31-8.53,2.32-.78,4.91,0,7.27-.61S46.45,29.84,48.9,29c3.33-1.09,7.05.72,9.29,3.43,1.45,1.75,2.63,4,4.79,4.68,1.8.57,3.9-.1,5.55.81,1.92,1.07,2.32,3.78,4.07,5.1,1.4,1,3.37,1,4.81,2,1.82,1.24,2.3,3.74,2.12,5.94s-.86,4.37-.68,6.57S80,61.74,80.18,63.9a9.07,9.07,0,0,1-4.78,8.6,11.78,11.78,0,0,0-5.72.87l-.21-.5a14.29,14.29,0,0,1-2.57.67,6,6,0,0,1-1.2.07,4.48,4.48,0,0,1-3.42-1.53A3.62,3.62,0,0,1,61.9,71.47Z"/><path class="cls-12" d="M75.14,71.17c-.91-1-1.07-2.86-2.72-3a4.13,4.13,0,0,0-2.11.64C67.65,70,66.12,68,66,65.44c-.14-1.95.29-4.06-.71-5.87-.86-1.56-2.29-1.93-4-2.15-2-.26-3.48-.77-4-2.92a15.3,15.3,0,0,1,.08-4.43,12.15,12.15,0,0,0-.74-5.76,11.88,11.88,0,0,0-8.87-7.15c-.49-.09-.69.67-.19.75A11,11,0,0,1,56.7,48c.16,3.31-1.65,8.8,2.88,10,1,.25,2,.18,2.93.46,2,.56,2.55,2.28,2.64,4.12s-.29,4,.76,5.75A3.39,3.39,0,0,0,69.1,70c1.39-.18,2.9-2,4.32-.3.48.57.64,1.39,1.16,2C74.91,72.1,75.47,71.55,75.14,71.17Z"/><path class="cls-12" d="M72.35,57.32c-2.94-1.61-1.69-4.07-2.52-6.61A3.69,3.69,0,0,0,67,48.34c-2.52-.7-4.51-.72-5.42-3.62-.53-1.69-.59-3.5-1.37-5.13a9.27,9.27,0,0,0-8.72-5.12c-.51,0-.51.8,0,.78,4.49-.19,7.86,2.89,8.78,7.14.58,2.7,1,5.31,4,6.18,2.06.6,4.6.45,4.92,3.26.15,1.41-.12,2.87.58,4.18,1.76,3.3,10.22,2.88,8.9,7.57-.14.48.62.68.76.19C80.75,59.29,75,58.77,72.35,57.32Z"/><path class="cls-12" d="M33.49,42.63a12.52,12.52,0,0,0-6.12,14c.52,1.88,1.54,3.59,1.95,5.49a11.19,11.19,0,0,1-.59,6.52c-.59,1.54-1.41,3.13-1,4.83.36,1.41,3.34,4.65.89,5.54-.47.17-.27.92.2.75,2.21-.8,1.46-3.24.54-4.76-1.61-2.67-.38-4.51.46-7.12a11.39,11.39,0,0,0,.43-5c-.54-3.89-3-6.95-2.41-11a11.83,11.83,0,0,1,6-8.61C34.32,43.07,33.93,42.39,33.49,42.63Z"/><path class="cls-12" d="M28.63,43.87a10.08,10.08,0,0,0-4.42,9.41c.29,2.64,1.56,5.2,1.13,7.9s-2.23,4.72-4,6.54c-.35.36.2.91.55.55,2.66-2.7,4.76-5.77,4.22-9.73-.32-2.38-1.34-4.66-1.15-7.1A9.33,9.33,0,0,1,29,44.55C29.42,44.26,29,43.58,28.63,43.87Z"/></g></g></svg>