<svg xmlns="http://www.w3.org/2000/svg" viewBox="0 0 135.29 232.13"><defs><style>.cls-1{fill:#ff821e;}.cls-2{fill:#eff0ea;}.cls-3{fill:#009391;}.cls-4{fill:#19afa7;}.cls-5{fill:#e29764;}.cls-6{fill:#02827b;}.cls-7{fill:#f95e36;}.cls-8{fill:#e8aa2e;}.cls-9{fill:#e04527;}.cls-10{fill:#ce7f49;}.cls-11{fill:#fff;}.cls-12{fill:#492f21;}.cls-13{fill:#036d65;}</style></defs><title>02</title><g id="Layer_2" data-name="Layer 2"><g id="OBJECTS"><path class="cls-1" d="M85.94,199.11a1.09,1.09,0,0,1,.09-.23c.07-.22.16-.46.25-.68a.67.67,0,0,1,.16-.14,2,2,0,0,1,2-.07,2.86,2.86,0,0,1,.42.24,10.71,10.71,0,0,1,1.79,1.83,10,10,0,0,0,6,3.14,47.11,47.11,0,0,1,3.09-7.41c.65-1.26,1.66-2.66,3.07-2.59a1.88,1.88,0,0,1,.75.18,3.12,3.12,0,0,1,1.47,1.68,11.25,11.25,0,0,1,.53,3c.61,5.31,3.64,10.14,7.64,13.68a42.47,42.47,0,0,0,13.92,7.73c2.57.93,5.24,1.75,7.36,3.47a1.91,1.91,0,0,1,.74.95,1.93,1.93,0,0,1-.17,1.15,8.86,8.86,0,0,1-1.44,2.4,6.79,6.79,0,0,1-1.38.4c-11.32,2.13-22.66-2.69-33.16-7.4-3.4-1.52-6.81-3.06-10.23-4.58-2.07-.93-4.22-1.93-5.6-3.74l-.34,0A57.08,57.08,0,0,1,85.94,199.11Z"/><path class="cls-2" d="M132.26,227.84a6.79,6.79,0,0,0,1.38-.4,12.87,12.87,0,0,1-8.78,4.26c-4.26.35-8.49-.91-12.54-2.29a205,205,0,0,1-26.4-11.1,5.82,5.82,0,0,1-2.77-2.22,5.72,5.72,0,0,1-.32-3.1c0-.3.07-.61.1-.9l.34,0c1.38,1.81,3.53,2.81,5.6,3.74,3.42,1.52,6.83,3.06,10.23,4.58C109.6,225.15,120.94,230,132.26,227.84Z"/><path class="cls-3" d="M101.47,91.46a4.06,4.06,0,0,1,.69-.16l.63-.7a21.55,21.55,0,0,0,7,4.16,15.48,15.48,0,0,0,7.84.87l2.08.18c2,11.69-1.36,23.5-3.49,35.15-.64,3.47-1.17,7-.46,10.51a20.08,20.08,0,0,1,.76,4.05c0,2.7-1.73,5-3.56,7-6.29,1.8-12.88,2.88-19.35,2l0-.35c-1.34-.12-2.7-.32-4-.32q.15-12,.31-24c-3.5,3.77-4.14,9.27-4.88,14.36S83,154.9,78.76,157.85c-1.47,1-3.21,1.66-4.7,2.68-4.69,3.24-6.11,9.81-10.74,13.12-1.52,1.08-3.6,1.73-5.21.8a6,6,0,0,1-2-2.27c-2.4-4.09-4.19-8.53-6.81-12.49-3-4.53-7-8.3-10.45-12.51a63.39,63.39,0,0,1-10.07-17.25q.92,11.76,2.93,23.38c-7.41-2.2-15.94-1.56-22.23,2.65l-.17-.25q-3.7-16.17-7.42-32.33C.68,118-.57,112.45.28,107s4.3-10.9,9.62-12.4l0-.47a9.38,9.38,0,0,0,4.19,1A11.43,11.43,0,0,0,19,93.88l.27.52a195.73,195.73,0,0,1,17.53,23.1c1.46,2.26,2.88,4.54,4.3,6.83Q48.71,136.66,56.35,149l0,0a3,3,0,0,0,1,1.16,3,3,0,0,0,1.46.28,82.69,82.69,0,0,0,16.55-1.22,2.52,2.52,0,0,0,1.61-.71,3.49,3.49,0,0,0,.42-1.89c.25-2.81,2.68-4.86,4-7.33s1.68-5.47,2.08-8.32A85.73,85.73,0,0,1,97,95.55C98.17,93.84,99.56,92.05,101.47,91.46Z"/><path class="cls-4" d="M108.61,167.08a79.1,79.1,0,0,1-9.48.48,27.79,27.79,0,0,1-9-1.23l-.31-.11A5,5,0,0,1,87.72,165a2.13,2.13,0,0,1-.44-2.26c.42-.84,1.51-1.2,1.91-2.06s-.17-2.12-.88-2.94-1.56-1.67-1.6-2.76a.84.84,0,0,1,.12-.52,1,1,0,0,1,.66-.36,10.12,10.12,0,0,1,2.13-.2c1.34,0,2.7.2,4,.32l0,.35c6.47.92,13.06-.16,19.35-2l.74-.21a1.86,1.86,0,0,1,1.16-.09,1.39,1.39,0,0,1,.66.63c1.61,2.78-2.39,6.6-.58,9.26.51.76,1.49,1.47,1.18,2.33a1.56,1.56,0,0,1-.64.73,11.46,11.46,0,0,1-5.45,1.7C109.57,167,109.09,167,108.61,167.08Z"/><path class="cls-5" d="M108.61,167.08q-2.52,13.15-5,26.3a1.88,1.88,0,0,0-.75-.18c-1.41-.07-2.42,1.33-3.07,2.59a47.11,47.11,0,0,0-3.09,7.41,10,10,0,0,1-6-3.14,10.71,10.71,0,0,0-1.79-1.83,2.86,2.86,0,0,0-.42-.24q.53-15.84,1.65-31.66a27.79,27.79,0,0,0,9,1.23A79.1,79.1,0,0,0,108.61,167.08Z"/><path class="cls-6" d="M86.28,198.2a1.3,1.3,0,0,0-.32.68,96.3,96.3,0,0,0-30.54.73c-3.07.57-6.27,1.29-9.29.68a8.73,8.73,0,0,0-2.81-4.35l-.8.69-.33-.37c-2.52-4.39-3.68-9.41-4.8-14.35l-3.09-13.5a4.28,4.28,0,0,0,1.72-.5c1.25-.69,1.8-2.69.66-3.53-.51-.38-1.28-.46-1.6-1-.58-1,.91-2.23.51-3.33s-2.36-1.14-2.41-2.3c0-.93,1.29-1.4,1.4-2.31s-.86-1.45-1.69-1.74l-1.15-.37q-2-11.61-2.93-23.38a63.39,63.39,0,0,0,10.07,17.25c3.45,4.21,7.46,8,10.45,12.51,2.62,4,4.41,8.4,6.81,12.49a6,6,0,0,0,2,2.27c1.61.93,3.69.28,5.21-.8,4.63-3.31,6.05-9.88,10.74-13.12,1.49-1,3.23-1.65,4.7-2.68,4.21-2.95,5.54-8.51,6.29-13.6s1.38-10.59,4.88-14.36q-.17,12-.31,24a10.12,10.12,0,0,0-2.13.2,1,1,0,0,0-.66.36.84.84,0,0,0-.12.52c0,1.09.9,1.93,1.6,2.76s1.35,2,.88,2.94-1.49,1.22-1.91,2.06a2.13,2.13,0,0,0,.44,2.26,5,5,0,0,0,2.06,1.26l.31.11Q89,182.14,88.44,198a2,2,0,0,0-2,.07A.67.67,0,0,0,86.28,198.2Z"/><path class="cls-2" d="M50.39,213.56a4.38,4.38,0,0,1,.1,2.65,5.36,5.36,0,0,1-2.32,2.44c-12.1,8.11-26.24,14.12-40.78,13.43a4.84,4.84,0,0,1-3-.86,4.58,4.58,0,0,1-1.1-1.69c-.15-.33-.3-.66-.43-1a34.25,34.25,0,0,0,17-.45,80.35,80.35,0,0,0,16-6.53Q43.26,217.8,50.39,213.56Z"/><path class="cls-1" d="M25.44,200.92l-.72-.39A3,3,0,0,1,26,197.91a3.13,3.13,0,0,1,.42-.29,9.34,9.34,0,0,1,3.42-1,3.55,3.55,0,0,1,2.19.14c1.76.91.94,3.67,1.84,5.43a1.28,1.28,0,0,0,.71.68,1.54,1.54,0,0,0,1.3-.54q3.33-2.85,6.64-5.74l.8-.69a8.73,8.73,0,0,1,2.81,4.35c.15.41.28.83.41,1.25q1.82,5.61,3.62,11.23c.08.26.16.52.23.79q-7.12,4.23-14.51,8a80.35,80.35,0,0,1-16,6.53,34.25,34.25,0,0,1-17,.45c-.39-.93-.74-1.87-1.06-2.84a2.42,2.42,0,0,1-.15-1.27c.16-.68.84-1.07,1.45-1.41A57.27,57.27,0,0,0,25.44,200.92Z"/><path class="cls-5" d="M42.19,196.26l.33.37q-3.32,2.9-6.64,5.74a1.54,1.54,0,0,1-1.3.54,1.28,1.28,0,0,1-.71-.68c-.9-1.76-.08-4.52-1.84-5.43a3.55,3.55,0,0,0-2.19-.14,9.34,9.34,0,0,0-3.42,1,3.13,3.13,0,0,0-.42.29,230.08,230.08,0,0,0-10.27-28.2l-.1-.47a53.54,53.54,0,0,1,16.22-.94,13.41,13.41,0,0,0,2.45.11l3.09,13.5C38.51,186.85,39.67,191.87,42.19,196.26Z"/><path class="cls-4" d="M7.13,158l-.1-.11A17.16,17.16,0,0,1,9.51,156c6.29-4.21,14.82-4.85,22.23-2.65l1.15.37c.83.29,1.81.86,1.69,1.74s-1.44,1.38-1.4,2.31c0,1.16,2,1.22,2.41,2.3s-1.09,2.33-.51,3.33c.32.56,1.09.64,1.6,1,1.14.84.59,2.84-.66,3.53a4.28,4.28,0,0,1-1.72.5,13.41,13.41,0,0,1-2.45-.11,53.54,53.54,0,0,0-16.22.94c-.61.13-1.22.27-1.82.42a9.42,9.42,0,0,1-3.36.46,2.88,2.88,0,0,1-2.54-2,8,8,0,0,1,0-1.7c0-1.63-1-3.09-1.42-4.67A4,4,0,0,1,7.13,158Z"/><path class="cls-7" d="M83.15,4.44c-.14.75-1.33,1.31-1.85,1.69L78.92,7.85a10.51,10.51,0,0,0-2.08,1.5c-1.36,1.78.88,1.65,1.48,2.71.41.73.19,1.23-.4,1.78-2.64,2.44-6,4.42-8.85,6.57-.34.24-.71-.23-.53-.54.62-1.19,1.25-2.37,1.88-3.56.42-.79,1.69-2.44,1.38-3.24-.41-1.08-2.54-.73-2.79-2-.11-.6.85-1.43,1.14-1.81l2.3-3,4.61-6A.4.4,0,0,1,77.5.06a.31.31,0,0,1,.18.05A28.4,28.4,0,0,1,82.3,3C82.75,3.37,83.29,3.76,83.15,4.44Z"/><path class="cls-7" d="M47.64,17.17,48,22.33a.39.39,0,0,1-.73.2c-.45-.75-.89-1.52-1.29-2.3a11.18,11.18,0,0,0-1.09-2.4c-1.51-1.43-2.41.69-3.85.61-.94-.05-1.46-.87-2-1.55-1.21-1.5-2.4-3-3.6-4.53A.36.36,0,0,1,35.3,12a.35.35,0,0,1,.1-.35c.66-.66,1.31-1.33,2-2,.32-.31.79-1,1.21-1.18a.75.75,0,0,1,.89.08c.69.46,1.1,2.39,1.43,3.15.24.52.41,1.52,1,1.71.33.11,1.89-.92,2.25-1.1,1.18-.54,2.61-1.59,3.18,0C47.81,13.72,47.56,15.73,47.64,17.17Z"/><path class="cls-7" d="M62.91,9.65c.67,1.13-1,4.07-1.45,5.18Q60.23,18,58.73,21c-.18.37-.71.18-.73-.19l-.42-8c-1.64.28-3.39,1-3.55-1.09a47,47,0,0,1,.6-10.32.34.34,0,0,1,.06-.15A.33.33,0,0,1,55,1l6.29-1a.4.4,0,0,1,.49.47c-.26,1.35-.51,2.69-.76,4-.2,1-.82,2.61-.68,3.65C60.52,9.93,62.17,8.39,62.91,9.65Z"/><path class="cls-8" d="M121,87.82a11.45,11.45,0,0,1-1.41-2.71c-.17-.47-.92-.27-.75.21a11.55,11.55,0,0,0,1.48,2.88C120.62,88.61,121.3,88.23,121,87.82Z"/><path class="cls-7" d="M89,50.91q1-.66,2-1.29a117.79,117.79,0,0,0,21.59,16.56,35.34,35.34,0,0,1,5.54,3.73c3.6,3.19,5.51,7.85,6.75,12.49a13.33,13.33,0,0,1,.48,6.76,9.19,9.19,0,0,1-6.38,6.18,11.27,11.27,0,0,1-1.28.29,15.48,15.48,0,0,1-7.84-.87,21.55,21.55,0,0,1-7-4.16c-.22-.19-.44-.4-.65-.6-5.32-5.11-7.58-12.39-10.79-19.11a42.46,42.46,0,0,0-3.53-6.24,30.56,30.56,0,0,0-7.45-7.47l1.33-1Q85.27,53.42,89,50.91Z"/><path class="cls-9" d="M102.14,90c.21.2.43.41.65.6l-.63.7a4.06,4.06,0,0,0-.69.16C96.59,91,92,94.17,88.76,97.85a37.14,37.14,0,0,0-6.65,10.74c-1.45,3.59-2.36,7.48-4.53,10.69-5,7.5-15.14,9.26-24.11,10.36a53.37,53.37,0,0,0,15.24,3.56L63.8,139a3.26,3.26,0,0,0-.89,1.58c-.3,2.45,4.23,2.48,5.09,4.8A21.38,21.38,0,0,1,56.38,149l0,0q-7.62-12.33-15.26-24.65c-1.42-2.29-2.84-4.57-4.3-6.83A195.73,195.73,0,0,0,19.26,94.4L19,93.88a23.55,23.55,0,0,0,5.23-3.71A53,53,0,0,0,38,70.28l2.06.09a8.8,8.8,0,0,0,3.07-.23c.68-.22,1.31-.59,2-.83a4.9,4.9,0,0,1,3.61.19,27.39,27.39,0,0,0,4.19,6.4l-.47.4c2.22,4.18,4.65,8.57,8.73,11a2,2,0,0,0,1,.36,2.23,2.23,0,0,0,1.52-.92,37.61,37.61,0,0,0,6.52-10A22.82,22.82,0,0,0,72,73.88c.63-1.15,1.21-2.34,1.72-3.54l.14.06a6.14,6.14,0,0,1,6.34-1.35,11,11,0,0,0,3.17,1.16,11.48,11.48,0,0,0,2.52-.44,9.91,9.91,0,0,1,5.43,1.12C94.56,77.61,96.82,84.89,102.14,90Z"/><path class="cls-7" d="M88.76,97.85C92,94.17,96.59,91,101.47,91.46c-1.91.59-3.3,2.38-4.43,4.09A85.73,85.73,0,0,0,83.58,131c-.4,2.85-.68,5.8-2.08,8.32s-3.8,4.52-4,7.33a3.49,3.49,0,0,1-.42,1.89,2.52,2.52,0,0,1-1.61.71,82.69,82.69,0,0,1-16.55,1.22,3,3,0,0,1-1.46-.28,3,3,0,0,1-1-1.16A21.38,21.38,0,0,0,68,145.41c-.86-2.32-5.39-2.35-5.09-4.8A3.26,3.26,0,0,1,63.8,139l4.91-5.83a53.37,53.37,0,0,1-15.24-3.56c9-1.1,19.06-2.86,24.11-10.36,2.17-3.21,3.08-7.1,4.53-10.69A37.14,37.14,0,0,1,88.76,97.85Z"/><path class="cls-10" d="M79.87,54.44a86.65,86.65,0,0,1-8.69-9.57,5.8,5.8,0,0,1-1.26-2.27A4.54,4.54,0,0,1,70,40.73c.1-.43.23-.86.35-1.28.65-2.24,1-4.75,0-6.85a11.38,11.38,0,0,0-1.76-2.44c-1.24-1.41-2.48-2.81-3.71-4.23a.2.2,0,0,1,.08,0,12.08,12.08,0,0,1,16.69,6.83,19.92,19.92,0,0,1,.87,7c0,1.76-.12,3.61.71,5.16A9.62,9.62,0,0,0,85,47l4,3.92q-3.73,2.51-7.3,5.24C81.08,55.59,80.47,55,79.87,54.44Z"/><path class="cls-10" d="M65.91,80.25a10.73,10.73,0,0,0,4.3-3.53,37.61,37.61,0,0,1-6.52,10,2.23,2.23,0,0,1-1.52.92,2,2,0,0,1-1-.36c-4.08-2.39-6.51-6.78-8.73-11l.47-.4L53,76a15.58,15.58,0,0,0,5.84,4.19A9.75,9.75,0,0,0,65.91,80.25Z"/><path class="cls-10" d="M45.38,50a40.7,40.7,0,0,1-3.81,4h0a29,29,0,0,0-8.72-4.55c-.27-.1-.56-.17-.83-.26,1.86-1.49,3.76-3.08,4.67-5.27a12,12,0,0,0,.78-3.6c.19-2.16.17-4.34.54-6.47a9.87,9.87,0,0,1,2.81-5.73,11.43,11.43,0,0,1,2.48-1.63,12.49,12.49,0,0,1,5.34-1.66,5.47,5.47,0,0,1,4.84,2.37l-.07.05a9,9,0,0,0-4,5.51,23.19,23.19,0,0,0-.63,7,16.07,16.07,0,0,1-.56,6.07,12.8,12.8,0,0,1-2.1,3.42C45.84,49.47,45.61,49.74,45.38,50Z"/><path class="cls-7" d="M32,49.17c.27.09.56.16.83.26A29,29,0,0,1,41.56,54h0c0,.26,0,.51,0,.77A52.88,52.88,0,0,1,38,70.28,53,53,0,0,1,24.22,90.17,23.55,23.55,0,0,1,19,93.88a11.43,11.43,0,0,1-4.88,1.25,9.38,9.38,0,0,1-4.19-1A10,10,0,0,1,4.79,88,13.09,13.09,0,0,1,5.41,80a33.54,33.54,0,0,1,4.07-7.12A151.36,151.36,0,0,1,30.57,48.64,13.71,13.71,0,0,0,32,49.17Z"/><path class="cls-8" d="M39.08,80.84c0-.5-.82-.5-.78,0a19.47,19.47,0,0,1-.08,3.66c-.06.5.72.49.78,0A18.54,18.54,0,0,0,39.08,80.84Z"/><path class="cls-8" d="M48.6,82.25c0-.5-.83-.5-.79,0,.1,1.13.19,2.25.29,3.38,0,.5.82.5.78,0C48.79,84.5,48.69,83.37,48.6,82.25Z"/><path class="cls-8" d="M42.66,88.72c0,1-.11,2.07-.16,3.1,0,.5.76.5.78,0,.06-1,.11-2.06.16-3.09C43.47,88.22,42.68,88.22,42.66,88.72Z"/><path class="cls-8" d="M34.58,95.64c-.1-.49-.86-.29-.76.2a17.49,17.49,0,0,1,.34,2.59c0,.5.81.5.78,0A18.68,18.68,0,0,0,34.58,95.64Z"/><path class="cls-8" d="M51.58,95.08a.39.39,0,0,0-.75.2,22.16,22.16,0,0,1,.52,2.55c.07.49.82.29.75-.21A20.07,20.07,0,0,0,51.58,95.08Z"/><path class="cls-8" d="M44.58,102c-.11-.49-.86-.29-.76.2a28.16,28.16,0,0,1,.49,3c0,.5.83.5.78,0A29,29,0,0,0,44.58,102Z"/><path class="cls-8" d="M62.44,94.64c-.18-.46-.94-.26-.76.21a14.18,14.18,0,0,1,.75,2.56c.09.5.85.29.75-.2A14.5,14.5,0,0,0,62.44,94.64Z"/><path class="cls-8" d="M73.74,95.94c-.2-1-.41-2-.61-3-.11-.5-.86-.29-.76.2.21,1,.41,2,.61,3C73.09,96.64,73.84,96.43,73.74,95.94Z"/><path class="cls-8" d="M87.46,90.58c-.11-.49-.86-.29-.75.2a10.86,10.86,0,0,1,.21,3c0,.5.75.49.79,0A11.48,11.48,0,0,0,87.46,90.58Z"/><path class="cls-8" d="M80.23,84.54a.39.39,0,0,0-.75.21A19,19,0,0,1,80.06,88c0,.5.82.5.78,0A19.55,19.55,0,0,0,80.23,84.54Z"/><path class="cls-8" d="M74.29,78.59c0-.5-.8-.5-.79,0L73.62,82a.4.4,0,0,0,.79,0Z"/><path class="cls-8" d="M86.57,78.49c-.26-1.17-.52-2.35-.79-3.53-.11-.49-.87-.29-.76.21.27,1.17.53,2.35.8,3.52C85.93,79.19,86.68,79,86.57,78.49Z"/><path class="cls-8" d="M94.76,89.2c-.22-.46-.9-.06-.68.39a8,8,0,0,1,.85,3.63.39.39,0,0,0,.78,0A9,9,0,0,0,94.76,89.2Z"/><path class="cls-8" d="M80.46,100.83c-.18-.47-.93-.27-.76.2a7.55,7.55,0,0,1,.46,2.74.39.39,0,0,0,.78,0A8.17,8.17,0,0,0,80.46,100.83Z"/><path class="cls-8" d="M88.06,104.48v2.67a.39.39,0,0,0,.78,0v-2.68A.39.39,0,0,0,88.06,104.48Z"/><path class="cls-8" d="M71.23,106.45a10.15,10.15,0,0,1-.27-1.18.41.41,0,0,0,.17-.43.51.51,0,0,0-.38-.37.4.4,0,0,0-.44.18c-.26.41,0,1,0,1.4.12.68.25,1.36.37,2,.1.49.85.29.76-.21S71.31,106.93,71.23,106.45Z"/><path class="cls-8" d="M58.45,107.57c0-.5-.8-.5-.78,0a24.11,24.11,0,0,1-.15,3.8c-.06.5.73.49.78,0A23,23,0,0,0,58.45,107.57Z"/><path class="cls-8" d="M41.63,112.63c-.06-.5-.85-.5-.79,0a16.28,16.28,0,0,1,.08,3c0,.5.75.5.78,0A16.25,16.25,0,0,0,41.63,112.63Z"/><path class="cls-8" d="M52.07,120.7a19.27,19.27,0,0,1-.51-3.71.39.39,0,0,0-.78,0,20.66,20.66,0,0,0,.53,3.91C51.43,121.4,52.19,121.19,52.07,120.7Z"/><path class="cls-8" d="M66.2,116.43a.39.39,0,0,0-.78,0,21.42,21.42,0,0,0,.38,3.48c.09.5.85.29.75-.2A21.35,21.35,0,0,1,66.2,116.43Z"/><path class="cls-8" d="M80.68,113.38c-.12-.5-.87-.29-.76.2a11.22,11.22,0,0,1,.25,3.42c0,.5.74.49.78,0A12.16,12.16,0,0,0,80.68,113.38Z"/><path class="cls-8" d="M49.6,130.84c-.2-.46-.88-.07-.68.39a6.06,6.06,0,0,1,.52,2.09c0,.5.82.5.78,0A7.07,7.07,0,0,0,49.6,130.84Z"/><path class="cls-8" d="M60.5,129.36c-.06-.49-.84-.49-.78,0,.18,1.41.35,2.83.53,4.24.06.49.84.5.78,0C60.85,132.19,60.68,130.78,60.5,129.36Z"/><path class="cls-8" d="M73.83,126.59a.39.39,0,0,0-.76.2,11.33,11.33,0,0,1,.35,3.57c0,.5.76.5.79,0A12.28,12.28,0,0,0,73.83,126.59Z"/><path class="cls-8" d="M60.59,140.91c0-.5-.8-.5-.78,0l.17,4.37a.39.39,0,0,0,.78,0C60.71,143.82,60.65,142.36,60.59,140.91Z"/><path class="cls-8" d="M70.2,137.53c0-.5-.8-.5-.79,0a34.38,34.38,0,0,1-.09,3.8c0,.5.74.5.78,0A34.44,34.44,0,0,0,70.2,137.53Z"/><path class="cls-8" d="M80.18,131.49v4.22a.39.39,0,0,0,.78,0v-4.22A.39.39,0,0,0,80.18,131.49Z"/><path class="cls-8" d="M96.51,72.21,95.1,69c-.21-.46-.88-.07-.68.39l1.41,3.23C96,73.06,96.71,72.67,96.51,72.21Z"/><path class="cls-8" d="M105.38,68.42l-2.1-3c-.29-.41-1,0-.68.38l2.1,3C105,69.22,105.67,68.83,105.38,68.42Z"/><path class="cls-8" d="M105.56,78.92a19.73,19.73,0,0,0-1.64-3.44c-.26-.43-.94,0-.68.39a18.33,18.33,0,0,1,1.56,3.25C105,79.59,105.73,79.39,105.56,78.92Z"/><path class="cls-8" d="M106,88.11l-1.27-2.26a.39.39,0,0,0-.67.39l1.26,2.25A.39.39,0,0,0,106,88.11Z"/><path class="cls-8" d="M115.17,84a13.41,13.41,0,0,1-1.61-2.6c-.21-.46-.89-.07-.68.38a14.14,14.14,0,0,0,1.73,2.77C114.92,84.89,115.48,84.34,115.17,84Z"/><path class="cls-8" d="M119.16,76.45c-.8-.93-1.61-1.86-2.41-2.8-.33-.38-.89.17-.56.55.8.94,1.61,1.87,2.41,2.8C118.93,77.38,119.49,76.83,119.16,76.45Z"/><path class="cls-8" d="M115.06,91.92a25.92,25.92,0,0,1-1.2-2.42c-.19-.47-.87-.07-.68.38a26.1,26.1,0,0,0,1.2,2.43A.39.39,0,0,0,115.06,91.92Z"/><path class="cls-8" d="M96.79,64.26l-3.21-4.14c-.31-.4-.86.15-.56.55l3.21,4.14C96.54,65.2,97.09,64.65,96.79,64.26Z"/><path class="cls-8" d="M10.59,78.18a26.22,26.22,0,0,1-2.92,5.09c-.3.4.38.79.67.39a25.72,25.72,0,0,0,2.92-5.09C11.46,78.11,10.78,77.72,10.59,78.18Z"/><path class="cls-8" d="M17.79,82.29l-3.34,4.25c-.31.39.24.95.55.55,1.12-1.41,2.23-2.83,3.34-4.24C18.65,82.45,18.1,81.89,17.79,82.29Z"/><path class="cls-8" d="M19,73.74a24.88,24.88,0,0,1-3.07,4.15c-.34.37.21.93.55.56a26.54,26.54,0,0,0,3.2-4.32A.39.39,0,0,0,19,73.74Z"/><path class="cls-8" d="M27.29,81.36a15.6,15.6,0,0,1-3.11,3.93c-.37.34.18.9.55.56A16.66,16.66,0,0,0,28,81.76.39.39,0,0,0,27.29,81.36Z"/><path class="cls-8" d="M27.91,72.49c-.76,1.21-1.51,2.42-2.26,3.63-.27.42.41.81.67.39.76-1.21,1.51-2.42,2.26-3.63C28.85,72.45,28.17,72.06,27.91,72.49Z"/><path class="cls-8" d="M22.85,62.37a20.16,20.16,0,0,1-3,3.44c-.38.34.18.89.54.55a20.41,20.41,0,0,0,3.09-3.6C23.81,62.34,23.13,62,22.85,62.37Z"/><path class="cls-8" d="M28.56,62.79a15.22,15.22,0,0,1-1.89,3.05c-.31.39.23,1,.55.56a15.79,15.79,0,0,0,2-3.22C29.45,62.73,28.77,62.33,28.56,62.79Z"/><path class="cls-8" d="M37,61.33l-3,5.45c-.24.44.44.83.68.39l3-5.45A.39.39,0,0,0,37,61.33Z"/><path class="cls-8" d="M31.71,53.08a10.11,10.11,0,0,1-2.48,3.07c-.39.32.16.88.55.56a10.75,10.75,0,0,0,2.6-3.24C32.62,53,31.94,52.63,31.71,53.08Z"/><path class="cls-8" d="M36.36,55a13.46,13.46,0,0,1-2.24,2.69c-.37.34.18.9.55.56A14.72,14.72,0,0,0,37,55.38C37.31,55,36.63,54.56,36.36,55Z"/><path class="cls-5" d="M76.66,59a38.77,38.77,0,0,1-2.91,11.38c-.51,1.2-1.09,2.39-1.72,3.54a22.82,22.82,0,0,1-1.82,2.84,10.73,10.73,0,0,1-4.3,3.53,9.75,9.75,0,0,1-7.09,0A15.58,15.58,0,0,1,53,76l-.09-.11a27.39,27.39,0,0,1-4.19-6.4,70.42,70.42,0,0,1-3.9-10.76,7.82,7.82,0,0,1-3.13-4h-.14c0-.26,0-.51,0-.77h0a40.7,40.7,0,0,0,3.81-4,7,7,0,0,0,5.77.2,14.5,14.5,0,0,0,5.27-4A4.88,4.88,0,0,1,57.9,45a3.84,3.84,0,0,1,2-.18c2.2.23,4.51,1,6.53.09,1.71-.74,2.74-2.45,3.54-4.16a4.54,4.54,0,0,0-.07,1.87,5.8,5.8,0,0,0,1.26,2.27,86.65,86.65,0,0,0,8.69,9.57A7.28,7.28,0,0,1,76.68,59Z"/><path class="cls-11" d="M66.5,74.23a27.57,27.57,0,0,0-4.23.43c-1,.21-2,.61-3.07.73a3,3,0,0,1-3-1.06c-1.57-2.42,1.54-4.92,3.64-5.62A7.85,7.85,0,0,1,67.54,70C69.53,71.62,69.24,74.06,66.5,74.23Z"/><path class="cls-12" d="M54.39,59.14A13,13,0,0,0,51,57.41c-.47-.15-.67.6-.19.76a11.87,11.87,0,0,1,2.73,1.32c-1,.68-2.07,1.23-3.07,1.83a.39.39,0,0,0,.39.68,38,38,0,0,0,3.65-2.24C54.69,59.59,54.57,59.27,54.39,59.14Z"/><path class="cls-12" d="M72,58.5l-1.83,0h-.76a3.79,3.79,0,0,1-.82,0,6.33,6.33,0,0,1,.86-1.09c.35-.42.72-.82,1.09-1.21s-.2-.93-.55-.56q-.84.89-1.62,1.83c-.29.35-.8.82-.59,1.33s.88.46,1.33.47l2.9,0A.39.39,0,0,0,72,58.5Z"/><path class="cls-12" d="M63.65,63.9c-.91.13-2.66.57-3.23-.54a8,8,0,0,1-.22-2.43c-.1-1.48-.16-3-.18-4.45a.4.4,0,0,0-.79,0c0,1.38.08,2.77.17,4.15a11.37,11.37,0,0,0,.33,3.14c.59,1.6,2.82,1.06,4.12.88C64.35,64.59,64.15,63.83,63.65,63.9Z"/><path class="cls-3" d="M71.19,51c-.16-.66-.85-.66-1.36-.42l0,0a.34.34,0,0,0-.32.1l-.29.29a7.67,7.67,0,0,0-1.05,1.08q-.67.73-1.32,1.5c-.39.48-1,1.22-.59,1.88,1,1.48,3.45-1.67,4-2.31S71.38,51.77,71.19,51Z"/><path class="cls-3" d="M49.24,54.55c-.2-.64.39-1,1-1h0a.34.34,0,0,1,.33-.07l.39.1a7.5,7.5,0,0,1,1.46.39c.64.18,1.28.38,1.9.6s1.5.53,1.48,1.31c-.06,1.77-3.82.34-4.59,0S49.48,55.31,49.24,54.55Z"/><path class="cls-3" d="M64.9,25.93c1.23,1.42,2.47,2.82,3.71,4.23a11.38,11.38,0,0,1,1.76,2.44c1,2.1.62,4.61,0,6.85-.12.42-.25.85-.35,1.28-.8,1.71-1.83,3.42-3.54,4.16-2,.88-4.33.14-6.53-.09a3.84,3.84,0,0,0-2,.18,4.88,4.88,0,0,0-1.48,1.27,14.5,14.5,0,0,1-5.27,4,7,7,0,0,1-5.77-.2c.23-.28.46-.55.68-.83a12.8,12.8,0,0,0,2.1-3.42,16.07,16.07,0,0,0,.56-6.07,23.19,23.19,0,0,1,.63-7,9,9,0,0,1,4-5.51l.07-.05.14.17a11.56,11.56,0,0,1,8.75-2.52A4.54,4.54,0,0,1,65,25.89.2.2,0,0,0,64.9,25.93Z"/><path class="cls-13" d="M59.88,24.81a6.53,6.53,0,0,0-5.37,3.49,6.41,6.41,0,0,0-.57,3.88c.24,1.47,1.56,3.18.4,4.51-1,1.16-3.2,1.55-3.18,3.45,0,1.31,1.09,2.34,1.19,3.68a5.4,5.4,0,0,1-2.12,4.67c-.39.32.16.87.55.56a6.17,6.17,0,0,0,2.35-5.23,9.51,9.51,0,0,0-.57-2.17c-.42-1.38-.58-2.3.61-3.17.33-.24.69-.44,1-.68a2.83,2.83,0,0,0,1.36-3.37c-.53-2.13-1.48-3.49-.36-5.74a5.78,5.78,0,0,1,4.7-3.1C60.38,25.54,60.38,24.76,59.88,24.81Z"/><path class="cls-13" d="M63,41.88c-.72-.57-1.51-1-1.36-2.24a5.24,5.24,0,0,1,.67-1.44A5.31,5.31,0,0,0,63,36.43c.17-1.49-1-2.34-1.87-3.32-2.59-2.8.87-6.21,3.33-7.65a.39.39,0,0,0-.39-.68,10.22,10.22,0,0,0-4.36,4.58C58.92,31.3,59.57,32.59,61,34a5.28,5.28,0,0,1,1.13,1.32c.5,1.12-.12,1.88-.56,2.72a3.59,3.59,0,0,0-.64,2.43c.37,1.73,2.91,2.09,3.07,3.82.05.5.83.5.79,0C64.63,43.11,63.89,42.57,63,41.88Z"/></g></g></svg>