<svg xmlns="http://www.w3.org/2000/svg" viewBox="0 0 129.92 199.76"><defs><style>.cls-1{fill:#aff2d6;}.cls-2{fill:#e8aa2e;}.cls-3{fill:#ffca55;}.cls-4{fill:#fff;}.cls-5{fill:#f95e36;}.cls-6{fill:#e3e5d3;}.cls-7{fill:#eff0ea;}.cls-8{fill:#e29764;}.cls-9{fill:#ce7f49;}.cls-10{fill:#8c8e7d;}.cls-11{fill:#ff821e;}.cls-12{fill:#ccceae;}.cls-13{fill:#492f21;}.cls-14{fill:#07756f;}.cls-15{fill:#009391;}.cls-16{fill:#e04527;}.cls-17{fill:#046861;}</style></defs><title>03</title><g id="Layer_2" data-name="Layer 2"><g id="OBJECTS"><path class="cls-1" d="M95.72,26.55c-4.15,1.68-9.57.59-13.87.18a105,105,0,0,0-14.73-.39,100.33,100.33,0,0,0-15.92,2c-4.27.9-9.3,3.25-13.71,2.27-3.08-.69-4.27-3.32-2.46-6A7.55,7.55,0,0,1,38.34,22a8.31,8.31,0,0,1,2.18-.6c.83-.12,2.49.33,2.92-.68.18-.41-.13-1.53-.13-2a11.62,11.62,0,0,1,0-1.44A7.61,7.61,0,0,1,43.89,15a5.38,5.38,0,0,1,2.85-2.93c3.49-1.55,8-1.1,11.72-.26C58.73,8,58.18,3.9,62.1,1.63l.22-.12A7.56,7.56,0,0,1,66,.06,7.93,7.93,0,0,1,74.5,6.43c3.2-1.89,6.74-3.3,10.18-1s3.64,5.77,3.08,9.39c3.72-.56,7.95,0,10.2,3.39C99.86,21.06,99.06,25.21,95.72,26.55Z"/><path class="cls-1" d="M50.24,31.63l-1,4.19c-.12.49.64.69.75.2l1-4.19C51.11,31.34,50.35,31.14,50.24,31.63Z"/><path class="cls-1" d="M59.15,30.52c-.25,1.16-.5,2.32-.76,3.47-.1.49.65.69.76.2l.76-3.47C60,30.23,59.26,30,59.15,30.52Z"/><path class="cls-1" d="M70.66,30.05A17.5,17.5,0,0,0,70,33.41c-.05.5.73.49.78,0a17.67,17.67,0,0,1,.62-3.16C71.56,29.77,70.8,29.57,70.66,30.05Z"/><path class="cls-1" d="M84.53,30.64l-.79,2.93a.39.39,0,0,0,.76.2c.26-1,.53-2,.79-2.93A.39.39,0,0,0,84.53,30.64Z"/><path class="cls-1" d="M77.09,37.54c-.27,1-.54,2-.8,2.93a.39.39,0,0,0,.75.19l.81-2.92A.39.39,0,0,0,77.09,37.54Z"/><path class="cls-1" d="M64.12,37.35a17.59,17.59,0,0,1-.86,3.7c-.16.47.59.67.76.19a18.57,18.57,0,0,0,.88-3.89C65,36.85,64.18,36.86,64.12,37.35Z"/><path class="cls-1" d="M51.36,40.64c-.18.74-.37,1.48-.55,2.22a.39.39,0,0,0,.75.19c.19-.74.38-1.48.56-2.21A.39.39,0,0,0,51.36,40.64Z"/><path class="cls-2" d="M126.86,174.92l.91,0A27.73,27.73,0,0,1,97.14,199.6c-7.53-.83-14.35-4.67-20.93-8.44a9.09,9.09,0,0,0-1.45-5.54l.36-.24A18.57,18.57,0,0,0,89,190.52c2.69-.18,5.33-.94,8-1,3.29-.1,6.57.83,9.86.62,7.21-.43,13.48-7,13.65-14.21A10.5,10.5,0,0,0,126.86,174.92Z"/><path class="cls-3" d="M64.26,167.27a55.32,55.32,0,0,1,4.35-4.82,16.61,16.61,0,0,1,7.51-4.68,17.37,17.37,0,0,1,8.42.58,54.5,54.5,0,0,1,12.17,4.87c.83.46,1.64.93,2.44,1.43,6.87,4.27,13.21,10.26,21.23,11.25h.16c-.17,7.19-6.44,13.78-13.65,14.21-3.29.21-6.57-.72-9.86-.62-2.69.08-5.33.84-8,1a18.57,18.57,0,0,1-13.89-5.14l-.36.24a8.73,8.73,0,0,0-3.62-3.19,10.1,10.1,0,0,0-3.83-.87,19.26,19.26,0,0,0-5.59.64c-2.89.71-5.74,1.74-8.7,2a1,1,0,0,0,.1-.68c-.09-.4-.48-.64-.84-.85s-.81-.47-1.21-.72C56.29,178,60,172.4,64.26,167.27Z"/><path class="cls-4" d="M74.76,185.62a9.09,9.09,0,0,1,1.45,5.54,7,7,0,0,1-.12.92,5.22,5.22,0,0,1-1.35,2.76,6.59,6.59,0,0,1-2.46,1.36c-.87.32-1.76.6-2.65.85a19.7,19.7,0,0,1-8.68-3,7,7,0,0,1-2.48-2.38c-1.25-2.25-.14-5.22,1.8-6.9s4.54-2.39,7-3v-.19a10.1,10.1,0,0,1,3.83.87A8.73,8.73,0,0,1,74.76,185.62Z"/><path class="cls-5" d="M67.31,181.56v.19c-2.49.65-5.08,1.35-7,3s-3.05,4.65-1.8,6.9A7,7,0,0,0,61,194.07a19.7,19.7,0,0,0,8.68,3,37.78,37.78,0,0,1-24.6-1.5c.11-.13.2-.26.3-.39q3.78-5.17,7.41-10.46a2.87,2.87,0,0,0,.28-.48c3-.28,5.81-1.31,8.7-2A19.26,19.26,0,0,1,67.31,181.56Z"/><path class="cls-2" d="M64.26,167.27C60,172.4,56.29,178,51.07,182a54.09,54.09,0,0,1-15.53-14.38l0-.08,5.77-2.13a2.94,2.94,0,0,0,.75,1,4.52,4.52,0,0,0,2.25.83A62.87,62.87,0,0,0,64.26,167.27Z"/><path class="cls-3" d="M45,195.55a3.07,3.07,0,0,1-1.26,1.06,3.88,3.88,0,0,1-2.82-.42,97.44,97.44,0,0,1-10.07-4.76c-.57-.31-1.13-.64-1.69-1-2.11-1.32-4.11-2.82-6.28-4.06s-4.78-2.31-7.2-3.42a50.13,50.13,0,0,1-5.45-2.81,28.28,28.28,0,0,1-4.92-3.7c-.42-.4-.83-.83-1.21-1.26-3.1-3.53-4.93-8.43-3.79-13a8.67,8.67,0,0,1,2.79-4.65L5.7,160l.24.33a1.67,1.67,0,0,0-.36.65,3.27,3.27,0,0,0,.52,2.32A22.6,22.6,0,0,0,9,167.92a8.14,8.14,0,0,0,4.51,2.82,5,5,0,0,0,4.88-1.67l.14-.13a7.13,7.13,0,0,0,4.15,2.45,10.26,10.26,0,0,0,4.84-.93l8-3,0,.08A54.09,54.09,0,0,0,51.07,182c.4.25.8.49,1.21.72s.75.45.84.85a1,1,0,0,1-.1.68,2.87,2.87,0,0,1-.28.48q-3.63,5.3-7.41,10.46C45.23,195.29,45.14,195.42,45,195.55Z"/><path class="cls-5" d="M13.06,190.85a2.65,2.65,0,0,1-1.43-.95,9.46,9.46,0,0,1-1.4-9.7l0,0A50.13,50.13,0,0,0,15.71,183c2.42,1.11,4.89,2.1,7.2,3.42s4.17,2.74,6.28,4.06c.56.35,1.12.68,1.69,1a68.45,68.45,0,0,1-14.79.82,27.29,27.29,0,0,1-3.21-.33Z"/><path class="cls-4" d="M13.06,190.85l-.18,1.07c-2.82-.47-5.52-1.5-7.16-3.74-2.24-3.06-1.75-7.26-1-11l.63-.76a28.28,28.28,0,0,0,4.92,3.7l0,0a9.46,9.46,0,0,0,1.4,9.7A2.65,2.65,0,0,0,13.06,190.85Z"/><path class="cls-2" d="M118.42,179.38c-6.89.67-13.25-2-19.35-4.87-5.42-2.57-11.57-6.47-17.77-6.3-10.46.29-16.47,11.7-26.74,12.67-.5.05-.5.83,0,.78,10.3-1,16.37-12.38,26.74-12.67,3.79-.1,7.47,1.57,10.84,3.1,3,1.35,5.92,2.85,8.92,4.21,5.49,2.48,11.25,4.45,17.36,3.86C118.92,180.11,118.92,179.33,118.42,179.38Z"/><path class="cls-6" d="M118.8,126.45a99.83,99.83,0,0,1,6.38,25.21,17.11,17.11,0,0,0,.94,4.6c1.12,2.68,3.79,5.27,2.7,8-.23.58-.65,1.14-.56,1.76a3.24,3.24,0,0,0,.86,1.42c1.55,2.06.69,5.28-1.33,6.89a6.84,6.84,0,0,1-.93.62,10.5,10.5,0,0,1-6.32,1h-.16c-8-1-14.36-7-21.23-11.25-.8-.5-1.61-1-2.44-1.43l.21-.38c2-.08,4.32-.32,5.46-2a6.33,6.33,0,0,0,.81-2.06A187.31,187.31,0,0,0,108.6,128c.72-7.93.92-16.09-1.42-23.7a152.92,152.92,0,0,1,10.28,19C117.93,124.29,118.38,125.37,118.8,126.45Z"/><path class="cls-7" d="M41.28,165.38a8.84,8.84,0,0,1-.37-1,19.18,19.18,0,0,1-.77-5.63,3.39,3.39,0,0,1,.1-.84,1.36,1.36,0,0,1,.11-.28,1.45,1.45,0,0,1,.53-.54,4.42,4.42,0,0,1,1.24-.47l19.4-4.85L75,148.37a12.9,12.9,0,0,0,3.91-1.46,4.31,4.31,0,0,0,2.13-3.41c0-.52-.11-1.11.23-1.51.85-1,2.83.76,3.77-.19a1.69,1.69,0,0,0,.39-.92c1.1-5.71.67-11.6.18-17.39s-1-11.66-.11-17.41,3.45-11.46,8.06-15l0-.33a8.09,8.09,0,0,1,4.06.72c2,1,3.36,3,4.59,4.92,1.67,2.62,3.35,5.24,5,7.88,2.34,7.61,2.14,15.77,1.42,23.7a187.31,187.31,0,0,1-5.41,30.84,6.33,6.33,0,0,1-.81,2.06c-1.14,1.65-3.45,1.89-5.46,2l-.21.38a54.5,54.5,0,0,0-12.17-4.87,17.37,17.37,0,0,0-8.42-.58,16.61,16.61,0,0,0-7.51,4.68,55.32,55.32,0,0,0-4.35,4.82,62.87,62.87,0,0,1-20,0,4.52,4.52,0,0,1-2.25-.83A2.94,2.94,0,0,1,41.28,165.38Z"/><path class="cls-7" d="M65.07,103.83a13.69,13.69,0,0,0,1.3,3.36,6.59,6.59,0,0,0,3.56,3.1,6.22,6.22,0,0,0,4.59-.48,11.62,11.62,0,0,0,3.61-3,20.4,20.4,0,0,0,4.55-15.65l.37.14c3.34,1.06,7-.39,10.5-.54l0,.33c-4.61,3.54-7.16,9.26-8.06,15s-.38,11.61.11,17.41.92,11.68-.18,17.39a1.69,1.69,0,0,1-.39.92c-.94.95-2.92-.84-3.77.19-.34.4-.23,1-.23,1.51a4.31,4.31,0,0,1-2.13,3.41A12.9,12.9,0,0,1,75,148.37l-13.5,3.38q-3-3.1-5.77-6.41a10.43,10.43,0,0,1-2-3A11.1,11.1,0,0,1,53.4,138c0-.44,0-.88.07-1.33q.38-8.7.78-17.39h-.16a24.82,24.82,0,0,0-.3-5,2.57,2.57,0,0,0-.95-1.86c-1.07-.64-2.33.43-3.08,1.43a47.55,47.55,0,0,0-5.29,9c-.52,1.17-1,2.58-.31,3.67s2.11,1.39,2.58,2.52a3.13,3.13,0,0,1-.47,2.66c-1.54,2.67-4,4.69-5.86,7.13s-3.21,5.74-2,8.58a3.35,3.35,0,0,1,.42,1.38,2.47,2.47,0,0,1-.73,1.42q-1.72,2.12-3.46,4.22l-.17.32-7.18-3.86a37.41,37.41,0,0,0,4.21-8.47c4-10.11,8-20.26,10.31-30.87a18.49,18.49,0,0,1,2.13-6.23c1.81-2.76,5.08-4.22,7.19-6.75l.18-.36a9.59,9.59,0,0,0,7.18.47,15.3,15.3,0,0,0,4.75-2.56l.53.69q.39,2.93,1,5.8C64.87,103,65,103.43,65.07,103.83Z"/><path class="cls-8" d="M82.68,91.15a20.4,20.4,0,0,1-4.55,15.65,11.62,11.62,0,0,1-3.61,3,6.22,6.22,0,0,1-4.59.48,6.59,6.59,0,0,1-3.56-3.1,13.69,13.69,0,0,1-1.3-3.36A26.18,26.18,0,0,0,76.41,84.54h.07C77.9,87.29,79.82,90.07,82.68,91.15Z"/><path class="cls-9" d="M76.42,84.33c0,.07,0,.14,0,.21a26.18,26.18,0,0,1-11.34,19.29c-.1-.4-.2-.79-.29-1.19q-.65-2.88-1-5.8l-.53-.69a21.66,21.66,0,0,0,2.13-1.81,33.57,33.57,0,0,0,7.81-11.22,5.91,5.91,0,0,0,2.58,1.15C76,84.3,76.2,84.32,76.42,84.33Z"/><path class="cls-6" d="M54.25,119.31q-.41,8.68-.78,17.39-6.54,9.81-13.07,19.64l.48.73a1.45,1.45,0,0,0-.53.54,1.36,1.36,0,0,0-.11.28l-5.79-3.11.17-.32q1.74-2.1,3.46-4.22a2.47,2.47,0,0,0,.73-1.42,3.35,3.35,0,0,0-.42-1.38c-1.19-2.84.14-6.14,2-8.58s4.32-4.46,5.86-7.13a3.13,3.13,0,0,0,.47-2.66c-.47-1.13-1.94-1.49-2.58-2.52s-.21-2.5.31-3.67a47.55,47.55,0,0,1,5.29-9c.75-1,2-2.07,3.08-1.43a2.57,2.57,0,0,1,.95,1.86,24.82,24.82,0,0,1,.3,5Z"/><path class="cls-8" d="M27.27,150.92l7.18,3.86,5.79,3.11a3.39,3.39,0,0,0-.1.84,19.18,19.18,0,0,0,.77,5.63,8.84,8.84,0,0,0,.37,1l-5.77,2.13-8,3a10.26,10.26,0,0,1-4.84.93,7.13,7.13,0,0,1-4.15-2.45,14.78,14.78,0,0,1-1.33-1.65c-1.26-1.76-2.35-3.85-2.05-6a5.72,5.72,0,0,1,.39-1.34,7,7,0,0,1,2.06-2.6,7.4,7.4,0,0,1,.72-.53,20.17,20.17,0,0,1,5.21-2.15,8.06,8.06,0,0,1-1.14-1.06c-.87-1-1.43-2.16-.79-3.19a2.42,2.42,0,0,1,2.33-.94,6.85,6.85,0,0,1,2.47.95Z"/><path class="cls-9" d="M22.36,153.62a8.06,8.06,0,0,0,1.14,1.06,20.17,20.17,0,0,0-5.21,2.15,7.4,7.4,0,0,0-.72.53c-1.18-.86-2.34-1.73-3.51-2.59-.35-.26-.71-.52-1.08-.77l.15-.22a32.49,32.49,0,0,1,9.08,0Z"/><path class="cls-9" d="M18.5,168.94l-.14.13a5,5,0,0,1-4.88,1.67A8.14,8.14,0,0,1,9,167.92a22.6,22.6,0,0,1-2.87-4.58A3.27,3.27,0,0,1,5.58,161a1.67,1.67,0,0,1,.36-.65,3.75,3.75,0,0,1,2.06-1,13.51,13.51,0,0,1,7.05.38l.46.24a5.72,5.72,0,0,0-.39,1.34c-.3,2.14.79,4.23,2.05,6A14.78,14.78,0,0,0,18.5,168.94Z"/><path class="cls-10" d="M3.13,157.56l-1.79-1.73a2.88,2.88,0,0,1-1.08-1.72l7.08-1.2a9.1,9.1,0,0,1,2.65-.19A7,7,0,0,1,13,154c.37.25.73.51,1.08.77,1.17.86,2.33,1.73,3.51,2.59a7,7,0,0,0-2.06,2.6l-.46-.24a13.51,13.51,0,0,0-7-.38,3.75,3.75,0,0,0-2.06,1L5.7,160Z"/><path class="cls-11" d="M86.44,91.93a42.55,42.55,0,0,1-3,11.94c-1.5,3.8-3.91,7.78-8.09,9-3.81,1.11-7.78-.89-10.19-3.81-2.58-3.13-3.55-7.24-4.14-11.16-.07-.49-.83-.29-.75.21.64,4.23,1.75,8.69,4.72,11.94,2.49,2.74,6.28,4.52,10,3.72,4-.86,6.72-4.24,8.37-7.74a42,42,0,0,0,3.86-14.1C87.27,91.43,86.48,91.43,86.44,91.93Z"/><path class="cls-11" d="M46.07,166.69a19.09,19.09,0,0,1-1.29-9.77c.06-.5-.73-.49-.79,0a20,20,0,0,0,1.4,10.16C45.58,167.55,46.25,167.15,46.07,166.69Z"/><path class="cls-11" d="M50.45,166.5a22.91,22.91,0,0,1-1.87-10c0-.5-.76-.49-.78,0a23.79,23.79,0,0,0,2,10.39C50,167.35,50.65,167,50.45,166.5Z"/><path class="cls-12" d="M88.14,140.07a11.48,11.48,0,0,1-1.52-6.24c.14-1.86.62-3.67.65-5.54,0-3.92-1-7.67-.57-11.64a64.44,64.44,0,0,1,3-12.29c.15-.48-.61-.68-.76-.2-2.08,6.65-3.76,13.07-2.8,20.07a23.64,23.64,0,0,1,.13,6.56,18.86,18.86,0,0,0-.38,5.24,11.64,11.64,0,0,0,1,3.26c.27.6.57,1.17.87,1.75s2.18,3.14,0,3.2c-.56,0-1.42-1-2-1.18a1.58,1.58,0,0,0-1.31.17c-.85.57-.83,2.07-1.26,2.89-.8,1.53-2,1.36-3.55,1-.84-.18-1.65-.45-2.49-.59a10.48,10.48,0,0,0-7,1.06c-2.55,1.43-4.69,4-7.86,3.83-.5,0-.5.75,0,.78,2.73.17,4.73-1.56,6.85-3,3.38-2.33,6.42-2.17,10.28-1.29,2.33.53,4,.18,4.94-2.08,1.75-4.33,2.09.34,4.55-.69C91,144.29,88.67,141.12,88.14,140.07Z"/><path class="cls-8" d="M71.17,80.71a7.13,7.13,0,0,0,2,2.41,33.57,33.57,0,0,1-7.81,11.22,21.66,21.66,0,0,1-2.13,1.81,15.3,15.3,0,0,1-4.75,2.56,9.59,9.59,0,0,1-7.18-.47,6,6,0,0,1-.73-.42c-1.92-1.3-3.13-3.42-4.2-5.48C42.28,84.51,38.86,76,39,67.19a16.28,16.28,0,0,1,6.35-5.46l.08.19a13.49,13.49,0,0,0,4.22,5.92,31.31,31.31,0,0,0,6.22,3.91C60.34,74,65.21,76,70.16,75.5A10.45,10.45,0,0,0,71.17,80.71Z"/><path class="cls-13" d="M58,75.32a.39.39,0,0,0-.75.2,4.33,4.33,0,0,1,.1,1.72,3,3,0,0,1-.17.73,1,1,0,0,1-1.36.44,3.3,3.3,0,0,1-1.78-2c-.16-.48-.91-.28-.76.2.43,1.35,1.73,2.88,3.29,2.81C58.4,79.29,58.34,76.52,58,75.32Z"/><path class="cls-13" d="M45.27,79.38c0,.73.13,2.79-1.1,2.65a3.38,3.38,0,0,1-2-1.5c-.29-.41-1,0-.68.39.62.9,1.94,2.16,3.16,1.94,1.41-.26,1.37-2.45,1.38-3.49A.39.39,0,0,0,45.27,79.38Z"/><path class="cls-13" d="M51.49,88.72c-.72.63-1.37.46-2-.51,0-.43.07-.85.09-1.27.05-.74.09-1.49.1-2.23a19.59,19.59,0,0,0-.38-4.18c-.1-.49-.85-.29-.75.21a20.36,20.36,0,0,1,.32,4.93c0,1-.49,2.55-.16,3.47.46,1.26,2.25.8,3.13.26C52.31,89.14,51.92,88.46,51.49,88.72Z"/><path class="cls-13" d="M57,91.87a6.77,6.77,0,0,0-5.15,1c-.4.3,0,1,.38.68a6,6,0,0,1,4.57-1C57.32,92.7,57.52,91.94,57,91.87Z"/><path class="cls-14" d="M58.39,71.87c-.34-.85-2.28-.27-2.89-.14a19.15,19.15,0,0,1-3.1.45c-.58,0-.91,0-1.22.48a.37.37,0,0,0,0,.39c.7,1,2,.67,3.06.59a8.59,8.59,0,0,0,2.43-.18C57.23,73.32,58.73,72.71,58.39,71.87Z"/><path class="cls-1" d="M62.06,78.59A3.05,3.05,0,0,0,60,78.31a.48.48,0,0,0-.18.07.4.4,0,0,0,0,.74c.57.2,2.44,1.9,2.9.76C62.93,79.38,62.45,78.84,62.06,78.59Z"/><path class="cls-1" d="M61.77,82.71a3.1,3.1,0,0,0-1.49-1.62.39.39,0,0,0-.51.57,5.84,5.84,0,0,1,.39,1.49,3.68,3.68,0,0,0,.15,1.09.82.82,0,0,0,1.31.29C62.15,84.09,62,83.27,61.77,82.71Z"/><path class="cls-1" d="M43.29,84.21h0c.06-.34-.48-.59-.75-.24a4.61,4.61,0,0,0-.85,2.32c0,.54.06,1.57.67,1.8C43.88,88.65,43.44,84.84,43.29,84.21Z"/><path class="cls-14" d="M45,75.19a.14.14,0,0,0,0-.06.39.39,0,0,0-.57-.44,24,24,0,0,1-4.17,1.53c-.54.17-1.61.68-1.18,1.43s2,.35,2.61.14A10.1,10.1,0,0,0,45,75.68.33.33,0,0,0,45,75.19Z"/><path class="cls-15" d="M82.68,91.15c-2.86-1.08-4.78-3.86-6.2-6.6h-.07c0-.07,0-.14,0-.21a4.75,4.75,0,0,0,4.19-2.24,4.84,4.84,0,0,0,3.62-2.15,10.65,10.65,0,0,0,2.2-7.62,9.27,9.27,0,0,0-3.75-6.44A13.61,13.61,0,0,0,81,61.36c-2.57-4.86-5.94-9.46-10.55-12.45a22.63,22.63,0,0,0-10.52-3.52L60,45c5.12-1,10.71-1,15.24,1.6,5.22,3,8.12,8.75,12.16,13.2a31.19,31.19,0,0,0,10.72,7.64c2.53,1.1,5.2,1.85,7.66,3.08a11.84,11.84,0,0,1,5.86,5.58c1.07,2.54.8,5.51,2,8,1.65,3.39,5.58,5,8.21,7.67a12.35,12.35,0,0,1,3.37,9.88,51.92,51.92,0,0,0-.78,5.25c0,3.54,2.24,6.75,2.42,10.27a9.23,9.23,0,0,1-8,9.29c-.42-1.08-.87-2.16-1.34-3.22a152.92,152.92,0,0,0-10.28-19c-1.63-2.64-3.31-5.26-5-7.88-1.23-1.92-2.55-3.92-4.59-4.92a8.09,8.09,0,0,0-4.06-.72c-3.46.15-7.16,1.6-10.5.54Z"/><path class="cls-7" d="M82.68,65.88a9.27,9.27,0,0,1,3.75,6.44,10.65,10.65,0,0,1-2.2,7.62,4.84,4.84,0,0,1-3.62,2.15,2.67,2.67,0,0,1-.72-.13,3.85,3.85,0,0,1-1.59-1.13c-1.88-2-2.5-5-2.67-7.75-.17-2.62,0-5.28-.41-7.85,0-.16-.06-.32-.09-.49l.1,0a18.6,18.6,0,0,0-2.41-5.41,26.32,26.32,0,0,0-5.53-6.79,17.5,17.5,0,0,0-25.19,3l-.18-.14a.66.66,0,0,0-.28,0,15.45,15.45,0,0,1,6-7.22,19.32,19.32,0,0,1,9.14-2.88,22.37,22.37,0,0,1,13.61,3.53c4.61,3,8,7.59,10.55,12.45A13.61,13.61,0,0,1,82.68,65.88Z"/><path class="cls-16" d="M76.42,84.33c-.22,0-.46,0-.68-.06a5.91,5.91,0,0,1-2.58-1.15,7.13,7.13,0,0,1-2-2.41,10.45,10.45,0,0,1-1-5.21c0-.21,0-.43,0-.65a16.55,16.55,0,0,1,3.29-8.62c.39-.51.93-1,1.58-1l.15,0c.42,2.57.24,5.23.41,7.85.17,2.78.79,5.7,2.67,7.75A3.85,3.85,0,0,0,79.89,82a2.67,2.67,0,0,0,.72.13A4.75,4.75,0,0,1,76.42,84.33Z"/><path class="cls-15" d="M42.1,55.57a17.5,17.5,0,0,1,25.19-3,26.32,26.32,0,0,1,5.53,6.79,18.6,18.6,0,0,1,2.41,5.41l-.1,0c0,.17.07.33.09.49l-.15,0c-.65-.07-1.19.47-1.58,1a16.55,16.55,0,0,0-3.29,8.62c0,.22,0,.44,0,.65-5,.45-9.82-1.5-14.27-3.75a31.31,31.31,0,0,1-6.22-3.91,13.49,13.49,0,0,1-4.22-5.92l-.08-.19A16.28,16.28,0,0,0,39,67.19c-.12.18-.25.36-.37.55a8.54,8.54,0,0,1-.35-6.08,21.63,21.63,0,0,1,2.75-5.58,1.62,1.62,0,0,1,.59-.6.66.66,0,0,1,.28,0Z"/><path class="cls-17" d="M123,113.21c-.79-1.09-2-1.67-3-2.55a6.21,6.21,0,0,1-1.9-5c0-2.59.65-5.34-.37-7.83-.9-2.16-2.94-3.35-4.89-4.45-2.9-1.64-5-3.35-5.73-6.76-1.14-5.28-.41-10.8-6-13.69-2.92-1.53-6.25-2.06-9.3-3.28a20.25,20.25,0,0,1-9.62-7.25c-.28-.42-1,0-.68.39,3,4.42,7.7,7,12.66,8.52,2.79.88,5.83,1.49,8.17,3.34,2.68,2.1,3.11,5.36,3.45,8.53a17.69,17.69,0,0,0,1.5,6.47A11,11,0,0,0,112,93.84c2.76,1.56,5.2,3.06,5.48,6.53.2,2.43-.45,4.88,0,7.29a5.88,5.88,0,0,0,1.39,3c1,1.15,2.54,1.78,3.46,3,1.3,1.77,1.11,4.23.37,6.19-.84,2.23-2.81,3-4.93,3.65-.48.15-.28.91.2.76,2.35-.74,4.54-1.65,5.47-4.11C124.28,118,124.44,115.17,123,113.21Z"/><path class="cls-17" d="M99.52,86.08c-4.16-2.93-9.86-2.3-12-7.86-.18-.47-.94-.27-.76.2,1.32,3.51,4,5.13,7.46,6.25,2.16.71,4.46,1.37,6,3.13a7.64,7.64,0,0,1,1.61,7.07.39.39,0,0,0,.76.2A8.38,8.38,0,0,0,99.52,86.08Z"/><path class="cls-17" d="M68.51,70.75a35.73,35.73,0,0,1-12.35-6.89c-3.41-2.93-7.32-7-8.07-11.55-.08-.49-.83-.29-.75.21.77,4.72,4.77,8.89,8.26,11.89a36.78,36.78,0,0,0,12.72,7.1C68.8,71.66,69,70.91,68.51,70.75Z"/><path class="cls-17" d="M71.44,68A33.63,33.63,0,0,1,52.71,49.42c-.19-.46-1-.26-.76.2A34.53,34.53,0,0,0,71.24,68.77C71.71,69,71.9,68.2,71.44,68Z"/></g></g></svg>