<svg xmlns="http://www.w3.org/2000/svg" viewBox="0 0 156.33 424.01"><defs><style>.cls-1{fill:#f95e36;}.cls-2{fill:#ffc388;}.cls-3{fill:#edaa6e;}.cls-4{fill:#ffca55;}.cls-5{fill:#009391;}.cls-6{fill:#02827b;}.cls-7{fill:#046861;}.cls-8{fill:#eff0ea;}.cls-9{fill:#e3e5d3;}.cls-10{fill:#492f21;}.cls-11{fill:#fff;}.cls-12{fill:#dd6b1d;}.cls-13{fill:#ff821e;}.cls-14{fill:#f27019;}</style></defs><title>04</title><g id="Layer_2" data-name="Layer 2"><g id="OBJECTS"><path class="cls-1" d="M132.37,422.49a6.68,6.68,0,0,1-3.49,1.17,48.55,48.55,0,0,1-9.49.21c-1.89-.14-3.89-.46-5.28-1.74-1.24-1.16-1.74-2.88-2.32-4.47A41.2,41.2,0,0,0,106,407.24c-1.88-2.53-4-4.93-5.46-7.73s-2.21-6.15-1.2-9.14a7.28,7.28,0,0,1,4.5-4.48,26.14,26.14,0,0,0,3.06,8.44c.32.63.64,1.26,1,1.89,2.7,5.07,6,10,11.25,12.24,1.3.56,3,.82,3.93-.3h0a22.84,22.84,0,0,0,8.75,10.14,4.29,4.29,0,0,1,1.21.9A2.5,2.5,0,0,1,132.37,422.49Z"/><path class="cls-2" d="M120.6,401.83a43.43,43.43,0,0,0,2.45,6.32h0c-.89,1.12-2.63.86-3.93.3-5.21-2.22-8.55-7.17-11.25-12.24a64.52,64.52,0,0,1-.76-10.5c0-8,1-16.11.93-24.13a87.51,87.51,0,0,0-2.64-20.44c-1.13-4.47-2.61-8.89-3-13.49-.61-8.1,2.34-16,4.41-23.83A113.46,113.46,0,0,0,110.13,265l.05-.39a95.89,95.89,0,0,0,17.11.54c-2.15,26.73-4.29,53.46-7.4,80.09C117.68,364.16,115,383.66,120.6,401.83Z"/><path class="cls-3" d="M108,361.59c.08,8-.93,16.13-.93,24.13a64.52,64.52,0,0,0,.76,10.5c-.33-.63-.65-1.26-1-1.89a26.14,26.14,0,0,1-3.06-8.44,2.34,2.34,0,0,1,.16-.79A418.74,418.74,0,0,0,95.08,332c-1-4-2-8.16-1.66-12.3.25-3.33,1.34-6.53,2-9.79,1.76-8.53-.08-25.63-1.61-35.83,1.68-3.68,3.27-7.52,4.81-11.61,1,.06,2,.1,3,.11-.07.2-.12.4-.18.6q4.34.93,8.74,1.47l-.05.39a113.46,113.46,0,0,1-3.31,38.79c-2.07,7.85-5,15.73-4.41,23.83.35,4.6,1.83,9,3,13.49A87.51,87.51,0,0,1,108,361.59Z"/><path class="cls-2" d="M23.57,253.76l-.23.21c-1.45,1.84-2.8,3.76-4.07,5.72l-.32-.2c-1.54,2.27-4.84,3.54-7.06,1.94A5.24,5.24,0,0,1,10,256.74a14.48,14.48,0,0,1,1.64-5,148.8,148.8,0,0,1,8.53-15.38,141.63,141.63,0,0,1,25.9,27.45,26.15,26.15,0,0,0,4.49,5.27A7.85,7.85,0,0,0,57,271a5,5,0,0,0,2.22-1.16c.66-2.84,1.34-5.77,2-8.7.6-2.72,1.18-5.43,1.68-8a91.41,91.41,0,0,0,35.7,9.36c-1.54,4.09-3.13,7.93-4.81,11.61a213.24,213.24,0,0,1-12.57,23.43c-2.13,3.48-4.7,7.26-8.7,8.1-4.33.92-8.49-2-11.69-5.11C45.05,285.41,37.67,269.22,23.57,253.76Z"/><path class="cls-3" d="M60.71,261.11l.54,0c-.65,2.93-1.33,5.86-2,8.7A5,5,0,0,1,57,271a7.85,7.85,0,0,1-6.44-1.89,26.15,26.15,0,0,1-4.49-5.27,141.63,141.63,0,0,0-25.9-27.45c.38-.6.76-1.2,1.15-1.78.21.12.42.25.61.38Q41.52,247.8,60.71,261.11Z"/><path class="cls-1" d="M20.21,236.39a148.8,148.8,0,0,0-8.53,15.38,14.48,14.48,0,0,0-1.64,5,5.24,5.24,0,0,0,1.85,4.69c2.22,1.6,5.52.33,7.06-1.94l.32.2c-3.44,5.28-6.42,10.87-9.85,16.16-.63,1-1.51,2.08-2.67,2A2.91,2.91,0,0,1,4.6,276c-1.42-3-1.14-6.43-.76-9.69.81-7,2-14,5-20.34l0-.06A72.86,72.86,0,0,1,16,235.36a4.64,4.64,0,0,1,1.73-1.51,4.19,4.19,0,0,1,3.67.76C21,235.19,20.59,235.79,20.21,236.39Z"/><path class="cls-4" d="M92,47a.39.39,0,0,0-.75.2c.65,2.7,1.23,5.41,1.76,8.13.09.5.85.29.75-.2Q93,51,92,47Z"/><path class="cls-4" d="M110.46,52.24q-1.63,3.23-3.55,6.29c-.26.43.42.82.68.4q1.92-3.07,3.55-6.3C111.37,52.18,110.69,51.79,110.46,52.24Z"/><path class="cls-4" d="M78.35,67.67A39.93,39.93,0,0,0,73,64.07c-.43-.27-.82.41-.39.68a39.64,39.64,0,0,1,5.21,3.47C78.17,68.55,78.73,68,78.35,67.67Z"/><path class="cls-4" d="M84,61.62a25.78,25.78,0,0,0-3-3.72c-.35-.36-.9.19-.56.55A23.66,23.66,0,0,1,83.32,62C83.59,62.43,84.27,62,84,61.62Z"/><path class="cls-4" d="M102.28,52l-.6,4.12c-.07.49.69.7.76.2l.6-4.12C103.11,51.67,102.35,51.47,102.28,52Z"/><path class="cls-4" d="M74.27,73.21a14,14,0,0,0-4.6-1.45c-.49-.06-.7.69-.2.76a13.17,13.17,0,0,1,4.41,1.37C74.33,74.12,74.72,73.44,74.27,73.21Z"/><path class="cls-4" d="M114.33,60l-2,2.23c-.34.38.21.94.55.56l2-2.23C115.22,60.19,114.67,59.63,114.33,60Z"/><path class="cls-5" d="M98.63,262.47a91.41,91.41,0,0,1-35.7-9.36c-1.57-.79-3.12-1.61-4.63-2.48a2.18,2.18,0,0,1-1.41-2.93q1.53-7.47,3.07-14.95a49.67,49.67,0,0,1,2.6-9.39c6.26,4.71,14.14,6.93,22,7.87,13.66,1.67,27.93-.29,40.09-6.73.79-.43,1.59-.87,2.33-1.37h0l2.5-.1a144.1,144.1,0,0,1,1.66,40.2,2.26,2.26,0,0,1-.44,1.33.93.93,0,0,1-.15.13c-1.34-2.69-4.25-4.18-6.69-6S119,253.94,120,251c.31-1,1-1.8,1.29-2.77a2.36,2.36,0,0,0-.59-2.77c-.61-.41-1.44-.32-2.14-.59-1.6-.63-1.86-2.84-1.3-4.46s1.68-3,2-4.73a1.57,1.57,0,0,0-.06-1c-.32-.7-1.3-.77-2.06-.62A11.88,11.88,0,0,0,110,239a28.88,28.88,0,0,0-3.73,8c-.95,2.82-1.77,5.69-2.6,8.55-.68,2.33-1.35,4.68-2,7C100.61,262.57,99.62,262.53,98.63,262.47Z"/><path class="cls-6" d="M101.62,262.58c.67-2.33,1.34-4.68,2-7,.83-2.86,1.65-5.73,2.6-8.55a28.88,28.88,0,0,1,3.73-8,11.88,11.88,0,0,1,7.12-4.91c.76-.15,1.74-.08,2.06.62a1.57,1.57,0,0,1,.06,1c-.29,1.69-1.41,3.12-2,4.73s-.3,3.83,1.3,4.46c.7.27,1.53.18,2.14.59a2.36,2.36,0,0,1,.59,2.77c-.34,1-1,1.8-1.29,2.77-.94,2.92,1.37,5.88,3.84,7.7s5.35,3.28,6.69,6a2.58,2.58,0,0,1-1.34.38l-1.88.12a95.89,95.89,0,0,1-17.11-.54q-4.41-.54-8.74-1.47C101.5,263,101.55,262.78,101.62,262.58Z"/><path class="cls-7" d="M73,229.42a11.13,11.13,0,0,1-3.24,7.14c-1.39,1.38-3.11,2.36-4.62,3.6a9.06,9.06,0,0,0-2.95,3.74c-.87,2.32-.31,4.88-1.39,7.14-.21.45.46.85.68.39,1-2.17.65-4.48,1.28-6.74.7-2.55,3-4,5-5.5,3.4-2.47,5.69-5.48,6-9.78C73.85,228.91,73.07,228.92,73,229.42Z"/><path class="cls-7" d="M89.4,236.94a132.8,132.8,0,0,0-12.28,5.72,41.29,41.29,0,0,0-6,3.42c-.68.53-1.1,1-.74,1.82.19.46.87.07.68-.39-.41-1,7.7-4.83,8.71-5.34,3.21-1.63,6.5-3.12,9.84-4.47C90.07,237.51,89.87,236.75,89.4,236.94Z"/><path class="cls-7" d="M87.92,243.87q-7.07,1.75-14,4.18c-.47.16-.27.92.2.75q6.89-2.42,14-4.17A.39.39,0,0,0,87.92,243.87Z"/><path class="cls-2" d="M156.33,25.94a21.94,21.94,0,0,1-8.13-.87c-1.65-.49-3.41-1.19-5-.62s-2.56,2.24-3.22,3.83c-4.41,10.48-2.93,22.56-6.39,33.39-.71,2.25-1.64,4.43-2.29,6.71a70.28,70.28,0,0,0-1.67,9.47c-1.09,7.86-2.76,15.62-4.47,23.36A47.75,47.75,0,0,1,122.84,97c-2.09-4.69-2-10-2.85-15a29.1,29.1,0,0,0-3.12-9.3h0q5-19.37,10-38.71c1.4-5.42,2.81-11,1.9-16.53-.61-3.62-2.18-7-3-10.58-.22-.89-.29-2,.46-2.54a1.68,1.68,0,0,1,2.06.35,5.58,5.58,0,0,1,1.11,2c1.24,2.94,3.32,5.79,6.38,6.71,2,.59,4.13.32,6.06,1,3.06,1.16,4.7,4.52,7.42,6.35C151.75,22.4,155.39,23.08,156.33,25.94Z"/><path class="cls-8" d="M93.44,126.17c.7.48,1.41.94,2.15,1.38,2.06,1.22,4.63,2.25,6.77,1.17a7.28,7.28,0,0,0,2.41-2.31,47.4,47.4,0,0,0,7.07-13.65,4.74,4.74,0,0,1,.26.5c.53,1.18.65,2.51,1.11,3.72a3.43,3.43,0,0,0,2.74,2.45,2.94,2.94,0,0,0,2.15-.94q4.34,7.71,8,15.76c1.42,3.12,2.78,6.4,2.76,9.84,0,6.09-4.38,11.38-5.18,17.42-.42,3.14.13,6.33.45,9.48.86,8.66-.11,17.42.55,26.1a69.82,69.82,0,0,0,5.7,22.81l-.29.13a7.83,7.83,0,0,1-1,1.25,11.35,11.35,0,0,1-2.17,1.85h0l-8.32.31c-2.69.1-5.5.17-7.93-1-2.65-1.27-4.43-3.84-6.87-5.49-4.18-2.84-9.7-2.66-14.39-4.54a6.24,6.24,0,0,1-3.48-2.77c-1.13-2.34.39-5.06,1.86-7.21l6.87-10.1c1.55-2.28,3.18-4.9,2.63-7.6-.65-3.19-4-5-6-7.51-2.92-3.6-3.12-8.71-2.36-13.29s2.37-9,2.59-13.67a23.63,23.63,0,0,0-8.16-18.81v0l.17,0a2.88,2.88,0,0,0,2.58-1.88c1.67-3.44.23-7.4-.89-11.14A37.94,37.94,0,0,0,93.44,126.17Z"/><path class="cls-9" d="M63.69,92.88a1.75,1.75,0,0,1,1.75.78,8.43,8.43,0,0,1,.89,2,7.1,7.1,0,0,0,3.38,3.6c.75.38,1.55.62,2.26,1a3.65,3.65,0,0,1,.57.47c1.27,5-.73,10.35-1.19,15.57a10.89,10.89,0,0,0,.78,5.83,13.5,13.5,0,0,0,4.34,4.43c1.8,1.33,3.6,2.68,5.39,4a4.05,4.05,0,0,0,1.49.79v0a23.63,23.63,0,0,1,8.16,18.81c-.22,4.63-1.83,9.08-2.59,13.67s-.56,9.69,2.36,13.29c2,2.54,5.37,4.32,6,7.51.55,2.7-1.08,5.32-2.63,7.6l-6.87,10.1c-1.47,2.15-3,4.87-1.86,7.21a6.24,6.24,0,0,0,3.48,2.77c4.69,1.88,10.21,1.7,14.39,4.54,2.44,1.65,4.22,4.22,6.87,5.49,2.43,1.16,5.24,1.09,7.93,1l8.32-.31c-.74.5-1.54.94-2.33,1.37-12.16,6.44-26.43,8.4-40.09,6.73-7.81-.94-15.69-3.16-22-7.87-.27-.19-.52-.4-.78-.61A101.14,101.14,0,0,0,66.44,149c-1.23-3.81-2.71-7.54-4.23-11.24a215.45,215.45,0,0,0-13.66-28l.08-.67c.81-.72,1.6-1.46,2.37-2.21A105.53,105.53,0,0,0,62.65,93.76a2.36,2.36,0,0,1,.89-.83Z"/><path class="cls-2" d="M109.52,109.33c.66,1.21,1.66,2.22,2.32,3.43a47.4,47.4,0,0,1-7.07,13.65,7.28,7.28,0,0,1-2.41,2.31c-2.14,1.08-4.71.05-6.77-1.17-.74-.44-1.45-.9-2.15-1.38a55.52,55.52,0,0,0,15.5-18.8A5,5,0,0,0,109.52,109.33Z"/><path class="cls-3" d="M109.56,105.12l.06.06a2.79,2.79,0,0,0-.68,2.19,55.52,55.52,0,0,1-15.5,18.8,37.94,37.94,0,0,1-8.23-7.72c-.11-.36-.22-.72-.32-1.07a6.38,6.38,0,0,1-.31-2,6.18,6.18,0,0,1,.73-2.31c.87-1.76,2-3.4,2.72-5.25a8.62,8.62,0,0,0,.56-2.46A11.55,11.55,0,0,0,92.36,109a17.27,17.27,0,0,0,2.78,1.23,13.61,13.61,0,0,0,3.54.88,10.22,10.22,0,0,0,6.43-2,26.61,26.61,0,0,0,4.43-4Z"/><path class="cls-2" d="M17.22,19.39a23,23,0,0,0-8.82-.74c-2.64.29-5.82.83-7.51-1.21C-.54,15.71,0,13.15.67,11A3.3,3.3,0,0,1,1.3,9.68c.8-.86,2.18-.63,3.34-.46a15.71,15.71,0,0,0,7.11-.6L7,2.31A53.29,53.29,0,0,1,20.67,8.84c.6.4,1.35.84,2,.53s.8-1.39.73-2.21L22.87,0C27.36,2.33,30,7.16,31.46,12s2,9.94,3.56,14.73a58.6,58.6,0,0,0,6.12,12.11q3.69,6,7.74,11.69A58.7,58.7,0,0,1,54.29,59,49.41,49.41,0,0,1,57,66.92q3.64,12.89,6.66,26l-.15.05a2.36,2.36,0,0,0-.89.83A105.53,105.53,0,0,1,51,106.83q-1.44-8.14-2.9-16.28a92.49,92.49,0,0,0-3.21-13.9c-2-5.72-5-11-7.36-16.6-2.51-6-4.19-12.21-6.06-18.4a58.55,58.55,0,0,0-5.4-13.42A23.4,23.4,0,0,0,17.22,19.39Z"/><path class="cls-4" d="M128.18,213.78c-2.12,1.83-4.8-2.51-7.38-.61-2.85,2.1-4.9,7.67-9.31,4.67-1.64-1.11-3.07-3.09-5.2-3.22s-3.48,1.88-5,3.2c-4.41,3.94-7.54-4.94-12.38-4-4.32.86-8,8.34-12.65,4.38-1.88-1.59-3.15-3.86-5.81-4.19a6,6,0,0,0-6,3.07c-.24.44.44.84.68.39,1.83-3.32,5.84-3.35,8.38-.91,1.54,1.47,2.85,3.4,5.16,3.59,4.55.36,6.72-5.6,11.09-5.64,4.09,0,6.37,7.08,10.84,4.73,2.38-1.26,3.76-5.12,7-3.41,1.89,1,3.15,3.06,5.34,3.54,3.15.69,5.29-2.24,7-4.32a5.27,5.27,0,0,1,.86-1,4.51,4.51,0,0,1,3.55,0,13.76,13.76,0,0,0,1.6.76,2.66,2.66,0,0,0,2.68-.5C129.11,214,128.56,213.46,128.18,213.78Z"/><path class="cls-4" d="M126.18,204.29c-3.94-1.28-5.78,5.17-9.87,2.74-1.86-1.1-2.93-2.81-5.27-2.89-2.63-.1-4.86,1.56-7.07,2.75-1.65.89-3.47,1.62-5.36,1.11a9.7,9.7,0,0,1-3.38-2.17c-1.35-1.1-2.79-2.22-4.62-2.23s-3.62,1.15-5.25,2c-2.69,1.47-4.79,1.43-7.25-.43-1.59-1.2-3.22-2.78-5.34-2.8-2.38,0-4.13,1.88-5.36,3.7-.28.42.4.81.68.39,1.23-1.83,3.08-3.77,5.53-3.19,1.53.36,2.75,1.57,4,2.49,1.58,1.2,3.27,2.13,5.31,1.71,2.49-.51,4.36-2.58,6.86-3,3.15-.58,5,2.44,7.42,3.77s4.66.63,6.88-.51c1.79-.92,3.44-2.21,5.45-2.66,2.31-.51,3.65.45,5.33,1.81,1.39,1.14,2.84,2,4.66,1.32,2.13-.78,4-4,6.48-3.15C126.46,205.2,126.65,204.45,126.18,204.29Z"/><path class="cls-4" d="M124.21,191.43c-.88,2.89-4.28,0-5.5-.75a4.83,4.83,0,0,0-2.88-.83c-2.62.18-4.39,2.48-6.26,4-1.65,1.37-3.58,2.25-5.66,1.16a23.57,23.57,0,0,1-2.89-2.09,6.56,6.56,0,0,0-5.79-1.27c-2.49.63-4.6,2.24-7,3.06-3.25,1.1-5.37-.37-7.85-2.28-1.82-1.4-3.74-2.43-6.1-1.79a7.12,7.12,0,0,0-4.65,4.41c-.19.47.57.66.75.2a6.07,6.07,0,0,1,5.4-4c1.75,0,3.15,1.07,4.46,2.1,1.72,1.34,3.42,2.69,5.72,2.65,5-.11,9.25-6,14.27-2.66,1.86,1.24,3.5,3.18,6,3s4.09-2.1,5.77-3.58c1.88-1.65,4-2.85,6.39-1.41a15.1,15.1,0,0,0,2.88,1.8c1.5.49,3.27.09,3.77-1.53C125.11,191.14,124.36,191,124.21,191.43Z"/><path class="cls-4" d="M124.8,177.7c-.63,2.9-3.86,3.1-6.09,1.94-1.15-.59-2.1-1.58-3.36-1.95-2.2-.65-4.32.63-6,1.93-2.66,2.07-5.07,4.34-8.51,2.37-1.76-1-3.27-2.65-5.29-3.11s-3.4.74-4.94,1.83c-3.36,2.37-6.82.61-10-1.13-1.8-1-4-2.1-6.08-1.38S71.62,181,71.21,183c-.1.49.66.69.76.2.32-1.56.9-3.33,2.43-4.11,1.95-1,4.14.21,5.85,1.15,2.26,1.24,4.62,2.58,7.31,2.42a6.18,6.18,0,0,0,2.78-.84c1.18-.69,2.14-1.88,3.5-2.2,2.52-.6,4.65,1.89,6.62,3a5.62,5.62,0,0,0,5.26.47c2.68-1.13,4.41-3.93,7.28-4.68,3.17-.83,5.34,2.83,8.57,2.69a4.14,4.14,0,0,0,4-3.26C125.67,177.4,124.91,177.2,124.8,177.7Z"/><path class="cls-4" d="M123.76,164.85c-1.71,1.51-3.78-.42-5.55-.69a5.24,5.24,0,0,0-2.66.29c-2,.73-3.67,2.28-5.56,3.3-5.58,3-8.66-3.64-14-3.37-2.24.11-4.17,1.43-6,2.55-3.07,1.86-5.51,2.43-9,1.13-2.31-.87-5-2.21-7.45-1.18a3.84,3.84,0,0,0-2.46,4.37c.12.5.87.29.76-.2-.7-3,2.75-4,5-3.6a33.13,33.13,0,0,1,4.61,1.61,8.32,8.32,0,0,0,6.13,0c2.11-.85,3.88-2.36,6-3.27,3-1.3,5.38-.18,7.91,1.44,1.68,1.08,3.47,2.24,5.55,2.2a9.81,9.81,0,0,0,5-2.08c2.05-1.36,4.16-3,6.76-2.26,1.91.55,3.68,1.88,5.48.29C124.69,165.07,124.14,164.51,123.76,164.85Z"/><path class="cls-4" d="M127.12,150.48c-1.87,1.74-3.6,2.71-6.13,1.59a11,11,0,0,0-3.69-1.36c-2.29-.16-4,1.45-5.89,2.52-3.69,2.12-6.42-.18-9.75-1.71a8.43,8.43,0,0,0-6.29-.53c-4.56,1.46-8.36,6.67-13.47,6.09-2.83-.32-5.17-2.65-8.15-1.92A6,6,0,0,0,69.33,160c-.08.49.68.69.76.19A5.21,5.21,0,0,1,74,155.91c2-.47,3.69.58,5.46,1.28a8.07,8.07,0,0,0,6,.18c4.42-1.61,8.28-6.66,13.35-5.94,2.9.4,5.12,2.6,7.91,3.33,2.38.63,4.27-.3,6.23-1.57,1.42-.92,2.92-1.94,4.71-1.65,1.36.22,2.53,1.1,3.82,1.57,2.51.9,4.4-.39,6.21-2.07C128,150.7,127.49,150.14,127.12,150.48Z"/><path class="cls-4" d="M128.75,139.48c-3.48,1.8-6.44-2.42-9.88-2.5-2.16,0-4,1.19-5.67,2.43-2.23,1.67-4.53,3.78-7.54,3.55-3.18-.25-5.85-2.5-9.1-2.45-2.71,0-5.12,1.49-7.44,2.73A19.51,19.51,0,0,1,85.07,145a14.33,14.33,0,0,1-6.35-.07c-4.14-.73-11-1.48-12.18,4.09-.1.49.66.69.76.19.68-3.22,4.28-4.28,7.2-4.13,3.25.16,6.4,1.45,9.68.92,2.68-.44,5-2,7.35-3.19a10.44,10.44,0,0,1,9.51-.47c2.37.92,4.71,1.87,7.26,1,2.19-.72,3.93-2.35,5.76-3.68a11,11,0,0,1,3.15-1.74c2-.61,3.73.21,5.49,1.18,2,1.12,4.19,2.14,6.44,1C129.58,139.93,129.19,139.25,128.75,139.48Z"/><path class="cls-4" d="M124.12,128.32a12.79,12.79,0,0,0-7.93,0c-2.58.85-4.48,2.8-6.91,3.9-5.55,2.49-11.7-1.65-17.46.24-2.6.86-4.9,2.45-7.53,3.23-3.65,1.08-7.29,0-11-.45-3.84-.45-8.46.21-10.41,4-.23.44.45.84.68.39,2.77-5.4,9.86-3.46,14.57-2.87a14.94,14.94,0,0,0,7.5-.73c2.35-.91,4.5-2.34,6.94-3,5.07-1.37,10.08,1.6,15.14.5,2.44-.53,4.25-2.17,6.35-3.4a12,12,0,0,1,9.82-1C124.41,129.23,124.6,128.47,124.12,128.32Z"/><path class="cls-4" d="M75.8,125.48c-1.47.11-2.53.89-3.87,1.39-2.23.83-4.49-.21-6.77-.13s-5.81,1-6,3.63c0,.5.74.49.78,0,.19-2,3.31-2.71,4.94-2.83a21.75,21.75,0,0,1,4,.38,6.78,6.78,0,0,0,3.32-.28c1.25-.46,2.25-1.27,3.63-1.37C76.31,126.23,76.31,125.44,75.8,125.48Z"/><path class="cls-4" d="M72.11,112.39c-1.77.44-2.85,1.74-4.35,2.67-2.31,1.44-4.52-.08-7,.15A7.79,7.79,0,0,0,54.08,121a.39.39,0,0,0,.75.2,7,7,0,0,1,3.65-4.52c2.2-1.1,4-.42,6.31-.15,3.25.38,4.64-2.67,7.52-3.38A.39.39,0,0,0,72.11,112.39Z"/><path class="cls-2" d="M88.59,105.39a25.9,25.9,0,0,1-3.38-8.61,75.68,75.68,0,0,1-1.4-8,8.75,8.75,0,0,0,2.27-3.58c.71-1.9,1.2-4,2.51-5.51,2.9-3.45,8.53-3,12-5.84a8.3,8.3,0,0,0,3-5.92l.36,0A9.77,9.77,0,0,1,107,74.85c0,2-.56,4-.09,5.86.57,2.3,2.51,3.94,4.2,5.61,1.87,1.86,3.6,4.07,4,6.67a10.47,10.47,0,0,1-1.43,6.65,30.27,30.27,0,0,1-4.24,5.46l0,0a26.61,26.61,0,0,1-4.43,4,10.22,10.22,0,0,1-6.43,2,13.61,13.61,0,0,1-3.54-.88A17.27,17.27,0,0,1,92.36,109,11.55,11.55,0,0,1,88.59,105.39Z"/><path class="cls-10" d="M98.57,96.84c-1.57-.19-2.14-.24-2.4-2a11.9,11.9,0,0,1,0-2c0-1.55.15-3.09.3-4.63.05-.5-.73-.49-.78,0-.24,2.39-.77,5.36-.28,7.73.31,1.49,1.9,1.45,3.15,1.6C99.08,97.68,99.07,96.89,98.57,96.84Z"/><path class="cls-11" d="M104.49,102c.14,2.24-2.9,3.58-4.72,3.73s-6.24-.68-6-3.31a1.93,1.93,0,0,1,1.74-1.68,8.4,8.4,0,0,1,1.94,0,11.46,11.46,0,0,0,1.43,0C100.64,100.35,104.34,99.45,104.49,102Z"/><path class="cls-10" d="M106.78,86.79c-.09.63-.58,2.57-1.52,2.51s-1.62-1.42-1.86-2.09c-.17-.47-.93-.27-.76.2.4,1.09,1.41,2.66,2.73,2.69s2-2.09,2.17-3.11C107.62,86.49,106.86,86.29,106.78,86.79Z"/><path class="cls-10" d="M91.27,88c-.3.68-.87,2.27-1.79,1.82s-1.12-1.63-1.21-2.42c-.06-.5-.84-.5-.79,0,.13,1.13.65,2.84,1.85,3.27,1.39.49,2.19-1.29,2.61-2.28C92.14,87.92,91.46,87.52,91.27,88Z"/><path class="cls-12" d="M91.86,81.76a3.24,3.24,0,0,0-2.7-.29.64.64,0,0,0-.17,0l0,0a4,4,0,0,0-2.86,3.15c0,.07,0,.12,0,.19a1.07,1.07,0,0,0,1.51,1.2,17.38,17.38,0,0,0,1.82-1.15c.73-.37,1.57-.47,2.28-.88C92.76,83.46,92.94,82.47,91.86,81.76Z"/><path class="cls-12" d="M103.35,81.29a3.24,3.24,0,0,1,2.7-.28.33.33,0,0,1,.16,0h0a4,4,0,0,1,2.86,3.15,1,1,0,0,1,0,.19,1.07,1.07,0,0,1-1.5,1.21,18.73,18.73,0,0,1-1.83-1.16c-.72-.37-1.56-.47-2.27-.87C102.45,83,102.27,82,103.35,81.29Z"/><path class="cls-13" d="M72.54,100.79c-.06-.23-.13-.46-.2-.69-.58-1.85-1.62-3.52-2.36-5.32a8,8,0,0,1-.51-5.69c1.08-2.91,4.44-4.15,6.73-6.25,3.87-3.55,4.49-9.44,7.57-13.71,3.74-5.21,10.76-7.25,17.13-6.53a21.41,21.41,0,0,1,13.37,6.45,20.47,20.47,0,0,1,2.6,3.6h0A29.1,29.1,0,0,1,120,82c.85,5.06.76,10.36,2.85,15a47.75,47.75,0,0,0,2.29,4.21,23.89,23.89,0,0,1,1.58,3.21c1,2.6,1.1,5.86-.8,7.9-1.52,1.63-3.94,2.12-5.55,3.65-.79.75-1.48,1.77-2.26,2.52a2.94,2.94,0,0,1-2.15.94,3.43,3.43,0,0,1-2.74-2.45c-.46-1.21-.58-2.54-1.11-3.72a4.74,4.74,0,0,0-.26-.5c-.66-1.21-1.66-2.22-2.32-3.43a5,5,0,0,1-.58-2,2.79,2.79,0,0,1,.68-2.19l-.06-.06,0,0,0,0a30.27,30.27,0,0,0,4.24-5.46A10.47,10.47,0,0,0,115.18,93c-.43-2.6-2.16-4.81-4-6.67-1.69-1.67-3.63-3.31-4.2-5.61-.47-1.91.1-3.9.09-5.86A9.77,9.77,0,0,0,104,67.9l-.36,0a8.3,8.3,0,0,1-3,5.92c-3.5,2.85-9.13,2.39-12,5.84-1.31,1.55-1.8,3.61-2.51,5.51a8.75,8.75,0,0,1-2.27,3.58,75.68,75.68,0,0,0,1.4,8,25.9,25.9,0,0,0,3.38,8.61,8.62,8.62,0,0,1-.56,2.46c-.7,1.85-1.85,3.49-2.72,5.25a6.18,6.18,0,0,0-.73,2.31,6.38,6.38,0,0,0,.31,2c.1.35.21.71.32,1.07,1.12,3.74,2.56,7.7.89,11.14a2.88,2.88,0,0,1-2.58,1.88l-.17,0a4.05,4.05,0,0,1-1.49-.79c-1.79-1.35-3.59-2.7-5.39-4a13.5,13.5,0,0,1-4.34-4.43,10.89,10.89,0,0,1-.78-5.83C71.81,111.14,73.81,105.82,72.54,100.79Z"/><path class="cls-14" d="M120.13,110.73c-1.6-2.47-3.15-4.29-3.2-7.43-.09-5.2,2.75-10,1.63-15.3A13.37,13.37,0,0,0,116,82.52c-1.76-2.25-3.58-4-4.33-6.84-1-3.9-1-8.66-5-10.85-.45-.25-.84.43-.4.67,4.4,2.42,3.54,8.16,5.2,12.18a16.24,16.24,0,0,0,3.15,4.44,13.41,13.41,0,0,1,3.32,6.7c.81,4.94-1.86,9.58-1.77,14.49a10,10,0,0,0,1.55,5.35c1.43,2.21,3.76,4.38,2.61,7.26-.18.47.58.66.76.2C121.83,114.22,121.2,112.38,120.13,110.73Z"/><path class="cls-14" d="M101.14,63.32c-.13,7.94-10,10-15.2,13.91a15,15,0,0,0-5.46,7.25c-1,3-.16,5.81.54,8.79a12.52,12.52,0,0,1,.09,5.9c-.4,1.69-1,3.32-1.33,5A8.13,8.13,0,0,0,80,108.1c.54,1.63,1.81,2.92,2.16,4.62,1,5-6.15,13.21.46,16.69.45.23.84-.45.39-.68-3.89-2-2.14-6.81-1-10,1-2.76,1.56-5.4.18-8.12-.86-1.7-1.79-3.09-1.74-5.07A26,26,0,0,1,81.7,100a15.64,15.64,0,0,0-.24-8.2c-.95-3.78-.85-7.21,1.48-10.46,2.11-3,5.29-4.88,8.46-6.53,4.71-2.46,10.43-5.41,10.53-11.5C101.94,62.81,101.15,62.81,101.14,63.32Z"/><path class="cls-14" d="M94.05,63.78A21.5,21.5,0,0,1,87.35,74c-2.76,2.34-6,4.14-8.29,7-2.07,2.61-2.48,5.36-2.4,8.61.06,2.08.21,4.33-.91,6.2-1,1.59-2.59,2.67-3.7,4.16-.3.4.38.79.68.39,1.11-1.49,2.75-2.56,3.7-4.16a8.82,8.82,0,0,0,1-4.15c.07-2-.25-4,.08-6a10.58,10.58,0,0,1,2.89-5.45c2.64-2.85,6.19-4.64,8.92-7.39A22.4,22.4,0,0,0,94.81,64C95,63.49,94.2,63.3,94.05,63.78Z"/></g></g></svg>