<?xml version="1.0" encoding="utf-8"?>
<!-- Generator: Adobe Illustrator 24.0.1, SVG Export Plug-In . SVG Version: 6.00 Build 0)  -->
<svg version="1.1" id="Layer_1" xmlns="http://www.w3.org/2000/svg" xmlns:xlink="http://www.w3.org/1999/xlink" x="0px" y="0px"
	 viewBox="0 0 509.1 323.2" style="enable-background:new 0 0 509.1 323.2;" xml:space="preserve">
<style type="text/css">
	.st0{fill:#E2E4E6;}
</style>
<title>BG</title>
<g id="Layer_2_1_">
	<g id="OBJECTS">
		<path class="st0" d="M486.4,101.2c-1.9,6.5-5.2,12.5-9.7,17.6c-4.4,4.7-9.9,8.3-16.1,10.3c-11.8,4.1-24.8,3.6-36.2-1.4
			c-7.5-3.3-14-8.6-18.8-15.2c-7-7.1-10.3-17.5-9.6-27.4c1-12.8,7.9-25.3,17.1-34.1c4.6-4.3,10.5-6.9,16.7-7.4
			c6.7-0.7,13.5-0.3,20,1.2c12.3,2.7,23.6,9.4,30.9,19.7C488.4,75.1,490.5,88.8,486.4,101.2z"/>
		<path class="st0" d="M246,102c-1.4-10.7,3.6-21.4,10.1-29.6c1.9-2.4,4-4.7,6.3-6.8c5.5-5.2,11.8-9.7,18.6-13.2
			c11.4-6.2,24.1-9.7,37.1-10.2c12.6-0.4,25,2.6,36,8.7c8.8,4.9,19.8,14,18.3,25.3c-0.7,5.4-4.7,9.3-9.3,11.8
			c-5.7,3.2-12.2,5.3-18.5,7.1c-13.3,3.9-27,6.3-40.1,10.8c-6.7,2.3-13,5.4-19.5,8.3c-5.5,2.4-11.2,4.5-17.3,4.7
			c-5.2,0.2-10.6-1-14.9-4.2C249,111.6,246.5,107,246,102z"/>
		<path class="st0" d="M455.4,213.8c1,9.8,1,20.7-4.5,29.3s-15.5,12.4-25,14.6c-23.9,5.4-48.5-0.1-72.6,0c-25,0.1-49.6,6.8-74.7,5
			c-10.1-0.7-20.5-2.9-29.2-8.4c-8-5.2-13.9-13.1-16.7-22.2c-6.7-20.7,1.3-42.1,12.6-59.5c11.9-18.3,27.3-34,45.4-46.3
			c0.3-0.2,0.6,0.1,0.6,0.4c5.3-3.3,11-5.9,16.9-7.8c22.3-7,46.2-1.7,67.4,6.5c20.3,7.8,40.7,17.8,55.5,34.2
			C444.5,174.6,453.1,193.6,455.4,213.8z"/>
		<path class="st0" d="M217,242.4c-1.4,6.6-5.4,12.3-11.1,15.8c-5.7,3.4-12.6,4.5-19.1,4c-6.9-0.5-14.2-2.5-19.4-7.3
			c-4.9-4.6-7.3-11.3-7.5-17.9c-0.4-13.1,7.8-25.7,19.7-31c0.5-0.2,0.9,0.5,0.4,0.7c-1.6,0.7-3.1,1.5-4.6,2.5
			c6.9-4.4,16.1-5.6,23.7-2C211.7,213.2,220.1,228.7,217,242.4z"/>
		<path class="st0" d="M146.6,205.5c-11.8,6.1-24.9,10.4-38.3,10.6c-12.5,0.3-24.6-4-34.1-12c-9.1-7.6-15.8-17.4-22.8-26.8
			c-3.6-5-7.6-9.7-11.8-14.3c-4.4-4.4-9-8.4-14-12.1c-9.6-7.4-19.5-15.2-23.4-27.1c-3.8-11.6-2.1-24.4,0.9-36.1
			c-2.4,6.7,11.7-34,25.7-54.3c7.4-10.7,18.4-19.1,29.8-25.4c12.2-6.7,26.3-8.1,40-8c24.9,0.2,50.2,7.1,70.6,21.7
			s34.2,36.9,39.2,61.5c4.9,24.3,1.2,49.6-10.3,71.5C186.5,176.5,168.5,194.2,146.6,205.5z"/>
		<ellipse class="st0" cx="256.5" cy="304.1" rx="252.6" ry="19.1"/>
	</g>
</g>
</svg>
