<svg xmlns="http://www.w3.org/2000/svg" width="20" height="19.989" viewBox="0 0 20 19.989"><path d="M6.3,2.222A1.114,1.114,0,0,0,5.185,3.333V4.444H3.333A1.113,1.113,0,0,0,2.222,5.559V21.094a1.113,1.113,0,0,0,1.111,1.117H21.111a1.113,1.113,0,0,0,1.111-1.117V5.559a1.113,1.113,0,0,0-1.111-1.115H19.259V3.333a1.111,1.111,0,0,0-2.222,0V4.444h-3.7V3.333a1.111,1.111,0,1,0-2.222,0V4.444h-3.7V3.333A1.114,1.114,0,0,0,6.3,2.222Zm0,.741a.371.371,0,0,1,.37.37V6.3a.37.37,0,0,1-.741,0V3.333A.371.371,0,0,1,6.3,2.963Zm5.926,0a.371.371,0,0,1,.37.37V6.3a.37.37,0,0,1-.741,0V3.333A.371.371,0,0,1,12.222,2.963Zm5.926,0a.371.371,0,0,1,.37.37V6.3a.37.37,0,0,1-.741,0V3.333A.371.371,0,0,1,18.148,2.963ZM3.333,5.174H5.185V6.3a1.111,1.111,0,0,0,2.222,0V5.174h3.7V6.3a1.111,1.111,0,0,0,2.222,0V5.174h3.7V6.3a1.111,1.111,0,0,0,2.222,0V5.174h1.852a.366.366,0,0,1,.37.385V8.148a.359.359,0,0,0-.37.37v.741a.359.359,0,0,0,.37.37V21.094a.367.367,0,0,1-.37.387H3.333a.367.367,0,0,1-.37-.387V9.63a.359.359,0,0,0,.37-.37V8.519a.359.359,0,0,0-.37-.37V5.559A.366.366,0,0,1,3.333,5.174ZM4.815,8.148a.359.359,0,0,0-.37.37v.741a.37.37,0,0,0,.741,0V8.519A.359.359,0,0,0,4.815,8.148Zm1.852,0a.359.359,0,0,0-.37.37v.741a.37.37,0,0,0,.741,0V8.519A.359.359,0,0,0,6.667,8.148Zm1.852,0a.359.359,0,0,0-.37.37v.741a.37.37,0,0,0,.741,0V8.519A.359.359,0,0,0,8.519,8.148Zm1.852,0a.359.359,0,0,0-.37.37v.741a.37.37,0,0,0,.741,0V8.519A.359.359,0,0,0,10.37,8.148Zm1.852,0a.359.359,0,0,0-.37.37v.741a.37.37,0,0,0,.741,0V8.519A.359.359,0,0,0,12.222,8.148Zm1.852,0a.359.359,0,0,0-.37.37v.741a.37.37,0,0,0,.741,0V8.519A.359.359,0,0,0,14.074,8.148Zm1.852,0a.359.359,0,0,0-.37.37v.741a.37.37,0,0,0,.741,0V8.519A.359.359,0,0,0,15.926,8.148Zm1.852,0a.359.359,0,0,0-.37.37v.741a.37.37,0,0,0,.741,0V8.519A.359.359,0,0,0,17.778,8.148Zm1.852,0a.359.359,0,0,0-.37.37v.741a.37.37,0,0,0,.741,0V8.519A.359.359,0,0,0,19.63,8.148Zm-11.111,3.7a.369.369,0,0,0-.261.109L7.037,13.18l-.48-.478a.369.369,0,0,0-.522.522l.741.741a.367.367,0,0,0,.522,0L8.78,12.483a.37.37,0,0,0-.261-.631Zm2.222.741a.37.37,0,1,0,0,.741h1.481a.37.37,0,0,0,0-.741Zm2.963,0a.37.37,0,1,0,0,.741h4.444a.37.37,0,0,0,0-.741ZM8.519,14.815a.369.369,0,0,0-.261.109l-1.22,1.219-.48-.478a.369.369,0,0,0-.522.522l.741.741a.367.367,0,0,0,.522,0L8.78,15.446a.37.37,0,0,0-.261-.631Zm2.222.741a.37.37,0,1,0,0,.741h5.926a.37.37,0,0,0,0-.741Zm-6.667,3.7a.37.37,0,1,0,0,.741h16.3a.37.37,0,0,0,0-.741Z" transform="translate(-2.222 -2.222)" fill="#131313" opacity="0.5"/></svg>