<?xml version="1.0" encoding="UTF-8"?>
<svg xmlns="http://www.w3.org/2000/svg" xmlns:xlink="http://www.w3.org/1999/xlink" width="50pt" height="50pt" viewBox="0 0 50 50" version="1.1">
<g id="surface1">
<path style=" stroke:none;fill-rule:nonzero;fill:#C5E4FA;fill-opacity:1;" d="M 19.429688 5.734375 C 15.855469 7.703125 13.246094 11.054688 12.210938 15 C 6.203125 15.992188 1.953125 21.421875 2.4375 27.492188 C 2.917969 33.5625 7.972656 38.253906 14.0625 38.28125 L 40.625 38.28125 C 45.371094 38.4375 49.347656 34.71875 49.503906 29.972656 C 49.660156 25.226563 45.941406 21.25 41.195313 21.09375 C 42.082031 15.507813 39.714844 9.902344 35.09375 6.640625 C 30.472656 3.378906 24.398438 3.027344 19.429688 5.734375 "/>
<path style=" stroke:none;fill-rule:nonzero;fill:#B8DDF4;fill-opacity:1;" d="M 4.6875 34.375 L 47.65625 34.375 L 42.96875 38.28125 L 10.15625 38.28125 Z "/>
<path style=" stroke:none;fill-rule:nonzero;fill:#C5E4FA;fill-opacity:1;" d="M 25.3125 34.085938 C 25.527344 33.027344 25.566406 31.9375 25.421875 30.867188 C 24.816406 26.425781 21.191406 23.011719 16.71875 22.671875 C 12.25 22.332031 8.152344 25.164063 6.882813 29.460938 C 3.167969 30.207031 0.566406 33.570313 0.78125 37.351563 C 1.082031 41.433594 4.503906 44.574219 8.59375 44.53125 L 24.867188 44.53125 C 27.71875 44.566406 30.09375 42.347656 30.257813 39.5 C 30.363281 36.648438 28.164063 34.238281 25.3125 34.085938 Z "/>
<path style=" stroke:none;fill-rule:nonzero;fill:#E3F2FF;fill-opacity:1;" d="M 8.78125 27.78125 C 9.023438 28.015625 9.351563 28.140625 9.6875 28.121094 C 10.023438 28.101563 10.335938 27.941406 10.546875 27.679688 C 11.902344 26.058594 13.902344 25.121094 16.015625 25.121094 C 18.128906 25.121094 20.128906 26.058594 21.484375 27.679688 C 21.695313 27.941406 22.007813 28.101563 22.34375 28.121094 C 22.679688 28.140625 23.007813 28.015625 23.25 27.78125 C 23.6875 27.339844 23.714844 26.636719 23.3125 26.164063 C 21.507813 24 18.835938 22.753906 16.019531 22.753906 C 13.203125 22.753906 10.53125 24 8.726563 26.164063 C 8.324219 26.636719 8.351563 27.339844 8.789063 27.78125 Z "/>
<path style=" stroke:none;fill-rule:nonzero;fill:#E3F2FF;fill-opacity:1;" d="M 38.164063 12.273438 C 37.769531 12.667969 37.226563 12.875 36.671875 12.839844 C 36.113281 12.808594 35.597656 12.535156 35.257813 12.09375 C 33.207031 9.40625 30.027344 7.820313 26.644531 7.792969 C 23.261719 7.769531 20.058594 9.3125 17.96875 11.96875 C 17.621094 12.390625 17.105469 12.648438 16.558594 12.671875 C 16.011719 12.695313 15.476563 12.484375 15.09375 12.09375 C 14.386719 11.375 14.335938 10.238281 14.976563 9.460938 C 16.195313 7.945313 17.695313 6.683594 19.398438 5.742188 C 25.835938 2.214844 33.882813 3.921875 38.335938 9.757813 C 38.910156 10.523438 38.835938 11.59375 38.164063 12.273438 Z "/>
<path style=" stroke:none;fill-rule:nonzero;fill:#B8DDF4;fill-opacity:1;" d="M 1.5625 40.625 L 30.46875 40.625 L 25.78125 44.53125 L 7.03125 44.53125 Z "/>
<path style=" stroke:none;fill-rule:nonzero;fill:#8D6C9F;fill-opacity:1;" d="M 43.039063 20.640625 L 42.960938 20.640625 C 42.671875 20.5625 42.375 20.515625 42.078125 20.46875 C 42.148438 19.898438 42.1875 19.324219 42.1875 18.75 C 42.15625 11.257813 36.816406 4.84375 29.453125 3.457031 C 22.09375 2.070313 14.785156 6.105469 12.03125 13.070313 C 12 13.109375 11.976563 13.152344 11.953125 13.195313 C 11.8125 13.570313 11.695313 13.976563 11.578125 14.320313 C 7.972656 15.054688 4.871094 17.339844 3.105469 20.566406 C 1.335938 23.792969 1.082031 27.636719 2.40625 31.070313 C 0.753906 32.746094 -0.121094 35.039063 0 37.390625 C 0.304688 41.894531 4.082031 45.371094 8.59375 45.3125 L 24.867188 45.3125 C 28.136719 45.332031 30.847656 42.785156 31.039063 39.523438 C 31.046875 39.371094 31.046875 39.214844 31.039063 39.0625 L 40.625 39.0625 C 45.316406 39.039063 49.265625 35.554688 49.875 30.90625 C 50.484375 26.253906 47.566406 21.871094 43.039063 20.640625 Z M 29.476563 39.46875 C 29.324219 41.894531 27.296875 43.777344 24.867188 43.75 L 8.59375 43.75 C 4.910156 43.804688 1.828125 40.976563 1.5625 37.304688 C 1.480469 35.601563 2.039063 33.929688 3.125 32.617188 C 3.464844 32.195313 3.855469 31.816406 4.289063 31.492188 C 4.765625 31.128906 5.292969 30.832031 5.851563 30.609375 C 5.769531 31.125 5.722656 31.648438 5.71875 32.171875 C 5.71875 32.601563 6.070313 32.953125 6.5 32.953125 C 6.929688 32.953125 7.28125 32.601563 7.28125 32.171875 C 7.273438 31.332031 7.390625 30.496094 7.625 29.6875 C 7.679688 29.5 7.742188 29.328125 7.804688 29.148438 L 7.882813 28.945313 C 9.214844 25.628906 12.433594 23.460938 16.007813 23.476563 C 16.382813 23.476563 16.753906 23.5 17.125 23.546875 C 21.015625 24.074219 24.085938 27.121094 24.640625 31.007813 C 24.742188 31.785156 24.742188 32.574219 24.640625 33.351563 C 24.417969 33.363281 24.195313 33.386719 23.976563 33.421875 C 23.546875 33.496094 23.253906 33.90625 23.328125 34.335938 C 23.402344 34.765625 23.8125 35.058594 24.242188 34.984375 C 24.574219 34.929688 24.914063 34.910156 25.25 34.929688 C 26.058594 34.980469 26.835938 35.25 27.5 35.710938 C 27.582031 35.820313 27.695313 35.90625 27.820313 35.960938 C 28.351563 36.371094 28.785156 36.898438 29.085938 37.5 C 29.308594 37.992188 29.4375 38.523438 29.460938 39.0625 C 29.480469 39.195313 29.488281 39.332031 29.476563 39.46875 Z M 40.625 37.5 L 30.757813 37.5 C 30.410156 36.421875 29.769531 35.464844 28.90625 34.734375 L 28.90625 33.59375 C 28.90625 33.164063 28.554688 32.8125 28.125 32.8125 C 27.695313 32.8125 27.34375 33.164063 27.34375 33.59375 L 27.34375 33.773438 L 27.234375 33.726563 C 27.199219 33.699219 27.164063 33.675781 27.125 33.65625 C 26.828125 33.550781 26.527344 33.464844 26.21875 33.40625 C 26.328125 32.527344 26.328125 31.636719 26.21875 30.757813 C 25.605469 26.15625 21.984375 22.539063 17.382813 21.921875 C 12.785156 21.308594 8.339844 23.847656 6.539063 28.125 L 6.539063 28.164063 C 6.484375 28.296875 6.445313 28.429688 6.390625 28.5625 C 6.335938 28.695313 6.320313 28.726563 6.296875 28.8125 C 5.367188 29.050781 4.488281 29.453125 3.703125 30 C 2.769531 27.15625 3.042969 24.050781 4.460938 21.410156 C 5.875 18.773438 8.316406 16.832031 11.203125 16.039063 C 11.035156 16.933594 10.949219 17.839844 10.9375 18.75 C 10.9375 19.179688 11.289063 19.53125 11.71875 19.53125 C 12.148438 19.53125 12.5 19.179688 12.5 18.75 C 12.503906 17.570313 12.65625 16.394531 12.953125 15.25 L 12.953125 15.203125 C 14.734375 8.355469 21.332031 3.894531 28.351563 4.796875 C 35.371094 5.695313 40.628906 11.671875 40.625 18.75 C 40.617188 19.273438 40.582031 19.792969 40.515625 20.3125 C 39.835938 20.316406 39.160156 20.390625 38.5 20.539063 C 38.078125 20.636719 37.816406 21.054688 37.914063 21.476563 C 38.011719 21.898438 38.429688 22.160156 38.851563 22.0625 C 39.621094 21.890625 40.410156 21.835938 41.195313 21.898438 C 45.375 22.222656 48.550781 25.785156 48.398438 29.972656 C 48.246094 34.160156 44.816406 37.480469 40.625 37.5 Z "/>
<path style=" stroke:none;fill-rule:nonzero;fill:#8D6C9F;fill-opacity:1;" d="M 43.75 32.8125 C 43.320313 32.8125 42.96875 33.164063 42.96875 33.59375 L 42.96875 35.15625 C 42.96875 35.585938 43.320313 35.9375 43.75 35.9375 C 44.179688 35.9375 44.53125 35.585938 44.53125 35.15625 L 44.53125 33.59375 C 44.53125 33.164063 44.179688 32.8125 43.75 32.8125 Z "/>
<path style=" stroke:none;fill-rule:nonzero;fill:#8D6C9F;fill-opacity:1;" d="M 32.03125 32.8125 C 31.601563 32.8125 31.25 33.164063 31.25 33.59375 L 31.25 35.15625 C 31.25 35.585938 31.601563 35.9375 32.03125 35.9375 C 32.460938 35.9375 32.8125 35.585938 32.8125 35.15625 L 32.8125 33.59375 C 32.8125 33.164063 32.460938 32.8125 32.03125 32.8125 Z "/>
<path style=" stroke:none;fill-rule:nonzero;fill:#8D6C9F;fill-opacity:1;" d="M 35.9375 32.8125 C 35.507813 32.8125 35.15625 33.164063 35.15625 33.59375 L 35.15625 35.15625 C 35.15625 35.585938 35.507813 35.9375 35.9375 35.9375 C 36.367188 35.9375 36.71875 35.585938 36.71875 35.15625 L 36.71875 33.59375 C 36.71875 33.164063 36.367188 32.8125 35.9375 32.8125 Z "/>
<path style=" stroke:none;fill-rule:nonzero;fill:#8D6C9F;fill-opacity:1;" d="M 39.84375 32.8125 C 39.414063 32.8125 39.0625 33.164063 39.0625 33.59375 L 39.0625 35.15625 C 39.0625 35.585938 39.414063 35.9375 39.84375 35.9375 C 40.273438 35.9375 40.625 35.585938 40.625 35.15625 L 40.625 33.59375 C 40.625 33.164063 40.273438 32.8125 39.84375 32.8125 Z "/>
<path style=" stroke:none;fill-rule:nonzero;fill:#8D6C9F;fill-opacity:1;" d="M 32.234375 8.328125 C 31.988281 8.171875 31.671875 8.167969 31.421875 8.316406 C 31.171875 8.464844 31.023438 8.742188 31.039063 9.035156 C 31.054688 9.324219 31.234375 9.582031 31.5 9.703125 C 32.089844 10.019531 32.652344 10.390625 33.171875 10.8125 C 33.386719 11.003906 33.691406 11.0625 33.960938 10.964844 C 34.230469 10.867188 34.425781 10.628906 34.46875 10.34375 C 34.507813 10.058594 34.390625 9.773438 34.15625 9.601563 C 33.558594 9.117188 32.914063 8.691406 32.234375 8.328125 Z "/>
<path style=" stroke:none;fill-rule:nonzero;fill:#8D6C9F;fill-opacity:1;" d="M 29.09375 7.179688 C 26.261719 6.582031 23.308594 7.007813 20.757813 8.375 C 20.378906 8.589844 20.246094 9.074219 20.460938 9.453125 C 20.675781 9.832031 21.160156 9.964844 21.539063 9.75 C 23.761719 8.558594 26.335938 8.191406 28.804688 8.710938 C 29.234375 8.800781 29.660156 8.523438 29.75 8.09375 C 29.839844 7.664063 29.5625 7.238281 29.132813 7.148438 Z "/>
<path style=" stroke:none;fill-rule:nonzero;fill:#8D6C9F;fill-opacity:1;" d="M 10.15625 39.0625 C 9.726563 39.0625 9.375 39.414063 9.375 39.84375 L 9.375 41.40625 C 9.375 41.835938 9.726563 42.1875 10.15625 42.1875 C 10.585938 42.1875 10.9375 41.835938 10.9375 41.40625 L 10.9375 39.84375 C 10.9375 39.414063 10.585938 39.0625 10.15625 39.0625 Z "/>
<path style=" stroke:none;fill-rule:nonzero;fill:#8D6C9F;fill-opacity:1;" d="M 6.25 39.0625 C 5.820313 39.0625 5.46875 39.414063 5.46875 39.84375 L 5.46875 41.40625 C 5.46875 41.835938 5.820313 42.1875 6.25 42.1875 C 6.679688 42.1875 7.03125 41.835938 7.03125 41.40625 L 7.03125 39.84375 C 7.03125 39.414063 6.679688 39.0625 6.25 39.0625 Z "/>
<path style=" stroke:none;fill-rule:nonzero;fill:#8D6C9F;fill-opacity:1;" d="M 14.0625 39.0625 C 13.632813 39.0625 13.28125 39.414063 13.28125 39.84375 L 13.28125 41.40625 C 13.28125 41.835938 13.632813 42.1875 14.0625 42.1875 C 14.492188 42.1875 14.84375 41.835938 14.84375 41.40625 L 14.84375 39.84375 C 14.84375 39.414063 14.492188 39.0625 14.0625 39.0625 Z "/>
<path style=" stroke:none;fill-rule:nonzero;fill:#8D6C9F;fill-opacity:1;" d="M 17.96875 39.0625 C 17.539063 39.0625 17.1875 39.414063 17.1875 39.84375 L 17.1875 41.40625 C 17.1875 41.835938 17.539063 42.1875 17.96875 42.1875 C 18.398438 42.1875 18.75 41.835938 18.75 41.40625 L 18.75 39.84375 C 18.75 39.414063 18.398438 39.0625 17.96875 39.0625 Z "/>
<path style=" stroke:none;fill-rule:nonzero;fill:#8D6C9F;fill-opacity:1;" d="M 21.875 39.0625 C 21.445313 39.0625 21.09375 39.414063 21.09375 39.84375 L 21.09375 41.40625 C 21.09375 41.835938 21.445313 42.1875 21.875 42.1875 C 22.304688 42.1875 22.65625 41.835938 22.65625 41.40625 L 22.65625 39.84375 C 22.65625 39.414063 22.304688 39.0625 21.875 39.0625 Z "/>
<path style=" stroke:none;fill-rule:nonzero;fill:#8D6C9F;fill-opacity:1;" d="M 25.78125 39.0625 C 25.351563 39.0625 25 39.414063 25 39.84375 L 25 41.40625 C 25 41.835938 25.351563 42.1875 25.78125 42.1875 C 26.210938 42.1875 26.5625 41.835938 26.5625 41.40625 L 26.5625 39.84375 C 26.5625 39.414063 26.210938 39.0625 25.78125 39.0625 Z "/>
</g>
</svg>
