<?xml version="1.0" encoding="UTF-8"?>
<svg xmlns="http://www.w3.org/2000/svg" xmlns:xlink="http://www.w3.org/1999/xlink" width="500pt" height="500pt" viewBox="0 0 500 500" version="1.1">
<g id="surface1">
<path style=" stroke:none;fill-rule:nonzero;fill:#FFFFFF;fill-opacity:1;" d="M 219.300781 15.625 C 211.457031 15.625 204.164063 19.53125 199.796875 26.0625 L 175.507813 62.5 L 85.9375 62.5 C 73.027344 62.5 62.5 73.027344 62.5 85.9375 L 62.5 132.8125 C 62.5 145.722656 73.027344 156.25 85.9375 156.25 L 86.699219 156.25 L 114.289063 418.152344 C 116.363281 438.109375 133.085938 453.125 153.136719 453.125 L 346.894531 453.125 C 366.914063 453.125 383.605469 438.109375 385.710938 418.152344 L 413.300781 156.25 L 414.0625 156.25 C 426.972656 156.25 437.5 145.722656 437.5 132.8125 L 437.5 85.9375 C 437.5 73.027344 426.972656 62.5 414.0625 62.5 L 324.492188 62.5 L 300.203125 26.0625 C 295.835938 19.53125 288.542969 15.625 280.699219 15.625 Z M 219.300781 31.25 L 280.699219 31.25 C 283.324219 31.25 285.734375 32.5625 287.199219 34.730469 L 305.726563 62.5 L 194.273438 62.5 L 212.800781 34.730469 C 214.265625 32.5625 216.675781 31.25 219.300781 31.25 Z M 85.9375 78.125 L 414.0625 78.125 C 418.367188 78.125 421.875 81.632813 421.875 85.9375 L 421.875 132.8125 C 421.875 137.117188 418.367188 140.625 414.0625 140.625 L 93.75 140.625 C 93.566406 140.625 93.445313 140.714844 93.261719 140.746094 C 93.109375 140.714844 92.957031 140.625 92.773438 140.625 L 85.9375 140.625 C 81.632813 140.625 78.125 137.117188 78.125 132.8125 L 78.125 85.9375 C 78.125 81.632813 81.632813 78.125 85.9375 78.125 Z M 109.375 93.75 C 105.042969 93.75 101.5625 97.257813 101.5625 101.5625 L 101.5625 117.1875 C 101.5625 121.492188 105.042969 125 109.375 125 C 113.707031 125 117.1875 121.492188 117.1875 117.1875 L 117.1875 101.5625 C 117.1875 97.257813 113.707031 93.75 109.375 93.75 Z M 148.4375 93.75 C 144.105469 93.75 140.625 97.257813 140.625 101.5625 L 140.625 117.1875 C 140.625 121.492188 144.105469 125 148.4375 125 C 152.769531 125 156.25 121.492188 156.25 117.1875 L 156.25 101.5625 C 156.25 97.257813 152.769531 93.75 148.4375 93.75 Z M 187.5 93.75 C 183.167969 93.75 179.6875 97.257813 179.6875 101.5625 L 179.6875 117.1875 C 179.6875 121.492188 183.167969 125 187.5 125 C 191.832031 125 195.3125 121.492188 195.3125 117.1875 L 195.3125 101.5625 C 195.3125 97.257813 191.832031 93.75 187.5 93.75 Z M 226.5625 93.75 C 222.230469 93.75 218.75 97.257813 218.75 101.5625 L 218.75 117.1875 C 218.75 121.492188 222.230469 125 226.5625 125 C 230.894531 125 234.375 121.492188 234.375 117.1875 L 234.375 101.5625 C 234.375 97.257813 230.894531 93.75 226.5625 93.75 Z M 273.4375 93.75 C 269.105469 93.75 265.625 97.257813 265.625 101.5625 L 265.625 117.1875 C 265.625 121.492188 269.105469 125 273.4375 125 C 277.769531 125 281.25 121.492188 281.25 117.1875 L 281.25 101.5625 C 281.25 97.257813 277.769531 93.75 273.4375 93.75 Z M 312.5 93.75 C 308.167969 93.75 304.6875 97.257813 304.6875 101.5625 L 304.6875 117.1875 C 304.6875 121.492188 308.167969 125 312.5 125 C 316.832031 125 320.3125 121.492188 320.3125 117.1875 L 320.3125 101.5625 C 320.3125 97.257813 316.832031 93.75 312.5 93.75 Z M 351.5625 93.75 C 347.230469 93.75 343.75 97.257813 343.75 101.5625 L 343.75 117.1875 C 343.75 121.492188 347.230469 125 351.5625 125 C 355.894531 125 359.375 121.492188 359.375 117.1875 L 359.375 101.5625 C 359.375 97.257813 355.894531 93.75 351.5625 93.75 Z M 390.625 93.75 C 386.292969 93.75 382.8125 97.257813 382.8125 101.5625 L 382.8125 117.1875 C 382.8125 121.492188 386.292969 125 390.625 125 C 394.957031 125 398.4375 121.492188 398.4375 117.1875 L 398.4375 101.5625 C 398.4375 97.257813 394.957031 93.75 390.625 93.75 Z M 102.417969 156.25 L 397.582031 156.25 L 370.179688 416.503906 C 368.925781 428.496094 358.886719 437.5 346.863281 437.5 L 153.136719 437.5 C 141.113281 437.5 131.074219 428.496094 129.820313 416.503906 Z M 183.714844 195.3125 C 181.730469 195.3125 179.71875 196.074219 178.191406 197.601563 C 175.140625 200.652344 175.140625 205.597656 178.191406 208.648438 L 238.953125 269.410156 L 178.191406 330.199219 C 175.140625 333.25 175.140625 338.164063 178.191406 341.21875 C 179.71875 342.742188 181.703125 343.507813 183.714844 343.507813 C 185.730469 343.507813 187.714844 342.742188 189.238281 341.21875 L 250 280.457031 L 310.761719 341.21875 C 312.285156 342.742188 314.269531 343.507813 316.285156 343.507813 C 318.296875 343.507813 320.28125 342.742188 321.808594 341.21875 C 324.859375 338.164063 324.859375 333.25 321.808594 330.199219 L 261.046875 269.410156 L 321.808594 208.648438 C 324.859375 205.597656 324.859375 200.652344 321.808594 197.601563 C 318.757813 194.550781 313.8125 194.550781 310.761719 197.601563 L 250 258.363281 L 189.238281 197.601563 C 187.714844 196.074219 185.699219 195.3125 183.714844 195.3125 Z M 164.0625 406.25 C 159.730469 406.25 156.25 409.757813 156.25 414.0625 C 156.25 418.367188 159.730469 421.875 164.0625 421.875 L 273.4375 421.875 C 277.769531 421.875 281.25 418.367188 281.25 414.0625 C 281.25 409.757813 277.769531 406.25 273.4375 406.25 Z M 304.6875 406.25 C 300.355469 406.25 296.875 409.757813 296.875 414.0625 C 296.875 418.367188 300.355469 421.875 304.6875 421.875 L 335.9375 421.875 C 340.269531 421.875 343.75 418.367188 343.75 414.0625 C 343.75 409.757813 340.269531 406.25 335.9375 406.25 Z "/>
</g>
</svg>
