<?xml version="1.0" encoding="UTF-8"?>
<svg xmlns="http://www.w3.org/2000/svg" xmlns:xlink="http://www.w3.org/1999/xlink" width="50pt" height="50pt" viewBox="0 0 50 50" version="1.1">
<g id="surface1">
<path style=" stroke:none;fill-rule:nonzero;fill:#FF0000;fill-opacity:1;" d="M 21.929688 1.5625 C 21.144531 1.5625 20.417969 1.953125 19.980469 2.605469 L 17.550781 6.25 L 8.59375 6.25 C 7.304688 6.25 6.25 7.304688 6.25 8.59375 L 6.25 13.28125 C 6.25 14.570313 7.304688 15.625 8.59375 15.625 L 8.671875 15.625 L 11.429688 41.816406 C 11.636719 43.8125 13.308594 45.3125 15.3125 45.3125 L 34.6875 45.3125 C 36.691406 45.3125 38.359375 43.8125 38.570313 41.816406 L 41.328125 15.625 L 41.40625 15.625 C 42.695313 15.625 43.75 14.570313 43.75 13.28125 L 43.75 8.59375 C 43.75 7.304688 42.695313 6.25 41.40625 6.25 L 32.449219 6.25 L 30.019531 2.605469 C 29.582031 1.953125 28.855469 1.5625 28.070313 1.5625 Z M 21.929688 3.125 L 28.070313 3.125 C 28.332031 3.125 28.574219 3.257813 28.71875 3.472656 L 30.574219 6.25 L 19.425781 6.25 L 21.28125 3.472656 C 21.425781 3.257813 21.667969 3.125 21.929688 3.125 Z M 8.59375 7.8125 L 41.40625 7.8125 C 41.835938 7.8125 42.1875 8.164063 42.1875 8.59375 L 42.1875 13.28125 C 42.1875 13.710938 41.835938 14.0625 41.40625 14.0625 L 9.375 14.0625 C 9.355469 14.0625 9.34375 14.070313 9.328125 14.074219 C 9.3125 14.070313 9.296875 14.0625 9.277344 14.0625 L 8.59375 14.0625 C 8.164063 14.0625 7.8125 13.710938 7.8125 13.28125 L 7.8125 8.59375 C 7.8125 8.164063 8.164063 7.8125 8.59375 7.8125 Z M 10.9375 9.375 C 10.503906 9.375 10.15625 9.726563 10.15625 10.15625 L 10.15625 11.71875 C 10.15625 12.148438 10.503906 12.5 10.9375 12.5 C 11.371094 12.5 11.71875 12.148438 11.71875 11.71875 L 11.71875 10.15625 C 11.71875 9.726563 11.371094 9.375 10.9375 9.375 Z M 14.84375 9.375 C 14.410156 9.375 14.0625 9.726563 14.0625 10.15625 L 14.0625 11.71875 C 14.0625 12.148438 14.410156 12.5 14.84375 12.5 C 15.277344 12.5 15.625 12.148438 15.625 11.71875 L 15.625 10.15625 C 15.625 9.726563 15.277344 9.375 14.84375 9.375 Z M 18.75 9.375 C 18.316406 9.375 17.96875 9.726563 17.96875 10.15625 L 17.96875 11.71875 C 17.96875 12.148438 18.316406 12.5 18.75 12.5 C 19.183594 12.5 19.53125 12.148438 19.53125 11.71875 L 19.53125 10.15625 C 19.53125 9.726563 19.183594 9.375 18.75 9.375 Z M 22.65625 9.375 C 22.222656 9.375 21.875 9.726563 21.875 10.15625 L 21.875 11.71875 C 21.875 12.148438 22.222656 12.5 22.65625 12.5 C 23.089844 12.5 23.4375 12.148438 23.4375 11.71875 L 23.4375 10.15625 C 23.4375 9.726563 23.089844 9.375 22.65625 9.375 Z M 27.34375 9.375 C 26.910156 9.375 26.5625 9.726563 26.5625 10.15625 L 26.5625 11.71875 C 26.5625 12.148438 26.910156 12.5 27.34375 12.5 C 27.777344 12.5 28.125 12.148438 28.125 11.71875 L 28.125 10.15625 C 28.125 9.726563 27.777344 9.375 27.34375 9.375 Z M 31.25 9.375 C 30.816406 9.375 30.46875 9.726563 30.46875 10.15625 L 30.46875 11.71875 C 30.46875 12.148438 30.816406 12.5 31.25 12.5 C 31.683594 12.5 32.03125 12.148438 32.03125 11.71875 L 32.03125 10.15625 C 32.03125 9.726563 31.683594 9.375 31.25 9.375 Z M 35.15625 9.375 C 34.722656 9.375 34.375 9.726563 34.375 10.15625 L 34.375 11.71875 C 34.375 12.148438 34.722656 12.5 35.15625 12.5 C 35.589844 12.5 35.9375 12.148438 35.9375 11.71875 L 35.9375 10.15625 C 35.9375 9.726563 35.589844 9.375 35.15625 9.375 Z M 39.0625 9.375 C 38.628906 9.375 38.28125 9.726563 38.28125 10.15625 L 38.28125 11.71875 C 38.28125 12.148438 38.628906 12.5 39.0625 12.5 C 39.496094 12.5 39.84375 12.148438 39.84375 11.71875 L 39.84375 10.15625 C 39.84375 9.726563 39.496094 9.375 39.0625 9.375 Z M 10.242188 15.625 L 39.757813 15.625 L 37.019531 41.648438 C 36.894531 42.851563 35.890625 43.75 34.6875 43.75 L 15.3125 43.75 C 14.109375 43.75 13.105469 42.851563 12.980469 41.648438 Z M 18.371094 19.53125 C 18.171875 19.53125 17.972656 19.609375 17.820313 19.761719 C 17.515625 20.066406 17.515625 20.558594 17.820313 20.863281 L 23.894531 26.941406 L 17.820313 33.019531 C 17.515625 33.324219 17.515625 33.816406 17.820313 34.121094 C 17.972656 34.273438 18.171875 34.351563 18.371094 34.351563 C 18.574219 34.351563 18.769531 34.273438 18.925781 34.121094 L 25 28.046875 L 31.074219 34.121094 C 31.230469 34.273438 31.425781 34.351563 31.628906 34.351563 C 31.828125 34.351563 32.027344 34.273438 32.179688 34.121094 C 32.484375 33.816406 32.484375 33.324219 32.179688 33.019531 L 26.105469 26.941406 L 32.179688 20.863281 C 32.484375 20.558594 32.484375 20.066406 32.179688 19.761719 C 31.875 19.453125 31.382813 19.453125 31.074219 19.761719 L 25 25.835938 L 18.925781 19.761719 C 18.769531 19.609375 18.570313 19.53125 18.371094 19.53125 Z M 16.40625 40.625 C 15.972656 40.625 15.625 40.976563 15.625 41.40625 C 15.625 41.835938 15.972656 42.1875 16.40625 42.1875 L 27.34375 42.1875 C 27.777344 42.1875 28.125 41.835938 28.125 41.40625 C 28.125 40.976563 27.777344 40.625 27.34375 40.625 Z M 30.46875 40.625 C 30.035156 40.625 29.6875 40.976563 29.6875 41.40625 C 29.6875 41.835938 30.035156 42.1875 30.46875 42.1875 L 33.59375 42.1875 C 34.027344 42.1875 34.375 41.835938 34.375 41.40625 C 34.375 40.976563 34.027344 40.625 33.59375 40.625 Z "/>
</g>
</svg>
