<?xml version="1.0" encoding="UTF-8"?>
<svg xmlns="http://www.w3.org/2000/svg" xmlns:xlink="http://www.w3.org/1999/xlink" width="50pt" height="50pt" viewBox="0 0 50 50" version="1.1">
<g id="surface1">
<path style=" stroke:none;fill-rule:nonzero;fill:#C2CDE7;fill-opacity:1;" d="M 49.21875 31.25 C 49.21875 32.984375 48.710938 34.59375 47.828125 35.9375 C 46.296875 38.289063 43.640625 39.84375 40.625 39.84375 L 13.28125 39.84375 C 12.203125 39.84375 11.15625 39.710938 10.15625 39.453125 C 4.765625 38.0625 0.78125 33.171875 0.78125 27.34375 C 0.78125 21.28125 5.101563 16.226563 10.835938 15.085938 C 12.75 8.625 18.703125 3.90625 25.78125 3.90625 C 34.414063 3.90625 41.40625 10.898438 41.40625 19.53125 C 41.40625 20.609375 41.28125 21.664063 41.070313 22.679688 C 45.609375 22.914063 49.21875 26.65625 49.21875 31.25 Z "/>
<path style=" stroke:none;fill-rule:nonzero;fill:#D6DFF2;fill-opacity:1;" d="M 13.921875 12.1875 C 14.703125 12.96875 15.953125 12.96875 16.65625 12.1875 C 16.734375 12.109375 16.734375 12.109375 16.8125 12.03125 C 20.949219 7.03125 28.367188 6.40625 33.285156 10.546875 C 33.832031 11.015625 34.300781 11.484375 34.769531 12.03125 C 35.472656 12.890625 36.640625 12.96875 37.5 12.34375 C 37.578125 12.265625 37.578125 12.265625 37.65625 12.1875 C 38.359375 11.484375 38.4375 10.3125 37.734375 9.53125 C 32.191406 2.890625 22.355469 2.03125 15.71875 7.578125 C 15.015625 8.203125 14.390625 8.828125 13.765625 9.53125 C 13.140625 10.3125 13.21875 11.484375 13.921875 12.1875 Z "/>
<path style=" stroke:none;fill-rule:nonzero;fill:#ACB7D0;fill-opacity:1;" d="M 47.828125 35.9375 C 46.296875 38.289063 43.640625 39.84375 40.625 39.84375 L 10.15625 39.84375 L 10.15625 35.9375 Z "/>
<path style=" stroke:none;fill-rule:nonzero;fill:#8D6C9F;fill-opacity:1;" d="M 10.195313 19.53125 C 10.183594 19.53125 10.171875 19.53125 10.15625 19.53125 C 9.726563 19.507813 9.394531 19.140625 9.414063 18.710938 C 9.476563 17.453125 9.703125 16.160156 10.085938 14.863281 C 10.210938 14.453125 10.644531 14.214844 11.058594 14.335938 C 11.472656 14.460938 11.707031 14.894531 11.585938 15.308594 C 11.238281 16.484375 11.03125 17.652344 10.976563 18.789063 C 10.957031 19.207031 10.609375 19.53125 10.195313 19.53125 Z "/>
<path style=" stroke:none;fill-rule:nonzero;fill:#8D6C9F;fill-opacity:1;" d="M 41.070313 23.460938 C 41.019531 23.460938 40.964844 23.453125 40.910156 23.441406 C 40.488281 23.355469 40.21875 22.941406 40.304688 22.519531 C 40.515625 21.5 40.625 20.492188 40.625 19.53125 C 40.625 11.347656 33.964844 4.6875 25.78125 4.6875 C 19.277344 4.6875 13.4375 9.054688 11.585938 15.308594 C 11.464844 15.722656 11.027344 15.960938 10.613281 15.835938 C 10.199219 15.714844 9.964844 15.277344 10.085938 14.863281 C 12.136719 7.953125 18.589844 3.125 25.78125 3.125 C 34.828125 3.125 42.1875 10.484375 42.1875 19.53125 C 42.1875 20.601563 42.070313 21.714844 41.835938 22.835938 C 41.757813 23.207031 41.433594 23.460938 41.070313 23.460938 Z "/>
<path style=" stroke:none;fill-rule:nonzero;fill:#8D6C9F;fill-opacity:1;" d="M 40.625 40.625 L 13.28125 40.625 C 5.957031 40.625 0 34.667969 0 27.34375 C 0 21.027344 4.492188 15.546875 10.683594 14.320313 C 11.105469 14.230469 11.519531 14.511719 11.601563 14.933594 C 11.6875 15.355469 11.410156 15.769531 10.988281 15.851563 C 5.527344 16.9375 1.5625 21.769531 1.5625 27.34375 C 1.5625 33.804688 6.820313 39.0625 13.28125 39.0625 L 40.625 39.0625 C 44.933594 39.0625 48.4375 35.558594 48.4375 31.25 C 48.4375 27.09375 45.183594 23.671875 41.03125 23.457031 L 40.875 23.449219 C 40.34375 23.414063 39.792969 23.464844 39.203125 23.574219 C 38.777344 23.65625 38.371094 23.371094 38.292969 22.945313 C 38.214844 22.519531 38.496094 22.113281 38.921875 22.035156 C 39.640625 21.902344 40.316406 21.839844 40.980469 21.890625 L 41.109375 21.898438 C 46.09375 22.152344 50 26.261719 50 31.25 C 50 36.417969 45.792969 40.625 40.625 40.625 Z "/>
<path style=" stroke:none;fill-rule:nonzero;fill:#8D6C9F;fill-opacity:1;" d="M 20.3125 9.953125 C 20.035156 9.953125 19.761719 9.800781 19.621094 9.535156 C 19.417969 9.15625 19.566406 8.679688 19.945313 8.480469 C 22.480469 7.140625 25.472656 6.710938 28.28125 7.28125 C 28.703125 7.367188 28.976563 7.78125 28.890625 8.203125 C 28.804688 8.625 28.390625 8.898438 27.96875 8.8125 C 27.25 8.667969 26.515625 8.59375 25.78125 8.59375 C 23.984375 8.59375 22.269531 9.019531 20.679688 9.859375 C 20.5625 9.921875 20.4375 9.953125 20.3125 9.953125 Z "/>
<path style=" stroke:none;fill-rule:nonzero;fill:#8D6C9F;fill-opacity:1;" d="M 32.8125 10.964844 C 32.648438 10.964844 32.484375 10.914063 32.34375 10.808594 C 31.804688 10.40625 31.34375 10.105469 30.882813 9.859375 C 30.503906 9.660156 30.355469 9.1875 30.558594 8.804688 C 30.761719 8.425781 31.234375 8.277344 31.617188 8.480469 C 32.148438 8.761719 32.679688 9.105469 33.28125 9.558594 C 33.628906 9.820313 33.695313 10.308594 33.4375 10.652344 C 33.285156 10.859375 33.050781 10.964844 32.8125 10.964844 Z "/>
<path style=" stroke:none;fill-rule:nonzero;fill:#E3F2FF;fill-opacity:1;" d="M 43.75 41.40625 C 43.488281 41.40625 44.015625 41.40625 41.40625 41.40625 C 42.699219 41.40625 43.75 40.355469 43.75 39.0625 C 43.75 37.769531 42.699219 36.71875 41.40625 36.71875 C 41.058594 36.71875 33.9375 36.71875 29.6875 36.71875 C 30.980469 36.71875 32.03125 35.667969 32.03125 34.375 C 32.03125 33.082031 30.980469 32.03125 29.6875 32.03125 L 31.25 32.03125 C 32.542969 32.03125 33.59375 30.980469 33.59375 29.6875 C 33.59375 28.394531 32.542969 27.34375 31.25 27.34375 C 30.652344 27.34375 25.980469 27.34375 20.3125 27.34375 C 21.605469 27.34375 22.65625 26.292969 22.65625 25 C 22.65625 23.707031 21.605469 22.65625 20.3125 22.65625 C 19.230469 22.65625 10.457031 22.65625 9.375 22.65625 C 8.082031 22.65625 7.03125 23.707031 7.03125 25 C 7.03125 26.292969 8.082031 27.34375 9.375 27.34375 C 9.710938 27.34375 5.46875 27.34375 7.03125 27.34375 C 5.738281 27.34375 4.6875 28.394531 4.6875 29.6875 C 4.6875 30.980469 5.738281 32.03125 7.03125 32.03125 C 6.191406 32.03125 11.097656 32.03125 10.9375 32.03125 C 9.644531 32.03125 8.59375 33.082031 8.59375 34.375 C 8.59375 35.667969 9.644531 36.71875 10.9375 36.71875 C 10.15625 36.71875 7.90625 36.71875 7.8125 36.71875 C 6.519531 36.71875 5.46875 37.769531 5.46875 39.0625 C 5.46875 40.355469 6.519531 41.40625 7.8125 41.40625 C 8.066406 41.40625 9.875 41.40625 11.71875 41.40625 C 10.425781 41.40625 9.375 42.457031 9.375 43.75 C 9.375 45.042969 10.425781 46.09375 11.71875 46.09375 C 12.800781 46.09375 42.667969 46.09375 43.75 46.09375 C 45.042969 46.09375 46.09375 45.042969 46.09375 43.75 C 46.09375 42.457031 45.042969 41.40625 43.75 41.40625 Z "/>
<path style=" stroke:none;fill-rule:nonzero;fill:#ACE3FF;fill-opacity:1;" d="M 11.71875 46.09375 C 12.800781 46.09375 42.667969 46.09375 43.75 46.09375 C 45.042969 46.09375 46.09375 45.042969 46.09375 43.75 C 46.09375 42.457031 45.042969 41.40625 43.75 41.40625 C 43.488281 41.40625 41.671875 41.40625 39.0625 41.40625 L 11.71875 41.40625 C 10.425781 41.40625 9.375 42.457031 9.375 43.75 C 9.375 45.042969 10.425781 46.09375 11.71875 46.09375 Z "/>
<path style=" stroke:none;fill-rule:nonzero;fill:#8D6C9F;fill-opacity:1;" d="M 43.75 46.875 L 11.71875 46.875 C 9.996094 46.875 8.59375 45.472656 8.59375 43.75 C 8.59375 43.179688 8.746094 42.648438 9.011719 42.1875 L 7.8125 42.1875 C 6.089844 42.1875 4.6875 40.785156 4.6875 39.0625 C 4.6875 37.339844 6.089844 35.9375 7.8125 35.9375 L 8.230469 35.9375 C 7.964844 35.476563 7.8125 34.945313 7.8125 34.375 C 7.8125 33.804688 7.964844 33.273438 8.230469 32.8125 L 6.933594 32.8125 C 5.257813 32.761719 3.90625 31.378906 3.90625 29.6875 C 3.90625 28.199219 4.953125 26.949219 6.351563 26.636719 C 6.449219 26.589844 6.554688 26.566406 6.671875 26.5625 C 6.402344 26.101563 6.25 25.570313 6.25 25 C 6.25 23.277344 7.652344 21.875 9.375 21.875 L 20.3125 21.875 C 22.035156 21.875 23.4375 23.277344 23.4375 25 C 23.4375 25.570313 23.285156 26.101563 23.019531 26.5625 L 31.25 26.5625 C 32.972656 26.5625 34.375 27.964844 34.375 29.6875 C 34.375 31.046875 33.5 32.210938 32.285156 32.636719 C 32.617188 33.132813 32.8125 33.730469 32.8125 34.375 C 32.8125 34.945313 32.660156 35.476563 32.394531 35.9375 L 41.40625 35.9375 C 43.128906 35.9375 44.53125 37.339844 44.53125 39.0625 C 44.53125 39.640625 44.375 40.179688 44.101563 40.644531 C 45.660156 40.820313 46.875 42.144531 46.875 43.75 C 46.875 45.472656 45.472656 46.875 43.75 46.875 Z M 11.71875 42.1875 C 10.855469 42.1875 10.15625 42.886719 10.15625 43.75 C 10.15625 44.613281 10.855469 45.3125 11.71875 45.3125 L 43.75 45.3125 C 44.613281 45.3125 45.3125 44.613281 45.3125 43.75 C 45.3125 42.886719 44.613281 42.1875 43.75 42.1875 L 41.40625 42.1875 C 40.972656 42.1875 40.625 41.839844 40.625 41.40625 C 40.625 40.972656 40.972656 40.625 41.40625 40.625 C 42.269531 40.625 42.96875 39.925781 42.96875 39.0625 C 42.96875 38.199219 42.269531 37.5 41.40625 37.5 L 29.6875 37.5 C 29.253906 37.5 28.90625 37.152344 28.90625 36.71875 C 28.90625 36.285156 29.253906 35.9375 29.6875 35.9375 C 30.550781 35.9375 31.25 35.238281 31.25 34.375 C 31.25 33.511719 30.550781 32.8125 29.6875 32.8125 C 29.253906 32.8125 28.90625 32.464844 28.90625 32.03125 C 28.90625 31.597656 29.253906 31.25 29.6875 31.25 L 31.25 31.25 C 32.113281 31.25 32.8125 30.550781 32.8125 29.6875 C 32.8125 28.824219 32.113281 28.125 31.25 28.125 L 20.3125 28.125 C 19.878906 28.125 19.53125 27.777344 19.53125 27.34375 C 19.53125 26.910156 19.878906 26.5625 20.3125 26.5625 C 21.175781 26.5625 21.875 25.863281 21.875 25 C 21.875 24.136719 21.175781 23.4375 20.3125 23.4375 L 9.375 23.4375 C 8.511719 23.4375 7.8125 24.136719 7.8125 25 C 7.8125 25.863281 8.511719 26.5625 9.375 26.5625 L 9.394531 26.5625 C 9.824219 26.5625 10.175781 26.910156 10.175781 27.34375 C 10.175781 27.777344 9.824219 28.125 9.394531 28.125 L 7.03125 28.125 C 6.167969 28.125 5.46875 28.824219 5.46875 29.6875 C 5.46875 30.550781 6.167969 31.25 7.03125 31.25 L 10.941406 31.25 C 11.371094 31.25 11.722656 31.597656 11.722656 32.03125 C 11.722656 32.464844 11.371094 32.8125 10.941406 32.8125 C 10.074219 32.8125 9.375 33.511719 9.375 34.375 C 9.375 35.238281 10.074219 35.9375 10.9375 35.9375 C 11.371094 35.9375 11.71875 36.285156 11.71875 36.71875 C 11.71875 37.152344 11.371094 37.5 10.9375 37.5 L 7.8125 37.5 C 6.949219 37.5 6.25 38.199219 6.25 39.0625 C 6.25 39.925781 6.949219 40.625 7.8125 40.625 L 11.71875 40.625 C 12.152344 40.625 12.5 40.972656 12.5 41.40625 C 12.5 41.839844 12.152344 42.1875 11.71875 42.1875 Z "/>
<path style=" stroke:none;fill-rule:nonzero;fill:#8D6C9F;fill-opacity:1;" d="M 14.84375 42.96875 C 14.410156 42.96875 14.0625 42.621094 14.0625 42.1875 L 14.0625 40.625 C 14.0625 40.191406 14.410156 39.84375 14.84375 39.84375 C 15.277344 39.84375 15.625 40.191406 15.625 40.625 L 15.625 42.1875 C 15.625 42.621094 15.277344 42.96875 14.84375 42.96875 Z "/>
<path style=" stroke:none;fill-rule:nonzero;fill:#8D6C9F;fill-opacity:1;" d="M 18.75 42.96875 C 18.316406 42.96875 17.96875 42.621094 17.96875 42.1875 L 17.96875 40.625 C 17.96875 40.191406 18.316406 39.84375 18.75 39.84375 C 19.183594 39.84375 19.53125 40.191406 19.53125 40.625 L 19.53125 42.1875 C 19.53125 42.621094 19.183594 42.96875 18.75 42.96875 Z "/>
<path style=" stroke:none;fill-rule:nonzero;fill:#8D6C9F;fill-opacity:1;" d="M 22.65625 42.96875 C 22.222656 42.96875 21.875 42.621094 21.875 42.1875 L 21.875 40.625 C 21.875 40.191406 22.222656 39.84375 22.65625 39.84375 C 23.089844 39.84375 23.4375 40.191406 23.4375 40.625 L 23.4375 42.1875 C 23.4375 42.621094 23.089844 42.96875 22.65625 42.96875 Z "/>
<path style=" stroke:none;fill-rule:nonzero;fill:#8D6C9F;fill-opacity:1;" d="M 26.5625 42.96875 C 26.128906 42.96875 25.78125 42.621094 25.78125 42.1875 L 25.78125 40.625 C 25.78125 40.191406 26.128906 39.84375 26.5625 39.84375 C 26.996094 39.84375 27.34375 40.191406 27.34375 40.625 L 27.34375 42.1875 C 27.34375 42.621094 26.996094 42.96875 26.5625 42.96875 Z "/>
<path style=" stroke:none;fill-rule:nonzero;fill:#8D6C9F;fill-opacity:1;" d="M 30.46875 42.96875 C 30.035156 42.96875 29.6875 42.621094 29.6875 42.1875 L 29.6875 40.625 C 29.6875 40.191406 30.035156 39.84375 30.46875 39.84375 C 30.902344 39.84375 31.25 40.191406 31.25 40.625 L 31.25 42.1875 C 31.25 42.621094 30.902344 42.96875 30.46875 42.96875 Z "/>
<path style=" stroke:none;fill-rule:nonzero;fill:#8D6C9F;fill-opacity:1;" d="M 34.375 42.96875 C 33.941406 42.96875 33.59375 42.621094 33.59375 42.1875 L 33.59375 40.625 C 33.59375 40.191406 33.941406 39.84375 34.375 39.84375 C 34.808594 39.84375 35.15625 40.191406 35.15625 40.625 L 35.15625 42.1875 C 35.15625 42.621094 34.808594 42.96875 34.375 42.96875 Z "/>
<path style=" stroke:none;fill-rule:nonzero;fill:#8D6C9F;fill-opacity:1;" d="M 38.28125 42.96875 C 37.847656 42.96875 37.5 42.621094 37.5 42.1875 L 37.5 40.625 C 37.5 40.191406 37.847656 39.84375 38.28125 39.84375 C 38.714844 39.84375 39.0625 40.191406 39.0625 40.625 L 39.0625 42.1875 C 39.0625 42.621094 38.714844 42.96875 38.28125 42.96875 Z "/>
<path style=" stroke:none;fill-rule:nonzero;fill:#8D6C9F;fill-opacity:1;" d="M 31.25 32.8125 L 28.90625 32.8125 C 28.472656 32.8125 28.125 32.464844 28.125 32.03125 C 28.125 31.597656 28.472656 31.25 28.90625 31.25 L 31.25 31.25 C 31.683594 31.25 32.03125 31.597656 32.03125 32.03125 C 32.03125 32.464844 31.683594 32.8125 31.25 32.8125 Z "/>
<path style=" stroke:none;fill-rule:nonzero;fill:#8D6C9F;fill-opacity:1;" d="M 13.28125 37.5 L 10.9375 37.5 C 10.503906 37.5 10.15625 37.152344 10.15625 36.71875 C 10.15625 36.285156 10.503906 35.9375 10.9375 35.9375 L 13.28125 35.9375 C 13.714844 35.9375 14.0625 36.285156 14.0625 36.71875 C 14.0625 37.152344 13.714844 37.5 13.28125 37.5 Z "/>
<path style=" stroke:none;fill-rule:nonzero;fill:#8D6C9F;fill-opacity:1;" d="M 31.25 37.5 L 26.5625 37.5 C 26.128906 37.5 25.78125 37.152344 25.78125 36.71875 C 25.78125 36.285156 26.128906 35.9375 26.5625 35.9375 L 31.25 35.9375 C 31.683594 35.9375 32.03125 36.285156 32.03125 36.71875 C 32.03125 37.152344 31.683594 37.5 31.25 37.5 Z "/>
<path style=" stroke:none;fill-rule:nonzero;fill:#8D6C9F;fill-opacity:1;" d="M 23.4375 37.5 L 21.09375 37.5 C 20.660156 37.5 20.3125 37.152344 20.3125 36.71875 C 20.3125 36.285156 20.660156 35.9375 21.09375 35.9375 L 23.4375 35.9375 C 23.871094 35.9375 24.21875 36.285156 24.21875 36.71875 C 24.21875 37.152344 23.871094 37.5 23.4375 37.5 Z "/>
<path style=" stroke:none;fill-rule:nonzero;fill:#8D6C9F;fill-opacity:1;" d="M 12.5 28.125 L 7.8125 28.125 C 7.378906 28.125 7.03125 27.777344 7.03125 27.34375 C 7.03125 26.910156 7.378906 26.5625 7.8125 26.5625 L 12.5 26.5625 C 12.933594 26.5625 13.28125 26.910156 13.28125 27.34375 C 13.28125 27.777344 12.933594 28.125 12.5 28.125 Z "/>
<path style=" stroke:none;fill-rule:nonzero;fill:#8D6C9F;fill-opacity:1;" d="M 13.28125 32.8125 L 10.9375 32.8125 C 10.503906 32.8125 10.15625 32.464844 10.15625 32.03125 C 10.15625 31.597656 10.503906 31.25 10.9375 31.25 L 13.28125 31.25 C 13.714844 31.25 14.0625 31.597656 14.0625 32.03125 C 14.0625 32.464844 13.714844 32.8125 13.28125 32.8125 Z "/>
<path style=" stroke:none;fill-rule:nonzero;fill:#8D6C9F;fill-opacity:1;" d="M 17.96875 32.8125 L 16.40625 32.8125 C 15.972656 32.8125 15.625 32.464844 15.625 32.03125 C 15.625 31.597656 15.972656 31.25 16.40625 31.25 L 17.96875 31.25 C 18.402344 31.25 18.75 31.597656 18.75 32.03125 C 18.75 32.464844 18.402344 32.8125 17.96875 32.8125 Z "/>
</g>
</svg>
