<svg xmlns="http://www.w3.org/2000/svg" width="15" height="15" viewBox="0 0 15 15"><g transform="translate(-1.5 -1.5)"><path d="M16.5,9A7.5,7.5,0,1,1,9,1.5,7.5,7.5,0,0,1,16.5,9Z" fill="#4caf50"/><path d="M6.226,7.05l2.1,1.05L9,6.9a4.179,4.179,0,0,0,.524-2.024V4.538A.832.832,0,0,0,8.7,3.712H8.512a.32.32,0,0,0-.3.264l-.187.75a2.119,2.119,0,0,1-.486.9Z" fill="#ffcc80"/><path d="M11.175,12.75H7.125a1.5,1.5,0,0,1-1.5-1.5v-3a1.5,1.5,0,0,1,1.5-1.5H12a.751.751,0,0,1,.75.75c0,.413-.187.563-.187.75s.188.337.188.75-.3.675-.337.863c-.076.224.037.6-.076.863s-.337.412-.375.674.113.563,0,.863A.975.975,0,0,1,11.175,12.75Z" fill="#ffcc80"/></g></svg>