<svg xmlns="http://www.w3.org/2000/svg" viewBox="0 0 773.84 215.39"><defs><style>.cls-1{fill:#3bb8bc;}.cls-2{fill:#1d1d1b;}</style></defs><title>landscape-logo</title><g id="Layer_2" data-name="Layer 2"><g id="Layer_1-2" data-name="Layer 1"><path class="cls-1" d="M60.19,194.18a118,118,0,0,1-16.5-9.33c-10.53-7.12-20.9-14.49-29.73-23.76a3.66,3.66,0,0,0-4.18-1c-4.35,1.44-8.07,6.59-8,11.15s1.93,8.28,4.32,11.88c4.19,6.34,9.8,11.27,15.76,15.7a74.63,74.63,0,0,0,13.71,7.73c5,2.1,10.15,3.53,15.68,3.13,6.48-.48,10.23-5.48,11.13-10.95C62.77,196.38,62,195,60.19,194.18ZM19.35,178.8a6.34,6.34,0,0,1-8.7,1.55,6.51,6.51,0,0,1-1.51-8.76,6.32,6.32,0,0,1,8.7-1.45A6.17,6.17,0,0,1,19.35,178.8Zm32.49,23.32a6.45,6.45,0,0,1-8.77,1.42,6.52,6.52,0,0,1-1.41-8.78,6.28,6.28,0,0,1,10.18,7.36Z"/><path class="cls-1" d="M153.43,101.32a171.17,171.17,0,0,0-43-66.53A170.92,170.92,0,0,0,57.2.1a1.26,1.26,0,0,0-1.75,1.18V51.54a1.28,1.28,0,0,0,.6,1.08,124.06,124.06,0,0,1,44.68,46.84,1.27,1.27,0,0,1-1.12,1.86H1.27A1.27,1.27,0,0,0,0,102.59v42.15a1.26,1.26,0,0,0,1.84,1.12,41.62,41.62,0,0,1,21.65-4.27,10.61,10.61,0,0,0,5.68-.91c3.86-2,7.64-1.77,11.58-.21,3,1.19,6,2.4,8.84,3.88a2.23,2.23,0,0,0,2.36,0c1.11-.61,2.27-1.11,3.41-1.67s2-1.16,3.21-.23c.47.36.9,0,1.19-.43,2-2.74,3.92-5.51,5.91-8.24.66-.91.07-1.58-.29-2.32a8.42,8.42,0,0,1,4.42-11.68A8.32,8.32,0,0,1,79,121.89a8.5,8.5,0,0,1,1.43,9.43,8.1,8.1,0,0,1-8.46,4.6,2.94,2.94,0,0,0-3.34,1.54c-1.55,2.34-3.23,4.58-4.86,6.85-.52.7-.86,1.36.07,2a1.6,1.6,0,0,1,.57,1.7,27.23,27.23,0,0,1-.48,3.61c-.54,2,.35,3.23,1.71,4.53a50,50,0,0,1,8,9.61,6,6,0,0,1,1.09,4c0,.27,0,.53,0,.79A22.05,22.05,0,0,0,76,180c3.23,8.5,4.05,17.29,1.43,26.11a47.73,47.73,0,0,1-2.89,7.46,1.26,1.26,0,0,0,1.13,1.82h0a1.29,1.29,0,0,0,1.14-.69A40.06,40.06,0,0,0,80,205.93c.4-1.68.51-1.71,1.9-.75a12.08,12.08,0,0,0,1.81,1.27c2.41,1.13,2.82,3.2,2.77,5.54,0,.68-.06,1.35-.14,2a1.26,1.26,0,0,0,1.26,1.39h65a1.27,1.27,0,0,0,1.2-.86,170.62,170.62,0,0,0,9.44-56.17A170.74,170.74,0,0,0,153.43,101.32Z"/><path class="cls-2" d="M214.45,197.35V98.65a15.4,15.4,0,0,1,4.84-11.39,17.19,17.19,0,0,1,23.73,0,15.37,15.37,0,0,1,4.84,11.39v85.23h41a13.41,13.41,0,0,1,10.06,4.36,15.13,15.13,0,0,1,0,20.88,13.42,13.42,0,0,1-10.06,4.37h-57.7a16.28,16.28,0,0,1-11.87-4.75A15.4,15.4,0,0,1,214.45,197.35Z"/><path class="cls-2" d="M318.28,199.25V98.65a15.24,15.24,0,0,1,4.94-11.39,17.07,17.07,0,0,1,23.63,0,15.37,15.37,0,0,1,4.84,11.39v100.6a15.23,15.23,0,0,1-4.93,11.39,17,17,0,0,1-23.54,0A15.24,15.24,0,0,1,318.28,199.25Z"/><path class="cls-2" d="M492.91,97.7v99.46a17,17,0,0,1-5.69,12.91,19.35,19.35,0,0,1-13.67,5.32,18.8,18.8,0,0,1-16.13-8.17L407.87,140v60.36A14,14,0,0,1,403.22,211a16.77,16.77,0,0,1-22.58,0A14,14,0,0,1,376,200.39V100.74a17.15,17.15,0,0,1,5.57-12.91,18.85,18.85,0,0,1,13.5-5.32q10,0,16.05,8.49L461,158.06V97.77A14.43,14.43,0,0,1,465.67,87a16.49,16.49,0,0,1,22.59,0A14.35,14.35,0,0,1,492.91,97.7Z"/><path class="cls-2" d="M592.75,140.79h28.48q7.21,0,11.1,4.46t3.89,11.67v42.33a16,16,0,0,1-4.46,11.49q-4.46,4.65-11.86,4.65-8.92,0-13.29-5.89a67.17,67.17,0,0,1-27.52,5.89q-30,0-48.5-17.47t-18.51-49.16q0-28.27,20.41-47.26t49.82-19a94.75,94.75,0,0,1,28.1,4,19.15,19.15,0,0,1,8.92,5.6,13.75,13.75,0,0,1,3.42,9.4,14.89,14.89,0,0,1-4.56,11.1,15.19,15.19,0,0,1-11,4.46q-1.9,0-12.91-2.85a48.89,48.89,0,0,0-12.9-1.52A32.79,32.79,0,0,0,556.78,123q-10,10.35-10,25.72,0,15.94,9.49,26.38t25.06,10.44a55.57,55.57,0,0,0,22-4.36V170.4H592.75A13.4,13.4,0,0,1,582.69,166a15.15,15.15,0,0,1,0-20.88A13.43,13.43,0,0,1,592.75,140.79Z"/><path class="cls-2" d="M716.7,185.21q12.91,0,19-7.79,4.74-6.07,4.74-18.41V98.65a15.4,15.4,0,0,1,4.84-11.39,17.07,17.07,0,0,1,23.63,0,15.24,15.24,0,0,1,4.94,11.39v63.78q0,21.45-11.39,35.11-15.37,17.85-45.56,17.85-30,0-45.36-17.85-11.38-13.66-11.39-35.11V98.65a15.23,15.23,0,0,1,4.93-11.39,17.08,17.08,0,0,1,23.64,0,15.4,15.4,0,0,1,4.84,11.39V159q0,12.35,4.74,18.41Q704.37,185.21,716.7,185.21Z"/></g></g></svg>