<?xml version="1.0" encoding="utf-8"?>
<!-- Generator: Adobe Illustrator 24.0.1, SVG Export Plug-In . SVG Version: 6.00 Build 0)  -->
<svg version="1.1" id="Layer_1" xmlns="http://www.w3.org/2000/svg" xmlns:xlink="http://www.w3.org/1999/xlink" x="0px" y="0px"
	 viewBox="0 0 773.8 215.4" style="enable-background:new 0 0 773.8 215.4;" xml:space="preserve">
<style type="text/css">
	.st0{fill:#3BB8BC;}
	.st1{fill:#FFFFFF;}
</style>
<title>landscape-logo</title>
<g id="Layer_2_1_">
	<g id="Layer_1-2">
		<path class="st0" d="M60.2,194.2c-5.7-2.7-11.3-5.8-16.5-9.3c-10.5-7.1-20.9-14.5-29.7-23.8c-1-1.2-2.7-1.6-4.2-1
			c-4.3,1.4-8.1,6.6-8,11.1s1.9,8.3,4.3,11.9c4.2,6.3,9.8,11.3,15.8,15.7c4.3,3.1,8.9,5.6,13.7,7.7c5,2.1,10.2,3.5,15.7,3.1
			c6.5-0.5,10.2-5.5,11.1-10.9C62.8,196.4,62,195,60.2,194.2z M19.4,178.8c-2,2.8-5.9,3.5-8.7,1.6c-2.7-2.1-3.4-5.9-1.5-8.8
			c2-2.8,5.9-3.4,8.7-1.4C20.6,172.1,21.3,175.9,19.4,178.8C19.4,178.7,19.4,178.8,19.4,178.8z M51.8,202.1
			c-2.1,2.7-5.9,3.4-8.8,1.4c-2.7-2.1-3.3-5.9-1.4-8.8c2-2.8,6-3.4,8.8-1.4S53.9,199.3,51.8,202.1z"/>
		<path class="st0" d="M153.4,101.3c-8.9-25.2-23.7-48-43-66.5C95,20,77,8.2,57.2,0.1c-0.6-0.3-1.4,0-1.7,0.7
			c-0.1,0.2-0.1,0.3-0.1,0.5v50.3c0,0.4,0.2,0.8,0.6,1.1C74.8,64,90.2,80.2,100.7,99.5c0.3,0.6,0.1,1.4-0.5,1.7
			c-0.2,0.1-0.4,0.1-0.6,0.1H1.3c-0.7,0-1.3,0.6-1.3,1.3v42.1c0,0.7,0.6,1.3,1.3,1.3c0.2,0,0.4,0,0.6-0.1c6.7-3.3,14.2-4.8,21.6-4.3
			c1.9,0.2,3.9-0.1,5.7-0.9c3.9-2,7.6-1.8,11.6-0.2c3,1.2,6,2.4,8.8,3.9c0.7,0.5,1.6,0.5,2.4,0c1.1-0.6,2.3-1.1,3.4-1.7
			s2-1.2,3.2-0.2c0.5,0.4,0.9,0,1.2-0.4c2-2.7,3.9-5.5,5.9-8.2c0.7-0.9,0.1-1.6-0.3-2.3c-2.1-4.1-0.5-9.2,3.7-11.3
			c0.3-0.1,0.5-0.2,0.8-0.3c3.2-1.3,6.9-0.4,9.2,2.1c2.4,2.6,2.9,6.3,1.4,9.4c-1.5,3.2-4.9,5.1-8.5,4.6c-1.3-0.3-2.7,0.3-3.3,1.5
			c-1.6,2.3-3.2,4.6-4.9,6.9c-0.5,0.7-0.9,1.4,0.1,2c0.5,0.4,0.7,1.1,0.6,1.7c-0.1,1.2-0.2,2.4-0.5,3.6c-0.5,2,0.4,3.2,1.7,4.5
			c3.1,2.9,5.7,6.1,8,9.6c0.8,1.2,1.2,2.6,1.1,4c0,0.3,0,0.5,0,0.8c-0.3,3.2,0.2,6.4,1.3,9.4c3.2,8.5,4.1,17.3,1.4,26.1
			c-0.8,2.6-1.7,5.1-2.9,7.5c-0.3,0.6-0.1,1.4,0.6,1.7c0.2,0.1,0.4,0.1,0.6,0.1l0,0c0.5,0,0.9-0.3,1.1-0.7c1.4-2.8,2.5-5.7,3.2-8.8
			c0.4-1.7,0.5-1.7,1.9-0.8c0.6,0.5,1.2,0.9,1.8,1.3c2.4,1.1,2.8,3.2,2.8,5.5c0,0.7-0.1,1.4-0.1,2c-0.1,0.7,0.4,1.3,1.1,1.4
			c0,0,0.1,0,0.1,0h65c0.5,0,1-0.3,1.2-0.9c6.3-18.1,9.5-37,9.4-56.2C163.2,138.9,159.9,119.6,153.4,101.3z"/>
		<path class="st1" d="M214.4,197.4V98.7c-0.1-4.3,1.7-8.4,4.8-11.4c6.6-6.3,17.1-6.3,23.7,0c3.1,3,4.9,7.1,4.8,11.4v85.2h41
			c3.8,0,7.5,1.5,10.1,4.4c5.6,5.8,5.6,15,0,20.9c-2.6,2.8-6.2,4.4-10.1,4.4h-57.7c-4.4,0.1-8.7-1.6-11.9-4.8
			C216.2,205.8,214.4,201.7,214.4,197.4z"/>
		<path class="st1" d="M318.3,199.3V98.7c0-4.3,1.8-8.5,4.9-11.4c6.6-6.3,17-6.3,23.6,0c3.1,3,4.9,7.1,4.8,11.4v100.6
			c0,4.3-1.7,8.5-4.9,11.4c-6.6,6.3-17,6.3-23.5,0C320,207.7,318.2,203.6,318.3,199.3z"/>
		<path class="st1" d="M492.9,97.7v99.5c0.1,4.9-2,9.6-5.7,12.9c-3.7,3.5-8.6,5.4-13.7,5.3c-6.4,0.2-12.5-2.9-16.1-8.2L407.9,140
			v60.4c0.1,4.1-1.6,7.9-4.6,10.6c-6.4,5.8-16.2,5.8-22.6,0c-3-2.7-4.7-6.6-4.6-10.6v-99.7c-0.1-4.9,2-9.6,5.6-12.9
			c3.6-3.5,8.5-5.4,13.5-5.3c6.7,0,12,2.8,16,8.5l49.9,67.1V97.8c0-4.1,1.7-8,4.7-10.8c6.3-6,16.2-6,22.6,0
			C491.3,89.7,492.9,93.6,492.9,97.7z"/>
		<path class="st1" d="M592.8,140.8h28.5c4.8,0,8.5,1.5,11.1,4.5s3.9,6.9,3.9,11.7v42.3c0.1,4.3-1.5,8.4-4.5,11.5
			c-3,3.1-6.9,4.6-11.9,4.6c-5.9,0-10.4-2-13.3-5.9c-8.7,3.9-18,5.9-27.5,5.9c-20,0-36.2-5.8-48.5-17.5s-18.5-28-18.5-49.2
			c0-18.8,6.8-34.6,20.4-47.3c13.6-12.7,30.2-19,49.8-19c9.5-0.1,19,1.3,28.1,4c3.4,1,6.5,2.9,8.9,5.6c2.3,2.6,3.5,5.9,3.4,9.4
			c0.1,4.2-1.6,8.2-4.6,11.1c-2.9,2.9-6.9,4.5-11,4.5c-1.3,0-5.6-1-12.9-2.8c-4.2-1.1-8.6-1.6-12.9-1.5c-9.3-0.2-18.2,3.5-24.6,10.3
			c-6.7,6.9-10,15.5-10,25.7c0,10.6,3.2,19.4,9.5,26.4s14.7,10.4,25.1,10.4c7.6,0.1,15-1.4,22-4.4v-10.8h-10.6
			c-3.8,0-7.5-1.6-10.1-4.4c-5.6-5.8-5.6-15,0-20.9C585.3,142.3,588.9,140.7,592.8,140.8z"/>
		<path class="st1" d="M716.7,185.2c8.6,0,14.9-2.6,19-7.8c3.2-4,4.7-10.2,4.7-18.4V98.7c-0.1-4.3,1.7-8.4,4.8-11.4
			c6.6-6.3,17-6.3,23.6,0c3.2,2.9,5,7.1,4.9,11.4v63.8c0,14.3-3.8,26-11.4,35.1c-10.2,11.9-25.4,17.9-45.6,17.9
			c-20,0-35.1-5.9-45.4-17.9c-7.6-9.1-11.4-20.8-11.4-35.1V98.7c0-4.3,1.7-8.5,4.9-11.4c6.6-6.3,17-6.3,23.6,0
			c3.1,3,4.9,7.1,4.8,11.4V159c0,8.2,1.6,14.4,4.7,18.4C702.3,182.6,708.5,185.2,716.7,185.2z"/>
	</g>
</g>
</svg>
