<?xml version="1.0" encoding="utf-8"?>
<!-- Generator: Adobe Illustrator 24.0.1, SVG Export Plug-In . SVG Version: 6.00 Build 0)  -->
<svg version="1.1" id="Layer_1" xmlns="http://www.w3.org/2000/svg" xmlns:xlink="http://www.w3.org/1999/xlink" x="0px" y="0px"
	 viewBox="0 0 163.2 287.4" style="enable-background:new 0 0 163.2 287.4;" xml:space="preserve">
<style type="text/css">
	.st0{fill:#39B7BB;}
	.st1{fill:#ECEFF1;}
	.st2{fill:none;stroke:#39B7BB;stroke-width:5;stroke-miterlimit:10;}
</style>
<title>potrait-logo</title>
<path class="st0" d="M60.7,211.5c-5.6-2.6-11-5.7-16.2-9.2c-10.3-7-20.5-14.2-29.1-23.3c-1.2-1.3-2.5-1.4-4.1-0.9
	c-4.3,1.4-7.9,6.5-7.9,10.9c0.1,4.4,1.9,8.1,4.2,11.6c4.1,6.2,9.6,11,15.4,15.4c4.3,3,8.7,5.6,13.4,7.6c4.9,2,10,3.5,15.4,3.1
	c6.4-0.5,10-5.4,10.9-10.7C63.2,213.7,62.4,212.4,60.7,211.5z M20.6,196.5c-1.9,2.7-5.8,3.4-8.5,1.5c-2.6-1.9-3.3-5.9-1.5-8.6
	c1.8-2.7,5.8-3.3,8.5-1.4C21.9,189.9,22.6,193.7,20.6,196.5z M52.5,219.3c-2,2.7-6,3.3-8.6,1.4c-2.6-1.9-3.3-6-1.4-8.6
	c1.9-2.7,5.9-3.3,8.6-1.4C53.7,212.6,54.4,216.7,52.5,219.3z"/>
<path class="st1" d="M52.5,219.3c-2,2.7-6,3.3-8.6,1.4c-2.6-1.9-3.3-6-1.4-8.6c1.9-2.7,5.9-3.3,8.6-1.4
	C53.7,212.6,54.4,216.7,52.5,219.3z"/>
<path class="st1" d="M20.6,196.5c-1.9,2.7-5.8,3.4-8.5,1.5c-2.6-1.9-3.3-5.9-1.5-8.6c1.8-2.7,5.8-3.3,8.5-1.4
	C21.9,189.9,22.6,193.7,20.6,196.5z"/>
<path class="st2" d="M161.5,176.4c0,17.4-2.7,34.2-7.6,50c-1.1,3.5-4.4,5.9-8,5.9H86c0.2-1.1,0.3-2.2,0.3-3.3
	c0.1-2.3-0.3-4.3-2.7-5.4c-0.6-0.3-1.2-0.8-1.8-1.3c-1.4-0.9-1.5-0.9-1.9,0.7c-0.8,3.3-1.9,6.3-3.5,9.3h-2.8
	c1.6-2.8,2.8-5.8,3.8-9.1c2.6-8.6,1.8-17.3-1.4-25.6c-1.2-3.1-1.5-6-1.3-9.2c0-0.3,0-0.5,0-0.8c0.2-1.5-0.3-2.7-1.1-4
	c-2.2-3.5-4.8-6.6-7.8-9.4c-1.3-1.3-2.2-2.5-1.7-4.4c0.3-1.1,0.3-2.4,0.5-3.5c0.1-0.6,0.1-1.3-0.5-1.7c-0.9-0.6-0.6-1.3-0.1-2
	c1.6-2.2,3.3-4.4,4.8-6.7c0.8-1.3,1.7-1.8,3.3-1.5c3.5,0.5,6.7-1.3,8.3-4.5c1.5-2.9,0.9-6.7-1.4-9.2c-2.2-2.4-5.8-3.2-9-2
	c-4.5,1.7-6.5,7-4.3,11.4c0.4,0.7,0.9,1.4,0.3,2.3c-1.9,2.7-3.9,5.4-5.8,8.1c-0.3,0.4-0.7,0.8-1.2,0.4c-1.2-0.9-2.1-0.3-3.1,0.2
	c-1.1,0.6-2.3,1-3.3,1.6c-0.8,0.4-1.5,0.4-2.3,0c-2.8-1.5-5.7-2.6-8.7-3.8c-3.9-1.5-7.6-1.7-11.3,0.2c-1.7,0.9-3.6,1-5.6,0.9
	c-8.1-0.5-15.9,1-23,5.2V129c0-4.7,3.8-8.4,8.4-8.4h76.2c6.8,0,10.8-7.7,6.9-13.3C84.4,94.5,73,83.5,59.9,74.9
	c-2.4-1.6-3.9-4.2-3.9-7.1V33.7c0-6.3,6.6-10.3,12.2-7.5c15.3,7.6,29.4,17.5,41.6,29.2c18.7,18,33.3,40.2,42.1,65.2
	C158.2,138.1,161.5,156.9,161.5,176.4z"/>
</svg>
