<svg xmlns="http://www.w3.org/2000/svg" width="15" height="15" viewBox="0 0 15 15"><g transform="translate(-1.5 -1.5)"><path d="M16.5,9A7.5,7.5,0,1,1,9,1.5,7.5,7.5,0,0,1,16.5,9Z" fill="#f44336"/><path d="M6.226,10.95l2.1-1.05L9,11.1a4.179,4.179,0,0,1,.524,2.024v.337a.833.833,0,0,1-.825.826H8.512a.32.32,0,0,1-.3-.264l-.187-.75a2.119,2.119,0,0,0-.486-.9Z" fill="#ffcc80"/><path d="M11.175,5.25H7.125a1.5,1.5,0,0,0-1.5,1.5v3a1.5,1.5,0,0,0,1.5,1.5H12a.751.751,0,0,0,.75-.75c0-.413-.187-.562-.187-.75s.188-.337.188-.75-.3-.675-.337-.863c-.076-.224.037-.6-.076-.863S12,6.863,11.962,6.6s.113-.562,0-.863A.975.975,0,0,0,11.175,5.25Z" fill="#ffcc80"/></g></svg>