<svg xmlns="http://www.w3.org/2000/svg" width="15" height="15" viewBox="0 0 15 15"><g transform="translate(0 15) rotate(-90)"><path d="M15,7.5A7.5,7.5,0,1,0,7.5,15,7.5,7.5,0,0,0,15,7.5Z" fill="#020202"/><path d="M0,3.338l2.1,1.05.675-1.2A4.179,4.179,0,0,0,3.3,1.163V.826A.833.833,0,0,0,2.474,0H2.287a.32.32,0,0,0-.3.264l-.187.75a2.119,2.119,0,0,1-.486.9Z" transform="translate(4.726 2.212)" fill="#ffcc80"/><path d="M5.55,6H1.5A1.5,1.5,0,0,1,0,4.5v-3A1.5,1.5,0,0,1,1.5,0H6.375a.751.751,0,0,1,.75.75c0,.413-.187.563-.187.75s.188.337.188.75-.3.675-.337.863c-.076.224.037.6-.076.863s-.337.412-.375.674.113.563,0,.863A.975.975,0,0,1,5.55,6Z" transform="translate(4.125 5.25)" fill="#ffcc80"/></g></svg>