<?xml version="1.0" encoding="UTF-8"?>
<svg xmlns="http://www.w3.org/2000/svg" xmlns:xlink="http://www.w3.org/1999/xlink" width="50pt" height="50pt" viewBox="0 0 50 50" version="1.1">
<g id="surface1">
<path style=" stroke:none;fill-rule:nonzero;fill:#FFEB9B;fill-opacity:1;" d="M 22.65625 17.1875 C 22.65625 21.933594 18.808594 25.78125 14.0625 25.78125 C 9.316406 25.78125 5.46875 21.933594 5.46875 17.1875 C 5.46875 12.441406 9.316406 8.59375 14.0625 8.59375 C 18.808594 8.59375 22.65625 12.441406 22.65625 17.1875 Z "/>
<path style=" stroke:none;fill-rule:nonzero;fill:#C2CDE7;fill-opacity:1;" d="M 41.171875 26.5625 C 42.789063 18.71875 37.9375 10.992188 30.167969 9.046875 C 22.398438 7.101563 14.476563 11.625 12.203125 19.304688 C 6.164063 20.496094 2.019531 26.082031 2.625 32.207031 C 3.230469 38.335938 8.390625 43 14.546875 42.984375 L 40.726563 42.984375 C 45.152344 42.953125 48.757813 39.421875 48.875 34.996094 C 48.996094 30.574219 45.589844 26.847656 41.171875 26.578125 Z "/>
<path style=" stroke:none;fill-rule:nonzero;fill:#D6DFF2;fill-opacity:1;" d="M 14.679688 16.867188 C 15.074219 17.257813 15.617188 17.460938 16.167969 17.429688 C 16.722656 17.398438 17.238281 17.136719 17.585938 16.703125 C 19.8125 14.042969 23.101563 12.507813 26.570313 12.507813 C 30.039063 12.507813 33.328125 14.042969 35.554688 16.703125 C 35.902344 17.136719 36.417969 17.398438 36.972656 17.429688 C 37.523438 17.460938 38.066406 17.257813 38.460938 16.867188 C 39.179688 16.136719 39.222656 14.980469 38.554688 14.203125 C 35.585938 10.65625 31.195313 8.605469 26.570313 8.605469 C 21.945313 8.605469 17.554688 10.65625 14.585938 14.203125 C 13.917969 14.980469 13.960938 16.136719 14.679688 16.867188 Z "/>
<path style=" stroke:none;fill-rule:nonzero;fill:#ACB7D0;fill-opacity:1;" d="M 5.46875 39.0625 L 48.4375 39.0625 L 43.75 42.96875 L 10.9375 42.96875 Z "/>
<path style=" stroke:none;fill-rule:nonzero;fill:#8D6C9F;fill-opacity:1;" d="M 10.9375 37.5 C 10.507813 37.5 10.15625 37.851563 10.15625 38.28125 L 10.15625 39.84375 C 10.15625 40.273438 10.507813 40.625 10.9375 40.625 C 11.367188 40.625 11.71875 40.273438 11.71875 39.84375 L 11.71875 38.28125 C 11.71875 37.851563 11.367188 37.5 10.9375 37.5 Z "/>
<path style=" stroke:none;fill-rule:nonzero;fill:#8D6C9F;fill-opacity:1;" d="M 14.84375 37.5 C 14.414063 37.5 14.0625 37.851563 14.0625 38.28125 L 14.0625 39.84375 C 14.0625 40.273438 14.414063 40.625 14.84375 40.625 C 15.273438 40.625 15.625 40.273438 15.625 39.84375 L 15.625 38.28125 C 15.625 37.851563 15.273438 37.5 14.84375 37.5 Z "/>
<path style=" stroke:none;fill-rule:nonzero;fill:#8D6C9F;fill-opacity:1;" d="M 18.75 37.5 C 18.320313 37.5 17.96875 37.851563 17.96875 38.28125 L 17.96875 39.84375 C 17.96875 40.273438 18.320313 40.625 18.75 40.625 C 19.179688 40.625 19.53125 40.273438 19.53125 39.84375 L 19.53125 38.28125 C 19.53125 37.851563 19.179688 37.5 18.75 37.5 Z "/>
<path style=" stroke:none;fill-rule:nonzero;fill:#8D6C9F;fill-opacity:1;" d="M 22.65625 37.5 C 22.226563 37.5 21.875 37.851563 21.875 38.28125 L 21.875 39.84375 C 21.875 40.273438 22.226563 40.625 22.65625 40.625 C 23.085938 40.625 23.4375 40.273438 23.4375 39.84375 L 23.4375 38.28125 C 23.4375 37.851563 23.085938 37.5 22.65625 37.5 Z "/>
<path style=" stroke:none;fill-rule:nonzero;fill:#8D6C9F;fill-opacity:1;" d="M 30.46875 37.5 C 30.039063 37.5 29.6875 37.851563 29.6875 38.28125 L 29.6875 39.84375 C 29.6875 40.273438 30.039063 40.625 30.46875 40.625 C 30.898438 40.625 31.25 40.273438 31.25 39.84375 L 31.25 38.28125 C 31.25 37.851563 30.898438 37.5 30.46875 37.5 Z "/>
<path style=" stroke:none;fill-rule:nonzero;fill:#8D6C9F;fill-opacity:1;" d="M 26.5625 37.5 C 26.132813 37.5 25.78125 37.851563 25.78125 38.28125 L 25.78125 39.84375 C 25.78125 40.273438 26.132813 40.625 26.5625 40.625 C 26.992188 40.625 27.34375 40.273438 27.34375 39.84375 L 27.34375 38.28125 C 27.34375 37.851563 26.992188 37.5 26.5625 37.5 Z "/>
<path style=" stroke:none;fill-rule:nonzero;fill:#8D6C9F;fill-opacity:1;" d="M 34.375 37.5 C 33.945313 37.5 33.59375 37.851563 33.59375 38.28125 L 33.59375 39.84375 C 33.59375 40.273438 33.945313 40.625 34.375 40.625 C 34.804688 40.625 35.15625 40.273438 35.15625 39.84375 L 35.15625 38.28125 C 35.15625 37.851563 34.804688 37.5 34.375 37.5 Z "/>
<path style=" stroke:none;fill-rule:nonzero;fill:#8D6C9F;fill-opacity:1;" d="M 14.0625 6.25 C 14.492188 6.25 14.84375 5.898438 14.84375 5.46875 L 14.84375 3.90625 C 14.84375 3.476563 14.492188 3.125 14.0625 3.125 C 13.632813 3.125 13.28125 3.476563 13.28125 3.90625 L 13.28125 5.46875 C 13.28125 5.898438 13.632813 6.25 14.0625 6.25 Z "/>
<path style=" stroke:none;fill-rule:nonzero;fill:#8D6C9F;fill-opacity:1;" d="M 3.125 17.1875 C 3.125 16.757813 2.773438 16.40625 2.34375 16.40625 L 0.78125 16.40625 C 0.351563 16.40625 0 16.757813 0 17.1875 C 0 17.617188 0.351563 17.96875 0.78125 17.96875 L 2.34375 17.96875 C 2.773438 17.96875 3.125 17.617188 3.125 17.1875 Z "/>
<path style=" stroke:none;fill-rule:nonzero;fill:#8D6C9F;fill-opacity:1;" d="M 8.945313 6.617188 C 9.039063 6.894531 9.277344 7.09375 9.5625 7.140625 C 9.847656 7.1875 10.136719 7.070313 10.3125 6.835938 C 10.484375 6.601563 10.515625 6.292969 10.390625 6.03125 L 9.804688 4.585938 C 9.625 4.214844 9.1875 4.042969 8.804688 4.199219 C 8.425781 4.355469 8.226563 4.78125 8.359375 5.171875 Z "/>
<path style=" stroke:none;fill-rule:nonzero;fill:#8D6C9F;fill-opacity:1;" d="M 2.039063 22.882813 L 3.484375 22.296875 C 3.761719 22.203125 3.960938 21.964844 4.007813 21.679688 C 4.054688 21.394531 3.9375 21.105469 3.703125 20.929688 C 3.46875 20.757813 3.160156 20.726563 2.898438 20.851563 L 1.453125 21.4375 C 1.175781 21.53125 0.976563 21.769531 0.929688 22.054688 C 0.882813 22.339844 1 22.628906 1.234375 22.804688 C 1.46875 22.976563 1.777344 23.007813 2.039063 22.882813 Z "/>
<path style=" stroke:none;fill-rule:nonzero;fill:#8D6C9F;fill-opacity:1;" d="M 5.359375 9.296875 C 5.664063 9.570313 6.128906 9.5625 6.421875 9.28125 C 6.71875 8.996094 6.746094 8.535156 6.484375 8.21875 L 5.398438 7.09375 C 5.097656 6.78125 4.605469 6.773438 4.292969 7.074219 C 3.980469 7.375 3.972656 7.867188 4.273438 8.179688 Z "/>
<path style=" stroke:none;fill-rule:nonzero;fill:#8D6C9F;fill-opacity:1;" d="M 1.609375 12.5 L 3.039063 13.132813 C 3.140625 13.179688 3.25 13.203125 3.359375 13.203125 C 3.71875 13.191406 4.023438 12.933594 4.097656 12.582031 C 4.171875 12.230469 3.996094 11.875 3.671875 11.71875 L 2.242188 11.085938 C 1.867188 10.972656 1.464844 11.15625 1.304688 11.515625 C 1.144531 11.875 1.273438 12.292969 1.609375 12.5 Z "/>
<path style=" stroke:none;fill-rule:nonzero;fill:#8D6C9F;fill-opacity:1;" d="M 18.507813 7.195313 C 18.609375 7.242188 18.71875 7.265625 18.828125 7.265625 C 19.132813 7.261719 19.410156 7.078125 19.53125 6.796875 L 20.164063 5.367188 C 20.277344 4.992188 20.09375 4.589844 19.734375 4.429688 C 19.375 4.269531 18.957031 4.398438 18.75 4.734375 L 18.117188 6.164063 C 17.941406 6.558594 18.117188 7.019531 18.507813 7.195313 Z "/>
<path style=" stroke:none;fill-rule:nonzero;fill:#8D6C9F;fill-opacity:1;" d="M 38.28125 37.5 C 37.851563 37.5 37.5 37.851563 37.5 38.28125 L 37.5 39.84375 C 37.5 40.273438 37.851563 40.625 38.28125 40.625 C 38.710938 40.625 39.0625 40.273438 39.0625 39.84375 L 39.0625 38.28125 C 39.0625 37.851563 38.710938 37.5 38.28125 37.5 Z "/>
<path style=" stroke:none;fill-rule:nonzero;fill:#8D6C9F;fill-opacity:1;" d="M 42.1875 37.5 C 41.757813 37.5 41.40625 37.851563 41.40625 38.28125 L 41.40625 39.84375 C 41.40625 40.273438 41.757813 40.625 42.1875 40.625 C 42.617188 40.625 42.96875 40.273438 42.96875 39.84375 L 42.96875 38.28125 C 42.96875 37.851563 42.617188 37.5 42.1875 37.5 Z "/>
<path style=" stroke:none;fill-rule:nonzero;fill:#8D6C9F;fill-opacity:1;" d="M 34.273438 15.382813 C 34.40625 15.222656 34.464844 15.015625 34.445313 14.808594 C 34.421875 14.601563 34.316406 14.410156 34.15625 14.28125 C 33.558594 13.796875 32.914063 13.371094 32.234375 13.007813 C 31.859375 12.839844 31.417969 12.992188 31.226563 13.351563 C 31.03125 13.714844 31.152344 14.164063 31.5 14.382813 C 32.089844 14.699219 32.652344 15.070313 33.171875 15.492188 C 33.332031 15.625 33.539063 15.683594 33.746094 15.664063 C 33.953125 15.640625 34.144531 15.535156 34.273438 15.375 Z "/>
<path style=" stroke:none;fill-rule:nonzero;fill:#8D6C9F;fill-opacity:1;" d="M 29.09375 11.867188 C 26.261719 11.269531 23.308594 11.695313 20.757813 13.0625 C 20.378906 13.277344 20.246094 13.761719 20.460938 14.140625 C 20.675781 14.519531 21.160156 14.652344 21.539063 14.4375 C 23.761719 13.25 26.332031 12.878906 28.796875 13.398438 C 29.226563 13.488281 29.652344 13.210938 29.742188 12.78125 C 29.832031 12.351563 29.554688 11.925781 29.125 11.835938 Z "/>
<path style=" stroke:none;fill-rule:nonzero;fill:#8D6C9F;fill-opacity:1;" d="M 43.039063 25.328125 L 42.96875 25.328125 C 42.703125 25.257813 42.429688 25.21875 42.1875 25.171875 L 42.117188 25.171875 C 42.175781 24.59375 42.199219 24.015625 42.1875 23.4375 C 42.183594 18 39.355469 12.957031 34.71875 10.121094 C 30.082031 7.285156 24.304688 7.0625 19.460938 9.53125 C 17.886719 8.410156 15.996094 7.808594 14.0625 7.8125 C 10.734375 7.8125 7.652344 9.578125 5.972656 12.453125 C 4.289063 15.328125 4.257813 18.878906 5.890625 21.78125 C 1.929688 25.195313 0.511719 30.710938 2.335938 35.609375 C 4.15625 40.507813 8.835938 43.753906 14.0625 43.75 L 40.625 43.75 C 45.316406 43.726563 49.265625 40.242188 49.875 35.59375 C 50.484375 30.941406 47.566406 26.558594 43.039063 25.328125 Z M 6.25 17.1875 C 6.25 12.871094 9.746094 9.375 14.0625 9.375 C 15.433594 9.367188 16.78125 9.726563 17.96875 10.414063 C 15.289063 12.199219 13.222656 14.761719 12.046875 17.757813 C 12.015625 17.796875 11.992188 17.839844 11.96875 17.882813 C 11.828125 18.257813 11.710938 18.664063 11.59375 19.015625 C 10.019531 19.332031 8.519531 19.953125 7.179688 20.835938 C 6.574219 19.714844 6.257813 18.460938 6.25 17.1875 Z M 46.875 39.0625 L 46.875 38.28125 C 46.875 37.851563 46.523438 37.5 46.09375 37.5 C 45.664063 37.5 45.3125 37.851563 45.3125 38.28125 L 45.3125 39.84375 C 45.316406 40.0625 45.410156 40.269531 45.570313 40.414063 C 44.175781 41.558594 42.429688 42.183594 40.625 42.1875 L 14.0625 42.1875 C 11.796875 42.1875 9.585938 41.480469 7.742188 40.164063 C 7.789063 40.0625 7.8125 39.953125 7.8125 39.84375 L 7.8125 38.28125 C 7.8125 37.851563 7.460938 37.5 7.03125 37.5 C 6.601563 37.5 6.25 37.851563 6.25 38.28125 L 6.25 38.890625 C 4.089844 36.683594 2.964844 33.667969 3.152344 30.585938 C 3.339844 27.503906 4.816406 24.644531 7.226563 22.710938 C 7.347656 22.671875 7.453125 22.59375 7.523438 22.484375 C 8.617188 21.671875 9.855469 21.074219 11.171875 20.71875 C 11.015625 21.617188 10.9375 22.527344 10.9375 23.4375 C 10.9375 23.867188 11.289063 24.21875 11.71875 24.21875 C 12.148438 24.21875 12.5 23.867188 12.5 23.4375 C 12.5 22.257813 12.652344 21.082031 12.945313 19.9375 L 12.945313 19.882813 C 13.921875 16.179688 16.355469 13.03125 19.695313 11.15625 L 19.8125 11.085938 C 24.171875 8.699219 29.464844 8.792969 33.738281 11.328125 C 38.011719 13.867188 40.628906 18.46875 40.625 23.4375 C 40.621094 23.960938 40.582031 24.480469 40.515625 25 C 39.839844 25.003906 39.167969 25.078125 38.507813 25.226563 C 38.085938 25.324219 37.824219 25.742188 37.921875 26.164063 C 38.019531 26.585938 38.4375 26.847656 38.859375 26.75 C 39.644531 26.574219 40.453125 26.519531 41.257813 26.585938 C 41.46875 26.585938 41.679688 26.625 41.890625 26.65625 L 41.96875 26.65625 C 44.652344 27.121094 46.902344 28.949219 47.90625 31.480469 C 48.90625 34.015625 48.515625 36.886719 46.875 39.0625 Z "/>
</g>
</svg>
