<?xml version="1.0" encoding="utf-8"?>
<!-- Generator: Adobe Illustrator 24.0.1, SVG Export Plug-In . SVG Version: 6.00 Build 0)  -->
<svg version="1.1" id="Layer_1" xmlns="http://www.w3.org/2000/svg" xmlns:xlink="http://www.w3.org/1999/xlink" x="0px" y="0px"
	 viewBox="0 0 163.2 287.4" style="enable-background:new 0 0 163.2 287.4;" xml:space="preserve">
<style type="text/css">
	.st0{fill:#3BB8BC;}
	.st1{enable-background:new    ;}
	.st2{fill:#FFFFFF;}
</style>
<title>potrait-logo</title>
<g id="Layer_2_1_">
	<g id="Layer_1-2">
		<path class="st0" d="M60.2,194.2c-5.7-2.7-11.3-5.8-16.5-9.3c-10.5-7.1-20.9-14.5-29.7-23.8c-1-1.2-2.7-1.6-4.2-1
			c-4.3,1.4-8.1,6.6-8,11.1s1.9,8.3,4.3,11.9c4.2,6.3,9.8,11.3,15.8,15.7c4.3,3.1,8.9,5.6,13.7,7.7c5,2.1,10.2,3.5,15.7,3.1
			c6.5-0.5,10.2-5.5,11.1-10.9C62.8,196.4,62,195,60.2,194.2z M19.4,178.8c-2,2.8-5.9,3.5-8.7,1.6c-2.7-2.1-3.4-5.9-1.5-8.8
			c2-2.8,5.9-3.4,8.7-1.4C20.6,172.1,21.3,175.9,19.4,178.8C19.4,178.7,19.4,178.8,19.4,178.8z M51.8,202.1
			c-2.1,2.7-5.9,3.4-8.8,1.4c-2.7-2.1-3.3-5.9-1.4-8.8c2-2.8,6-3.4,8.8-1.4S53.9,199.3,51.8,202.1z"/>
		<path class="st0" d="M153.4,101.3c-8.9-25.2-23.7-48-43-66.5C95,20,77,8.2,57.2,0.1c-0.6-0.3-1.4,0-1.7,0.7
			c-0.1,0.2-0.1,0.3-0.1,0.5v50.3c0,0.4,0.2,0.8,0.6,1.1C74.8,64,90.2,80.2,100.7,99.5c0.3,0.6,0.1,1.4-0.5,1.7
			c-0.2,0.1-0.4,0.1-0.6,0.1H1.3c-0.7,0-1.3,0.6-1.3,1.3v42.1c0,0.7,0.6,1.3,1.3,1.3c0.2,0,0.4,0,0.6-0.1c6.7-3.3,14.2-4.8,21.6-4.3
			c1.9,0.2,3.9-0.1,5.7-0.9c3.9-2,7.6-1.8,11.6-0.2c3,1.2,6,2.4,8.8,3.9c0.7,0.5,1.6,0.5,2.4,0c1.1-0.6,2.3-1.1,3.4-1.7
			s2-1.2,3.2-0.2c0.5,0.4,0.9,0,1.2-0.4c2-2.7,3.9-5.5,5.9-8.2c0.7-0.9,0.1-1.6-0.3-2.3c-2.1-4.1-0.5-9.2,3.7-11.3
			c0.3-0.1,0.5-0.2,0.8-0.3c3.2-1.3,6.9-0.4,9.2,2.1c2.4,2.6,2.9,6.3,1.4,9.4c-1.5,3.2-4.9,5.1-8.5,4.6c-1.3-0.3-2.7,0.3-3.3,1.5
			c-1.6,2.3-3.2,4.6-4.9,6.9c-0.5,0.7-0.9,1.4,0.1,2c0.5,0.4,0.7,1.1,0.6,1.7c-0.1,1.2-0.2,2.4-0.5,3.6c-0.5,2,0.4,3.2,1.7,4.5
			c3.1,2.9,5.7,6.1,8,9.6c0.8,1.2,1.2,2.6,1.1,4c0,0.3,0,0.5,0,0.8c-0.3,3.2,0.2,6.4,1.3,9.4c3.2,8.5,4.1,17.3,1.4,26.1
			c-0.8,2.6-1.7,5.1-2.9,7.5c-0.3,0.6-0.1,1.4,0.6,1.7c0.2,0.1,0.4,0.1,0.6,0.1l0,0c0.5,0,0.9-0.3,1.1-0.7c1.4-2.8,2.5-5.7,3.2-8.8
			c0.4-1.7,0.5-1.7,1.9-0.8c0.6,0.5,1.2,0.9,1.8,1.3c2.4,1.1,2.8,3.2,2.8,5.5c0,0.7-0.1,1.4-0.1,2c-0.1,0.7,0.4,1.3,1.1,1.4h0.1h65
			c0.5,0,1-0.3,1.2-0.9c6.3-18.1,9.5-37,9.4-56.2C163.2,138.9,159.9,119.6,153.4,101.3z"/>
		<g class="st1">
			<path class="st2" d="M4.5,263.3v-26c0-1.2,0.4-2.2,1.3-3c0.9-0.8,1.9-1.3,3.1-1.3c1.2,0,2.3,0.4,3.1,1.3c0.9,0.8,1.3,1.8,1.3,3
				v22.5h10.8c1,0,1.9,0.4,2.7,1.2c0.7,0.8,1.1,1.7,1.1,2.8s-0.4,2-1.1,2.8c-0.7,0.8-1.6,1.2-2.7,1.2H8.9c-1.2,0-2.3-0.4-3.1-1.3
				C4.9,265.5,4.5,264.5,4.5,263.3z"/>
			<path class="st2" d="M31.9,263.8v-26.5c0-1.2,0.4-2.2,1.3-3c0.9-0.8,1.9-1.3,3.1-1.3c1.2,0,2.3,0.4,3.1,1.3
				c0.9,0.8,1.3,1.8,1.3,3v26.5c0,1.2-0.4,2.2-1.3,3c-0.9,0.8-1.9,1.3-3.1,1.3s-2.2-0.4-3.1-1.3C32.3,266,31.9,265,31.9,263.8z"/>
			<path class="st2" d="M77.9,237.1v26.2c0,1.3-0.5,2.5-1.5,3.4c-1,0.9-2.2,1.4-3.6,1.4c-1.8,0-3.2-0.7-4.3-2.2l-13.1-17.7v15.9
				c0,1.1-0.4,2-1.2,2.8c-0.8,0.8-1.8,1.2-3,1.2c-1.2,0-2.2-0.4-3-1.2c-0.8-0.8-1.2-1.7-1.2-2.8v-26.3c0-1.3,0.5-2.5,1.5-3.4
				c1-0.9,2.2-1.4,3.6-1.4c1.8,0,3.2,0.7,4.2,2.2L69.5,253v-15.9c0-1.1,0.4-2.1,1.2-2.8c0.8-0.8,1.8-1.2,3-1.2c1.2,0,2.2,0.4,3,1.2
				C77.5,235.1,77.9,236,77.9,237.1z"/>
			<path class="st2" d="M104.2,248.4h7.5c1.3,0,2.2,0.4,2.9,1.2c0.7,0.8,1,1.8,1,3.1v11.2c0,1.2-0.4,2.2-1.2,3
				c-0.8,0.8-1.8,1.2-3.1,1.2c-1.6,0-2.7-0.5-3.5-1.5c-2.3,1-4.8,1.5-7.3,1.5c-5.3,0-9.5-1.5-12.8-4.6s-4.9-7.4-4.9-13
				c0-5,1.8-9.1,5.4-12.5s8-5,13.1-5c2.7,0,5.1,0.3,7.4,1c1,0.3,1.8,0.8,2.4,1.5c0.6,0.7,0.9,1.5,0.9,2.5c0,1.2-0.4,2.1-1.2,2.9
				c-0.8,0.8-1.8,1.2-2.9,1.2c-0.3,0-1.5-0.3-3.4-0.8c-1-0.3-2.1-0.4-3.4-0.4c-2.6,0-4.7,0.9-6.5,2.7c-1.8,1.8-2.6,4.1-2.6,6.8
				c0,2.8,0.8,5.1,2.5,7c1.7,1.8,3.9,2.8,6.6,2.8c2.1,0,4-0.4,5.8-1.2v-2.9h-2.8c-1,0-1.9-0.4-2.7-1.2c-0.7-0.8-1.1-1.7-1.1-2.8
				c0-1.1,0.4-2,1.1-2.8C102.3,248.8,103.1,248.4,104.2,248.4z"/>
			<path class="st2" d="M136.8,260.1c2.3,0,3.9-0.7,5-2.1c0.8-1.1,1.3-2.7,1.3-4.9v-15.9c0-1.2,0.4-2.2,1.3-3
				c0.9-0.8,1.9-1.3,3.1-1.3c1.2,0,2.2,0.4,3.1,1.3c0.9,0.8,1.3,1.8,1.3,3v16.8c0,3.8-1,6.9-3,9.3c-2.7,3.1-6.7,4.7-12,4.7
				c-5.3,0-9.3-1.6-12-4.7c-2-2.4-3-5.5-3-9.3v-16.8c0-1.2,0.4-2.2,1.3-3c0.9-0.8,1.9-1.3,3.1-1.3c1.2,0,2.3,0.4,3.1,1.3
				c0.8,0.8,1.3,1.8,1.3,3v15.9c0,2.2,0.4,3.8,1.3,4.9C133,259.5,134.7,260.1,136.8,260.1z"/>
		</g>
	</g>
</g>
</svg>
