<?xml version="1.0" encoding="UTF-8"?>
<svg xmlns="http://www.w3.org/2000/svg" xmlns:xlink="http://www.w3.org/1999/xlink" width="50pt" height="50pt" viewBox="0 0 50 50" version="1.1">
<g id="surface1">
<path style=" stroke:none;fill-rule:nonzero;fill:#C2CDE7;fill-opacity:1;" d="M 41.085938 19.53125 C 42.742188 11.347656 37.667969 3.308594 29.566406 1.277344 C 21.46875 -0.75 13.203125 3.945313 10.804688 11.945313 C 4.457031 13.167969 0.0898438 19.03125 0.734375 25.460938 C 1.375 31.894531 6.816406 36.777344 13.28125 36.71875 L 40.625 36.71875 C 45.371094 36.847656 49.320313 33.101563 49.449219 28.355469 C 49.578125 23.609375 45.832031 19.660156 41.085938 19.53125 Z "/>
<path style=" stroke:none;fill-rule:nonzero;fill:#D6DFF2;fill-opacity:1;" d="M 13.898438 9.054688 C 14.292969 9.445313 14.835938 9.648438 15.386719 9.617188 C 15.941406 9.585938 16.457031 9.324219 16.804688 8.890625 C 19.03125 6.230469 22.320313 4.695313 25.789063 4.695313 C 29.257813 4.695313 32.546875 6.230469 34.773438 8.890625 C 35.121094 9.324219 35.636719 9.585938 36.191406 9.617188 C 36.742188 9.648438 37.285156 9.445313 37.679688 9.054688 C 38.398438 8.324219 38.441406 7.167969 37.773438 6.390625 C 34.804688 2.84375 30.414063 0.792969 25.789063 0.792969 C 21.164063 0.792969 16.773438 2.84375 13.804688 6.390625 C 13.136719 7.167969 13.179688 8.324219 13.898438 9.054688 Z "/>
<path style=" stroke:none;fill-rule:nonzero;fill:#ACB7D0;fill-opacity:1;" d="M 4.6875 32.8125 L 47.65625 32.8125 L 42.96875 36.71875 L 10.15625 36.71875 Z "/>
<path style=" stroke:none;fill-rule:nonzero;fill:#8D6C9F;fill-opacity:1;" d="M 44.007813 19.40625 C 43.972656 19.378906 43.933594 19.355469 43.890625 19.335938 C 43.355469 19.144531 42.804688 19.003906 42.242188 18.914063 L 42 18.867188 C 42.664063 14.507813 41.542969 10.0625 38.890625 6.539063 C 36.238281 3.011719 32.28125 0.703125 27.90625 0.132813 C 20.617188 -0.804688 13.59375 3.222656 10.71875 9.984375 C 10.570313 10.335938 10.453125 10.695313 10.328125 11.054688 C 10.328125 11.125 10.273438 11.195313 10.25 11.265625 C 3.960938 12.761719 -0.355469 18.542969 0 25 C 0.507813 32.128906 6.5 37.617188 13.648438 37.5 L 15.515625 37.5 L 12.601563 42.578125 C 12.449219 42.820313 12.4375 43.128906 12.578125 43.378906 C 12.71875 43.628906 12.984375 43.78125 13.269531 43.777344 C 13.558594 43.773438 13.820313 43.613281 13.953125 43.359375 L 17.3125 37.5 L 22.929688 37.5 L 16.101563 48.015625 C 15.867188 48.378906 15.96875 48.863281 16.332031 49.097656 C 16.695313 49.332031 17.179688 49.230469 17.414063 48.867188 L 24.796875 37.5 L 28.796875 37.5 L 24.109375 45.703125 C 23.957031 45.945313 23.945313 46.253906 24.085938 46.503906 C 24.226563 46.753906 24.492188 46.90625 24.777344 46.902344 C 25.066406 46.898438 25.328125 46.738281 25.460938 46.484375 L 30.59375 37.5 L 34.742188 37.5 L 32.398438 41.578125 C 32.203125 41.949219 32.335938 42.40625 32.699219 42.617188 C 33.0625 42.824219 33.527344 42.710938 33.75 42.359375 L 36.546875 37.5 L 40.359375 37.5 C 45.460938 37.53125 49.691406 33.566406 50 28.476563 C 50.125 24.488281 47.722656 20.855469 44.007813 19.40625 Z M 46.09375 33.59375 L 46.09375 32.03125 C 46.09375 31.601563 45.742188 31.25 45.3125 31.25 C 44.882813 31.25 44.53125 31.601563 44.53125 32.03125 L 44.53125 33.59375 C 44.527344 33.984375 44.808594 34.316406 45.195313 34.375 C 43.789063 35.394531 42.097656 35.941406 40.359375 35.9375 L 36.25 35.9375 C 36.160156 35.921875 36.074219 35.921875 35.984375 35.9375 L 13.648438 35.9375 C 11.265625 35.945313 8.929688 35.257813 6.929688 33.960938 C 6.992188 33.847656 7.027344 33.722656 7.03125 33.59375 L 7.03125 32.03125 C 7.03125 31.601563 6.679688 31.25 6.25 31.25 C 5.820313 31.25 5.46875 31.601563 5.46875 32.03125 L 5.46875 32.8125 C 3.152344 30.785156 1.746094 27.914063 1.5625 24.84375 C 1.3125 19.523438 4.65625 14.695313 9.726563 13.0625 C 9.496094 14.164063 9.378906 15.28125 9.375 16.40625 C 9.375 16.835938 9.726563 17.1875 10.15625 17.1875 C 10.585938 17.1875 10.9375 16.835938 10.9375 16.40625 C 10.9375 14.984375 11.144531 13.566406 11.546875 12.203125 C 11.632813 11.90625 11.742188 11.617188 11.84375 11.335938 C 11.890625 11.203125 11.9375 11.0625 11.992188 10.929688 C 14.234375 5.277344 19.699219 1.566406 25.78125 1.5625 C 26.417969 1.5625 27.054688 1.601563 27.6875 1.679688 C 34.316406 2.5625 39.550781 7.746094 40.5 14.367188 C 40.691406 15.824219 40.671875 17.300781 40.4375 18.75 C 39.957031 18.753906 39.480469 18.796875 39.007813 18.875 C 38.578125 18.949219 38.289063 19.363281 38.363281 19.792969 C 38.4375 20.222656 38.851563 20.511719 39.28125 20.4375 C 39.878906 20.324219 40.488281 20.285156 41.09375 20.3125 C 41.304688 20.3125 41.515625 20.3125 41.71875 20.375 L 41.953125 20.375 C 45.832031 21.039063 48.613281 24.488281 48.4375 28.421875 C 48.351563 30.382813 47.511719 32.234375 46.09375 33.59375 Z "/>
<path style=" stroke:none;fill-rule:nonzero;fill:#8D6C9F;fill-opacity:1;" d="M 33.765625 7.8125 C 33.898438 7.652344 33.957031 7.445313 33.9375 7.238281 C 33.914063 7.03125 33.808594 6.839844 33.648438 6.710938 C 33.03125 6.210938 32.371094 5.773438 31.671875 5.398438 C 31.289063 5.195313 30.816406 5.339844 30.613281 5.722656 C 30.410156 6.105469 30.554688 6.578125 30.9375 6.78125 C 31.546875 7.109375 32.125 7.492188 32.664063 7.929688 C 32.824219 8.0625 33.03125 8.121094 33.238281 8.101563 C 33.445313 8.078125 33.636719 7.972656 33.765625 7.8125 Z "/>
<path style=" stroke:none;fill-rule:nonzero;fill:#8D6C9F;fill-opacity:1;" d="M 28.429688 4.1875 C 25.511719 3.570313 22.464844 4.003906 19.835938 5.414063 C 19.457031 5.628906 19.324219 6.113281 19.539063 6.492188 C 19.753906 6.871094 20.238281 7.003906 20.617188 6.789063 C 22.914063 5.558594 25.574219 5.179688 28.125 5.710938 C 28.554688 5.800781 28.980469 5.523438 29.070313 5.09375 C 29.160156 4.664063 28.882813 4.238281 28.453125 4.148438 Z "/>
<path style=" stroke:none;fill-rule:nonzero;fill:#8D6C9F;fill-opacity:1;" d="M 10.15625 31.25 C 9.726563 31.25 9.375 31.601563 9.375 32.03125 L 9.375 33.59375 C 9.375 34.023438 9.726563 34.375 10.15625 34.375 C 10.585938 34.375 10.9375 34.023438 10.9375 33.59375 L 10.9375 32.03125 C 10.9375 31.601563 10.585938 31.25 10.15625 31.25 Z "/>
<path style=" stroke:none;fill-rule:nonzero;fill:#8D6C9F;fill-opacity:1;" d="M 14.0625 31.25 C 13.632813 31.25 13.28125 31.601563 13.28125 32.03125 L 13.28125 33.59375 C 13.28125 34.023438 13.632813 34.375 14.0625 34.375 C 14.492188 34.375 14.84375 34.023438 14.84375 33.59375 L 14.84375 32.03125 C 14.84375 31.601563 14.492188 31.25 14.0625 31.25 Z "/>
<path style=" stroke:none;fill-rule:nonzero;fill:#8D6C9F;fill-opacity:1;" d="M 21.875 31.25 C 21.445313 31.25 21.09375 31.601563 21.09375 32.03125 L 21.09375 33.59375 C 21.09375 34.023438 21.445313 34.375 21.875 34.375 C 22.304688 34.375 22.65625 34.023438 22.65625 33.59375 L 22.65625 32.03125 C 22.65625 31.601563 22.304688 31.25 21.875 31.25 Z "/>
<path style=" stroke:none;fill-rule:nonzero;fill:#8D6C9F;fill-opacity:1;" d="M 18.75 32.03125 C 18.75 31.601563 18.398438 31.25 17.96875 31.25 C 17.539063 31.25 17.1875 31.601563 17.1875 32.03125 L 17.1875 33.59375 C 17.1875 34.023438 17.539063 34.375 17.96875 34.375 C 18.398438 34.375 18.75 34.023438 18.75 33.59375 Z "/>
<path style=" stroke:none;fill-rule:nonzero;fill:#8D6C9F;fill-opacity:1;" d="M 29.6875 31.25 C 29.257813 31.25 28.90625 31.601563 28.90625 32.03125 L 28.90625 33.59375 C 28.90625 34.023438 29.257813 34.375 29.6875 34.375 C 30.117188 34.375 30.46875 34.023438 30.46875 33.59375 L 30.46875 32.03125 C 30.46875 31.601563 30.117188 31.25 29.6875 31.25 Z "/>
<path style=" stroke:none;fill-rule:nonzero;fill:#8D6C9F;fill-opacity:1;" d="M 26.5625 32.03125 C 26.5625 31.601563 26.210938 31.25 25.78125 31.25 C 25.351563 31.25 25 31.601563 25 32.03125 L 25 33.59375 C 25 34.023438 25.351563 34.375 25.78125 34.375 C 26.210938 34.375 26.5625 34.023438 26.5625 33.59375 Z "/>
<path style=" stroke:none;fill-rule:nonzero;fill:#8D6C9F;fill-opacity:1;" d="M 33.59375 31.25 C 33.164063 31.25 32.8125 31.601563 32.8125 32.03125 L 32.8125 33.59375 C 32.8125 34.023438 33.164063 34.375 33.59375 34.375 C 34.023438 34.375 34.375 34.023438 34.375 33.59375 L 34.375 32.03125 C 34.375 31.601563 34.023438 31.25 33.59375 31.25 Z "/>
<path style=" stroke:none;fill-rule:nonzero;fill:#8D6C9F;fill-opacity:1;" d="M 41.40625 31.25 C 40.976563 31.25 40.625 31.601563 40.625 32.03125 L 40.625 33.59375 C 40.625 34.023438 40.976563 34.375 41.40625 34.375 C 41.835938 34.375 42.1875 34.023438 42.1875 33.59375 L 42.1875 32.03125 C 42.1875 31.601563 41.835938 31.25 41.40625 31.25 Z "/>
<path style=" stroke:none;fill-rule:nonzero;fill:#8D6C9F;fill-opacity:1;" d="M 37.5 31.25 C 37.070313 31.25 36.71875 31.601563 36.71875 32.03125 L 36.71875 33.59375 C 36.71875 34.023438 37.070313 34.375 37.5 34.375 C 37.929688 34.375 38.28125 34.023438 38.28125 33.59375 L 38.28125 32.03125 C 38.28125 31.601563 37.929688 31.25 37.5 31.25 Z "/>
<path style=" stroke:none;fill-rule:nonzero;fill:#8D6C9F;fill-opacity:1;" d="M 8.953125 41.515625 C 8.773438 41.410156 8.558594 41.382813 8.359375 41.4375 C 8.15625 41.492188 7.984375 41.625 7.882813 41.804688 L 5.210938 46.445313 C 5.015625 46.816406 5.148438 47.273438 5.511719 47.484375 C 5.875 47.691406 6.339844 47.578125 6.5625 47.226563 L 9.242188 42.585938 C 9.347656 42.40625 9.375 42.191406 9.320313 41.992188 C 9.265625 41.789063 9.132813 41.617188 8.953125 41.515625 Z "/>
<path style=" stroke:none;fill-rule:nonzero;fill:#8D6C9F;fill-opacity:1;" d="M 6.25 40.273438 C 6.53125 40.273438 6.789063 40.125 6.929688 39.882813 L 7.710938 38.53125 C 7.863281 38.289063 7.875 37.980469 7.734375 37.730469 C 7.59375 37.480469 7.328125 37.328125 7.042969 37.332031 C 6.753906 37.335938 6.492188 37.496094 6.359375 37.75 L 5.546875 39.0625 C 5.382813 39.308594 5.375 39.628906 5.523438 39.886719 C 5.671875 40.144531 5.953125 40.292969 6.25 40.273438 Z "/>
<path style=" stroke:none;fill-rule:nonzero;fill:#8D6C9F;fill-opacity:1;" d="M 41.742188 39.90625 C 41.5625 39.800781 41.347656 39.773438 41.148438 39.828125 C 40.945313 39.882813 40.773438 40.015625 40.671875 40.195313 L 38.328125 44.257813 C 38.132813 44.628906 38.265625 45.085938 38.628906 45.296875 C 38.992188 45.503906 39.457031 45.390625 39.679688 45.039063 L 42.023438 40.976563 C 42.128906 40.796875 42.15625 40.582031 42.105469 40.382813 C 42.050781 40.183594 41.921875 40.011719 41.742188 39.90625 Z "/>
<path style=" stroke:none;fill-rule:nonzero;fill:#8D6C9F;fill-opacity:1;" d="M 38.140625 46.15625 C 37.960938 46.050781 37.746094 46.023438 37.546875 46.078125 C 37.34375 46.132813 37.171875 46.265625 37.070313 46.445313 L 36.679688 47.125 C 36.484375 47.496094 36.617188 47.953125 36.980469 48.164063 C 37.34375 48.371094 37.808594 48.257813 38.03125 47.90625 L 38.421875 47.226563 C 38.527344 47.046875 38.554688 46.832031 38.503906 46.632813 C 38.449219 46.433594 38.320313 46.261719 38.140625 46.15625 Z "/>
<path style=" stroke:none;fill-rule:nonzero;fill:#8D6C9F;fill-opacity:1;" d="M 32.164063 44.148438 C 31.984375 44.042969 31.769531 44.015625 31.570313 44.070313 C 31.367188 44.125 31.195313 44.257813 31.09375 44.4375 L 30.25 45.90625 C 30.054688 46.277344 30.1875 46.734375 30.550781 46.945313 C 30.914063 47.152344 31.378906 47.039063 31.601563 46.6875 L 32.445313 45.21875 C 32.550781 45.039063 32.578125 44.824219 32.527344 44.625 C 32.472656 44.425781 32.34375 44.253906 32.164063 44.148438 Z "/>
</g>
</svg>
