<?xml version="1.0" encoding="UTF-8"?>
<svg xmlns="http://www.w3.org/2000/svg" xmlns:xlink="http://www.w3.org/1999/xlink" width="50pt" height="50pt" viewBox="0 0 50 50" version="1.1">
<g id="surface1">
<path style=" stroke:none;fill-rule:nonzero;fill:#9FDDFF;fill-opacity:1;" d="M 29.765625 44.53125 L 25.78125 49.296875 L 21.796875 44.53125 L 25.78125 39.765625 Z "/>
<path style=" stroke:none;fill-rule:nonzero;fill:#C7EEFF;fill-opacity:1;" d="M 25.78125 49.296875 L 21.796875 44.53125 L 25.78125 39.765625 Z "/>
<path style=" stroke:none;fill-rule:nonzero;fill:#9FDDFF;fill-opacity:1;" d="M 40.703125 42.96875 L 37.5 46.953125 L 34.296875 42.96875 L 37.5 38.984375 Z "/>
<path style=" stroke:none;fill-rule:nonzero;fill:#C7EEFF;fill-opacity:1;" d="M 37.5 46.953125 L 34.296875 42.96875 L 37.5 38.984375 Z "/>
<path style=" stroke:none;fill-rule:nonzero;fill:#9FDDFF;fill-opacity:1;" d="M 17.265625 42.96875 L 14.0625 46.953125 L 10.859375 42.96875 L 14.0625 38.984375 Z "/>
<path style=" stroke:none;fill-rule:nonzero;fill:#C7EEFF;fill-opacity:1;" d="M 14.0625 46.953125 L 10.859375 42.96875 L 14.0625 38.984375 Z "/>
<path style=" stroke:none;fill-rule:nonzero;fill:#C2CDE7;fill-opacity:1;" d="M 41.09375 19.53125 C 42.8125 11.09375 37.34375 2.8125 28.90625 1.09375 C 21.015625 -0.46875 13.125 4.21875 10.859375 11.953125 C 4.0625 13.28125 -0.390625 19.84375 0.859375 26.5625 C 2.03125 32.5 7.1875 36.71875 13.28125 36.71875 L 40.625 36.71875 C 45.390625 36.875 49.296875 33.125 49.453125 28.359375 C 49.609375 23.59375 45.859375 19.6875 41.09375 19.53125 Z "/>
<path style=" stroke:none;fill-rule:nonzero;fill:#D6DFF2;fill-opacity:1;" d="M 13.90625 9.0625 C 14.6875 9.84375 15.9375 9.84375 16.640625 9.0625 C 16.71875 8.984375 16.71875 8.984375 16.796875 8.90625 C 20.9375 3.90625 28.359375 3.28125 33.28125 7.421875 C 33.828125 7.890625 34.296875 8.359375 34.765625 8.90625 C 35.46875 9.765625 36.640625 9.84375 37.5 9.21875 C 37.578125 9.140625 37.578125 9.140625 37.65625 9.0625 C 38.359375 8.359375 38.4375 7.1875 37.734375 6.40625 C 32.1875 -0.234375 22.34375 -1.09375 15.703125 4.453125 C 15 5.078125 14.375 5.703125 13.75 6.40625 C 13.125 7.1875 13.203125 8.359375 13.90625 9.0625 Z "/>
<path style=" stroke:none;fill-rule:nonzero;fill:#ACB7D0;fill-opacity:1;" d="M 4.6875 32.8125 L 47.65625 32.8125 L 42.96875 36.71875 L 10.15625 36.71875 Z "/>
<path style=" stroke:none;fill-rule:nonzero;fill:#8D6C9F;fill-opacity:1;" d="M 10.15625 31.25 C 9.6875 31.25 9.375 31.5625 9.375 32.03125 L 9.375 33.59375 C 9.375 34.0625 9.6875 34.375 10.15625 34.375 C 10.625 34.375 10.9375 34.0625 10.9375 33.59375 L 10.9375 32.03125 C 10.9375 31.5625 10.625 31.25 10.15625 31.25 Z "/>
<path style=" stroke:none;fill-rule:nonzero;fill:#8D6C9F;fill-opacity:1;" d="M 14.0625 31.25 C 13.59375 31.25 13.28125 31.5625 13.28125 32.03125 L 13.28125 33.59375 C 13.28125 34.0625 13.59375 34.375 14.0625 34.375 C 14.53125 34.375 14.84375 34.0625 14.84375 33.59375 L 14.84375 32.03125 C 14.84375 31.5625 14.53125 31.25 14.0625 31.25 Z "/>
<path style=" stroke:none;fill-rule:nonzero;fill:#8D6C9F;fill-opacity:1;" d="M 21.875 31.25 C 21.40625 31.25 21.09375 31.5625 21.09375 32.03125 L 21.09375 33.59375 C 21.09375 34.0625 21.40625 34.375 21.875 34.375 C 22.34375 34.375 22.65625 34.0625 22.65625 33.59375 L 22.65625 32.03125 C 22.65625 31.5625 22.34375 31.25 21.875 31.25 Z "/>
<path style=" stroke:none;fill-rule:nonzero;fill:#8D6C9F;fill-opacity:1;" d="M 17.96875 31.25 C 17.5 31.25 17.1875 31.5625 17.1875 32.03125 L 17.1875 33.59375 C 17.1875 34.0625 17.5 34.375 17.96875 34.375 C 18.4375 34.375 18.75 34.0625 18.75 33.59375 L 18.75 32.03125 C 18.75 31.5625 18.4375 31.25 17.96875 31.25 Z "/>
<path style=" stroke:none;fill-rule:nonzero;fill:#8D6C9F;fill-opacity:1;" d="M 29.6875 31.25 C 29.21875 31.25 28.90625 31.5625 28.90625 32.03125 L 28.90625 33.59375 C 28.90625 34.0625 29.21875 34.375 29.6875 34.375 C 30.15625 34.375 30.46875 34.0625 30.46875 33.59375 L 30.46875 32.03125 C 30.46875 31.5625 30.15625 31.25 29.6875 31.25 Z "/>
<path style=" stroke:none;fill-rule:nonzero;fill:#8D6C9F;fill-opacity:1;" d="M 25.78125 31.25 C 25.3125 31.25 25 31.5625 25 32.03125 L 25 33.59375 C 25 34.0625 25.3125 34.375 25.78125 34.375 C 26.25 34.375 26.5625 34.0625 26.5625 33.59375 L 26.5625 32.03125 C 26.5625 31.5625 26.25 31.25 25.78125 31.25 Z "/>
<path style=" stroke:none;fill-rule:nonzero;fill:#8D6C9F;fill-opacity:1;" d="M 33.59375 31.25 C 33.125 31.25 32.8125 31.5625 32.8125 32.03125 L 32.8125 33.59375 C 32.8125 34.0625 33.125 34.375 33.59375 34.375 C 34.0625 34.375 34.375 34.0625 34.375 33.59375 L 34.375 32.03125 C 34.375 31.5625 34.0625 31.25 33.59375 31.25 Z "/>
<path style=" stroke:none;fill-rule:nonzero;fill:#8D6C9F;fill-opacity:1;" d="M 41.40625 31.25 C 40.9375 31.25 40.625 31.5625 40.625 32.03125 L 40.625 33.59375 C 40.625 34.0625 40.9375 34.375 41.40625 34.375 C 41.875 34.375 42.1875 34.0625 42.1875 33.59375 L 42.1875 32.03125 C 42.1875 31.5625 41.875 31.25 41.40625 31.25 Z "/>
<path style=" stroke:none;fill-rule:nonzero;fill:#8D6C9F;fill-opacity:1;" d="M 37.5 31.25 C 37.03125 31.25 36.71875 31.5625 36.71875 32.03125 L 36.71875 33.59375 C 36.71875 34.0625 37.03125 34.375 37.5 34.375 C 37.96875 34.375 38.28125 34.0625 38.28125 33.59375 L 38.28125 32.03125 C 38.28125 31.5625 37.96875 31.25 37.5 31.25 Z "/>
<path style=" stroke:none;fill-rule:nonzero;fill:#8D6C9F;fill-opacity:1;" d="M 43.984375 19.375 C 43.984375 19.375 43.90625 19.296875 43.90625 19.296875 C 43.359375 19.140625 42.8125 18.984375 42.265625 18.90625 L 42.03125 18.828125 C 42.265625 17.265625 42.265625 15.703125 42.03125 14.140625 C 40.78125 5.234375 32.5 -1.09375 23.515625 0.15625 C 17.8125 0.9375 12.890625 4.6875 10.625 10 C 10.46875 10.3125 10.390625 10.703125 10.234375 11.015625 C 10.234375 11.09375 10.15625 11.171875 10.15625 11.25 C 3.90625 12.8125 -0.390625 18.59375 0 25 C 0.546875 32.109375 6.484375 37.578125 13.671875 37.5 L 40.390625 37.5 C 45.46875 37.5 49.765625 33.59375 50 28.515625 C 50.15625 24.453125 47.734375 20.859375 43.984375 19.375 Z M 46.09375 33.59375 L 46.09375 32.03125 C 46.09375 31.5625 45.78125 31.25 45.3125 31.25 C 44.84375 31.25 44.53125 31.5625 44.53125 32.03125 L 44.53125 33.59375 C 44.53125 33.984375 44.84375 34.296875 45.15625 34.375 C 43.75 35.390625 42.03125 35.9375 40.3125 35.9375 L 13.671875 35.9375 C 11.328125 35.9375 8.984375 35.234375 6.953125 33.984375 C 6.953125 33.828125 7.03125 33.75 7.03125 33.59375 L 7.03125 32.03125 C 7.03125 31.5625 6.71875 31.25 6.25 31.25 C 5.78125 31.25 5.46875 31.5625 5.46875 32.03125 L 5.46875 32.8125 C 3.125 30.78125 1.71875 27.96875 1.5625 24.84375 C 1.328125 19.53125 4.609375 14.6875 9.6875 13.046875 C 9.453125 14.140625 9.375 15.3125 9.375 16.40625 C 9.375 16.875 9.6875 17.1875 10.15625 17.1875 C 10.625 17.1875 10.9375 16.875 10.9375 16.40625 C 10.9375 15 11.171875 13.59375 11.5625 12.1875 C 11.640625 11.875 11.71875 11.640625 11.875 11.328125 C 11.953125 11.171875 11.953125 11.015625 12.03125 10.9375 C 14.21875 5.3125 19.6875 1.5625 25.78125 1.5625 C 26.40625 1.5625 27.03125 1.5625 27.65625 1.71875 C 34.296875 2.578125 39.53125 7.8125 40.46875 14.375 C 40.625 15.859375 40.625 17.34375 40.390625 18.75 C 39.921875 18.75 39.453125 18.828125 38.984375 18.90625 C 38.515625 18.984375 38.28125 19.375 38.359375 19.84375 C 38.4375 20.3125 38.828125 20.546875 39.296875 20.46875 C 39.84375 20.3125 40.46875 20.3125 41.09375 20.3125 C 41.328125 20.3125 41.484375 20.3125 41.71875 20.390625 L 41.953125 20.390625 C 45.859375 21.09375 48.59375 24.53125 48.4375 28.4375 C 48.359375 30.390625 47.5 32.265625 46.09375 33.59375 Z "/>
<path style=" stroke:none;fill-rule:nonzero;fill:#8D6C9F;fill-opacity:1;" d="M 33.75 7.8125 C 33.984375 7.5 33.984375 6.953125 33.671875 6.71875 C 33.046875 6.25 32.421875 5.78125 31.71875 5.390625 C 31.328125 5.15625 30.859375 5.234375 30.625 5.625 C 30.390625 6.015625 30.46875 6.484375 30.859375 6.71875 C 30.859375 6.71875 30.9375 6.71875 30.9375 6.796875 C 31.5625 7.109375 32.109375 7.5 32.65625 7.96875 C 32.96875 8.203125 33.515625 8.125 33.75 7.8125 Z "/>
<path style=" stroke:none;fill-rule:nonzero;fill:#8D6C9F;fill-opacity:1;" d="M 28.4375 4.21875 C 25.546875 3.59375 22.5 4.0625 19.84375 5.46875 C 19.453125 5.703125 19.296875 6.171875 19.53125 6.5625 C 19.765625 6.953125 20.234375 7.109375 20.625 6.875 C 22.890625 5.625 25.625 5.234375 28.125 5.78125 C 28.59375 5.859375 28.984375 5.625 29.0625 5.15625 C 29.140625 4.6875 28.90625 4.21875 28.4375 4.21875 Z "/>
<path style=" stroke:none;fill-rule:nonzero;fill:#8D6C9F;fill-opacity:1;" d="M 25.78125 50.078125 C 25.546875 50.078125 25.3125 50 25.15625 49.765625 L 21.171875 45 C 20.9375 44.6875 20.9375 44.296875 21.171875 43.984375 L 25.15625 39.21875 C 25.46875 38.828125 26.09375 38.828125 26.328125 39.21875 L 30.3125 43.984375 C 30.546875 44.296875 30.546875 44.6875 30.3125 45 L 26.328125 49.765625 C 26.25 49.921875 26.015625 50.078125 25.78125 50.078125 Z M 22.8125 44.53125 L 25.78125 48.046875 L 28.75 44.53125 L 25.78125 41.015625 Z "/>
<path style=" stroke:none;fill-rule:nonzero;fill:#8D6C9F;fill-opacity:1;" d="M 37.5 47.734375 C 37.265625 47.734375 37.03125 47.65625 36.875 47.421875 L 33.671875 43.4375 C 33.4375 43.125 33.4375 42.734375 33.671875 42.421875 L 36.875 38.4375 C 37.1875 38.046875 37.8125 38.046875 38.125 38.4375 L 41.328125 42.421875 C 41.5625 42.734375 41.5625 43.125 41.328125 43.4375 L 38.125 47.421875 C 37.96875 47.578125 37.734375 47.734375 37.5 47.734375 Z M 35.3125 42.96875 L 37.5 45.703125 L 39.6875 42.96875 L 37.5 40.234375 Z "/>
<path style=" stroke:none;fill-rule:nonzero;fill:#8D6C9F;fill-opacity:1;" d="M 14.0625 47.734375 C 13.828125 47.734375 13.59375 47.65625 13.4375 47.421875 L 10.234375 43.4375 C 10 43.125 10 42.734375 10.234375 42.421875 L 13.4375 38.4375 C 13.75 38.046875 14.375 38.046875 14.6875 38.4375 L 17.890625 42.421875 C 18.125 42.734375 18.125 43.125 17.890625 43.4375 L 14.6875 47.421875 C 14.53125 47.578125 14.296875 47.734375 14.0625 47.734375 Z M 11.875 42.96875 L 14.0625 45.703125 L 16.25 42.96875 L 14.0625 40.234375 Z "/>
</g>
</svg>
