<?xml version="1.0" encoding="UTF-8"?>
<svg xmlns="http://www.w3.org/2000/svg" xmlns:xlink="http://www.w3.org/1999/xlink" width="50pt" height="50pt" viewBox="0 0 50 50" version="1.1">
<g id="surface1">
<path style=" stroke:none;fill-rule:nonzero;fill:#C2CDE7;fill-opacity:1;" d="M 41.085938 19.53125 C 42.742188 11.347656 37.667969 3.308594 29.566406 1.277344 C 21.46875 -0.75 13.203125 3.945313 10.804688 11.945313 C 4.457031 13.167969 0.0898438 19.03125 0.734375 25.460938 C 1.375 31.894531 6.816406 36.777344 13.28125 36.71875 L 40.625 36.71875 C 45.371094 36.847656 49.320313 33.101563 49.449219 28.355469 C 49.578125 23.609375 45.832031 19.660156 41.085938 19.53125 Z "/>
<path style=" stroke:none;fill-rule:nonzero;fill:#D6DFF2;fill-opacity:1;" d="M 13.898438 9.054688 C 14.292969 9.445313 14.835938 9.648438 15.386719 9.617188 C 15.941406 9.585938 16.457031 9.324219 16.804688 8.890625 C 19.03125 6.230469 22.320313 4.695313 25.789063 4.695313 C 29.257813 4.695313 32.546875 6.230469 34.773438 8.890625 C 35.121094 9.324219 35.636719 9.585938 36.191406 9.617188 C 36.742188 9.648438 37.285156 9.445313 37.679688 9.054688 C 38.398438 8.324219 38.441406 7.167969 37.773438 6.390625 C 34.804688 2.84375 30.414063 0.792969 25.789063 0.792969 C 21.164063 0.792969 16.773438 2.84375 13.804688 6.390625 C 13.136719 7.167969 13.179688 8.324219 13.898438 9.054688 Z "/>
<path style=" stroke:none;fill-rule:nonzero;fill:#ACB7D0;fill-opacity:1;" d="M 4.6875 32.8125 L 47.65625 32.8125 L 42.96875 36.71875 L 10.15625 36.71875 Z "/>
<path style=" stroke:none;fill-rule:nonzero;fill:#8D6C9F;fill-opacity:1;" d="M 10.15625 31.25 C 9.726563 31.25 9.375 31.601563 9.375 32.03125 L 9.375 33.59375 C 9.375 34.023438 9.726563 34.375 10.15625 34.375 C 10.585938 34.375 10.9375 34.023438 10.9375 33.59375 L 10.9375 32.03125 C 10.9375 31.601563 10.585938 31.25 10.15625 31.25 Z "/>
<path style=" stroke:none;fill-rule:nonzero;fill:#8D6C9F;fill-opacity:1;" d="M 14.0625 31.25 C 13.632813 31.25 13.28125 31.601563 13.28125 32.03125 L 13.28125 33.59375 C 13.28125 34.023438 13.632813 34.375 14.0625 34.375 C 14.492188 34.375 14.84375 34.023438 14.84375 33.59375 L 14.84375 32.03125 C 14.84375 31.601563 14.492188 31.25 14.0625 31.25 Z "/>
<path style=" stroke:none;fill-rule:nonzero;fill:#8D6C9F;fill-opacity:1;" d="M 21.875 31.25 C 21.445313 31.25 21.09375 31.601563 21.09375 32.03125 L 21.09375 33.59375 C 21.09375 34.023438 21.445313 34.375 21.875 34.375 C 22.304688 34.375 22.65625 34.023438 22.65625 33.59375 L 22.65625 32.03125 C 22.65625 31.601563 22.304688 31.25 21.875 31.25 Z "/>
<path style=" stroke:none;fill-rule:nonzero;fill:#8D6C9F;fill-opacity:1;" d="M 17.96875 31.25 C 17.539063 31.25 17.1875 31.601563 17.1875 32.03125 L 17.1875 33.59375 C 17.1875 34.023438 17.539063 34.375 17.96875 34.375 C 18.398438 34.375 18.75 34.023438 18.75 33.59375 L 18.75 32.03125 C 18.75 31.601563 18.398438 31.25 17.96875 31.25 Z "/>
<path style=" stroke:none;fill-rule:nonzero;fill:#8D6C9F;fill-opacity:1;" d="M 29.6875 31.25 C 29.257813 31.25 28.90625 31.601563 28.90625 32.03125 L 28.90625 33.59375 C 28.90625 34.023438 29.257813 34.375 29.6875 34.375 C 30.117188 34.375 30.46875 34.023438 30.46875 33.59375 L 30.46875 32.03125 C 30.46875 31.601563 30.117188 31.25 29.6875 31.25 Z "/>
<path style=" stroke:none;fill-rule:nonzero;fill:#8D6C9F;fill-opacity:1;" d="M 25.78125 31.25 C 25.351563 31.25 25 31.601563 25 32.03125 L 25 33.59375 C 25 34.023438 25.351563 34.375 25.78125 34.375 C 26.210938 34.375 26.5625 34.023438 26.5625 33.59375 L 26.5625 32.03125 C 26.5625 31.601563 26.210938 31.25 25.78125 31.25 Z "/>
<path style=" stroke:none;fill-rule:nonzero;fill:#8D6C9F;fill-opacity:1;" d="M 33.59375 31.25 C 33.164063 31.25 32.8125 31.601563 32.8125 32.03125 L 32.8125 33.59375 C 32.8125 34.023438 33.164063 34.375 33.59375 34.375 C 34.023438 34.375 34.375 34.023438 34.375 33.59375 L 34.375 32.03125 C 34.375 31.601563 34.023438 31.25 33.59375 31.25 Z "/>
<path style=" stroke:none;fill-rule:nonzero;fill:#8D6C9F;fill-opacity:1;" d="M 41.40625 31.25 C 40.976563 31.25 40.625 31.601563 40.625 32.03125 L 40.625 33.59375 C 40.625 34.023438 40.976563 34.375 41.40625 34.375 C 41.835938 34.375 42.1875 34.023438 42.1875 33.59375 L 42.1875 32.03125 C 42.1875 31.601563 41.835938 31.25 41.40625 31.25 Z "/>
<path style=" stroke:none;fill-rule:nonzero;fill:#8D6C9F;fill-opacity:1;" d="M 37.5 31.25 C 37.070313 31.25 36.71875 31.601563 36.71875 32.03125 L 36.71875 33.59375 C 36.71875 34.023438 37.070313 34.375 37.5 34.375 C 37.929688 34.375 38.28125 34.023438 38.28125 33.59375 L 38.28125 32.03125 C 38.28125 31.601563 37.929688 31.25 37.5 31.25 Z "/>
<path style=" stroke:none;fill-rule:nonzero;fill:#8D6C9F;fill-opacity:1;" d="M 44 19.40625 C 43.964844 19.378906 43.929688 19.355469 43.890625 19.335938 C 43.359375 19.144531 42.808594 19.003906 42.25 18.914063 L 42.007813 18.867188 C 42.226563 17.3125 42.226563 15.734375 42.007813 14.179688 C 41 6.871094 35.238281 1.132813 27.921875 0.15625 C 20.609375 -0.820313 13.542969 3.207031 10.65625 10 C 10.507813 10.34375 10.398438 10.695313 10.273438 11.046875 C 10.273438 11.125 10.210938 11.203125 10.1875 11.28125 C 3.929688 12.800781 -0.355469 18.570313 0 25 C 0.507813 32.125 6.492188 37.609375 13.632813 37.5 L 40.351563 37.5 C 45.453125 37.535156 49.691406 33.570313 50 28.476563 C 50.121094 24.488281 47.71875 20.855469 44 19.40625 Z M 46.09375 33.59375 L 46.09375 32.03125 C 46.09375 31.601563 45.742188 31.25 45.3125 31.25 C 44.882813 31.25 44.53125 31.601563 44.53125 32.03125 L 44.53125 33.59375 C 44.527344 33.980469 44.804688 34.3125 45.1875 34.375 C 43.78125 35.394531 42.089844 35.941406 40.351563 35.9375 L 13.632813 35.9375 C 11.25 35.941406 8.921875 35.253906 6.921875 33.960938 C 6.988281 33.847656 7.027344 33.722656 7.03125 33.59375 L 7.03125 32.03125 C 7.03125 31.601563 6.679688 31.25 6.25 31.25 C 5.820313 31.25 5.46875 31.601563 5.46875 32.03125 L 5.46875 32.8125 C 3.160156 30.792969 1.753906 27.9375 1.5625 24.875 C 1.296875 19.546875 4.640625 14.703125 9.71875 13.0625 C 9.492188 14.164063 9.375 15.28125 9.375 16.40625 C 9.375 16.835938 9.726563 17.1875 10.15625 17.1875 C 10.585938 17.1875 10.9375 16.835938 10.9375 16.40625 C 10.9375 14.984375 11.144531 13.566406 11.546875 12.203125 C 11.632813 11.90625 11.742188 11.625 11.84375 11.335938 C 11.890625 11.203125 11.9375 11.0625 11.992188 10.929688 C 14.234375 5.277344 19.699219 1.566406 25.78125 1.5625 C 26.414063 1.5625 27.050781 1.601563 27.679688 1.679688 C 34.308594 2.566406 39.539063 7.746094 40.492188 14.367188 C 40.679688 15.824219 40.65625 17.300781 40.421875 18.75 C 39.941406 18.753906 39.464844 18.796875 38.992188 18.875 C 38.5625 18.949219 38.273438 19.363281 38.347656 19.792969 C 38.421875 20.222656 38.835938 20.511719 39.265625 20.4375 C 39.867188 20.324219 40.476563 20.28125 41.085938 20.3125 C 41.296875 20.3125 41.5 20.3125 41.703125 20.375 L 41.953125 20.375 C 45.832031 21.039063 48.613281 24.488281 48.4375 28.421875 C 48.351563 30.382813 47.511719 32.234375 46.09375 33.59375 Z "/>
<path style=" stroke:none;fill-rule:nonzero;fill:#8D6C9F;fill-opacity:1;" d="M 33.757813 7.8125 C 33.890625 7.652344 33.949219 7.445313 33.929688 7.238281 C 33.90625 7.03125 33.800781 6.839844 33.640625 6.710938 C 33.023438 6.210938 32.363281 5.773438 31.664063 5.398438 C 31.417969 5.242188 31.101563 5.238281 30.851563 5.386719 C 30.601563 5.535156 30.453125 5.8125 30.46875 6.105469 C 30.484375 6.394531 30.664063 6.652344 30.929688 6.773438 C 31.542969 7.101563 32.125 7.484375 32.664063 7.921875 C 32.996094 8.191406 33.484375 8.144531 33.757813 7.8125 Z "/>
<path style=" stroke:none;fill-rule:nonzero;fill:#8D6C9F;fill-opacity:1;" d="M 28.421875 4.1875 C 25.503906 3.570313 22.457031 4.003906 19.828125 5.414063 C 19.449219 5.628906 19.316406 6.113281 19.53125 6.492188 C 19.746094 6.871094 20.230469 7.003906 20.609375 6.789063 C 22.910156 5.554688 25.570313 5.175781 28.125 5.710938 C 28.554688 5.800781 28.980469 5.523438 29.070313 5.09375 C 29.160156 4.664063 28.882813 4.238281 28.453125 4.148438 Z "/>
<path style=" stroke:none;fill-rule:nonzero;fill:#8D6C9F;fill-opacity:1;" d="M 29.828125 42.1875 C 29.726563 42.007813 29.554688 41.875 29.351563 41.820313 C 29.152344 41.765625 28.9375 41.792969 28.757813 41.898438 L 26.5625 43.179688 L 26.5625 40.625 C 26.5625 40.195313 26.210938 39.84375 25.78125 39.84375 C 25.351563 39.84375 25 40.195313 25 40.625 L 25 43.179688 L 22.789063 41.90625 C 22.417969 41.710938 21.960938 41.84375 21.75 42.207031 C 21.542969 42.570313 21.65625 43.035156 22.007813 43.257813 L 24.21875 44.53125 L 22.007813 45.804688 C 21.65625 46.027344 21.542969 46.492188 21.75 46.855469 C 21.960938 47.21875 22.417969 47.351563 22.789063 47.15625 L 25 45.882813 L 25 48.4375 C 25 48.867188 25.351563 49.21875 25.78125 49.21875 C 26.210938 49.21875 26.5625 48.867188 26.5625 48.4375 L 26.5625 45.882813 L 28.773438 47.15625 C 29.144531 47.351563 29.601563 47.21875 29.8125 46.855469 C 30.019531 46.492188 29.90625 46.027344 29.554688 45.804688 L 27.34375 44.53125 L 29.554688 43.257813 C 29.925781 43.039063 30.046875 42.558594 29.828125 42.1875 Z "/>
<path style=" stroke:none;fill-rule:nonzero;fill:#8D6C9F;fill-opacity:1;" d="M 41.65625 41.015625 C 41.441406 40.660156 40.992188 40.535156 40.625 40.726563 L 39.0625 41.609375 L 39.0625 39.84375 C 39.0625 39.414063 38.710938 39.0625 38.28125 39.0625 C 37.851563 39.0625 37.5 39.414063 37.5 39.84375 L 37.5 41.617188 L 35.9375 40.734375 C 35.566406 40.539063 35.109375 40.671875 34.898438 41.035156 C 34.691406 41.398438 34.804688 41.863281 35.15625 42.085938 L 36.71875 42.96875 L 35.15625 43.851563 C 34.804688 44.074219 34.691406 44.539063 34.898438 44.902344 C 35.109375 45.265625 35.566406 45.398438 35.9375 45.203125 L 37.5 44.320313 L 37.5 46.09375 C 37.5 46.523438 37.851563 46.875 38.28125 46.875 C 38.710938 46.875 39.0625 46.523438 39.0625 46.09375 L 39.0625 44.320313 L 40.625 45.203125 C 40.867188 45.355469 41.175781 45.367188 41.425781 45.226563 C 41.675781 45.085938 41.828125 44.820313 41.824219 44.535156 C 41.820313 44.246094 41.660156 43.984375 41.40625 43.851563 L 39.84375 42.96875 L 41.40625 42.085938 C 41.769531 41.859375 41.878906 41.378906 41.65625 41.015625 Z "/>
<path style=" stroke:none;fill-rule:nonzero;fill:#8D6C9F;fill-opacity:1;" d="M 16.65625 41.015625 C 16.441406 40.660156 15.992188 40.535156 15.625 40.726563 L 14.0625 41.609375 L 14.0625 39.84375 C 14.0625 39.414063 13.710938 39.0625 13.28125 39.0625 C 12.851563 39.0625 12.5 39.414063 12.5 39.84375 L 12.5 41.617188 L 10.9375 40.734375 C 10.566406 40.539063 10.109375 40.671875 9.898438 41.035156 C 9.691406 41.398438 9.804688 41.863281 10.15625 42.085938 L 11.71875 42.96875 L 10.15625 43.851563 C 9.804688 44.074219 9.691406 44.539063 9.898438 44.902344 C 10.109375 45.265625 10.566406 45.398438 10.9375 45.203125 L 12.5 44.320313 L 12.5 46.09375 C 12.5 46.523438 12.851563 46.875 13.28125 46.875 C 13.710938 46.875 14.0625 46.523438 14.0625 46.09375 L 14.0625 44.320313 L 15.625 45.203125 C 15.996094 45.398438 16.453125 45.265625 16.664063 44.902344 C 16.871094 44.539063 16.757813 44.074219 16.40625 43.851563 L 14.84375 42.96875 L 16.40625 42.085938 C 16.769531 41.859375 16.878906 41.378906 16.65625 41.015625 Z "/>
</g>
</svg>
